<svg version="1.1" id="Layer_1" xmlns="http://www.w3.org/2000/svg" xmlns:xlink="http://www.w3.org/1999/xlink" x="0px" y="0px"
	 width="100%" viewBox="0 0 146 155" enable-background="new 0 0 146 155" xml:space="preserve">
<path fill="#000000" opacity="1.000000" stroke="none" 
	d="
M147.000000,95.000000 
	C147.000000,115.317612 147.000000,135.635223 147.000000,155.976410 
	C98.386688,155.976410 49.773365,155.976410 1.080019,155.976410 
	C1.080019,104.426735 1.080019,52.853306 1.080019,1.139937 
	C49.666405,1.139937 98.333138,1.139937 147.000000,1.139937 
	C147.000000,20.092136 147.000000,39.077408 146.641968,58.697598 
	C145.204041,57.185795 144.124146,55.039074 142.899872,52.581017 
	C141.780548,50.526371 140.805618,48.783066 139.795959,46.701328 
	C137.523880,43.875492 135.286484,41.388084 133.017029,38.554924 
	C129.354858,35.120777 125.724777,32.032383 121.941498,28.634384 
	C117.201889,25.845146 112.615471,23.365509 107.844330,20.592049 
	C104.107903,18.923319 100.556190,17.548412 96.669029,15.992125 
	C92.900780,14.839533 89.467964,13.868324 85.864723,12.659920 
	C80.816833,12.090726 75.890228,12.074361 71.077797,11.324831 
	C67.364029,10.746418 64.836670,11.724314 62.587540,14.900828 
	C60.159786,14.966825 58.116192,14.966825 56.232151,14.966825 
	C54.696583,27.821396 53.252750,39.907982 51.353470,51.990395 
	C43.684452,51.668861 36.473263,51.263248 29.256384,51.068695 
	C25.212759,50.959686 20.910353,50.259739 17.487942,54.042252 
	C16.696972,54.209949 16.253807,54.577911 15.834737,54.552254 
	C9.306892,54.152615 8.991163,54.435486 8.978139,60.958652 
	C8.971533,64.267120 8.942612,67.575714 8.962181,70.884026 
	C8.994636,76.370514 8.142711,82.057465 9.292531,87.302849 
	C11.967889,99.507607 16.316809,111.169304 23.989212,121.337738 
	C31.932707,131.865433 42.072426,139.012833 55.034313,142.506210 
	C56.883507,143.476624 58.630234,144.159378 60.430141,144.645004 
	C70.942322,147.481323 81.493858,148.115646 92.411835,145.019287 
	C96.168747,143.691620 99.601311,142.399673 103.346687,141.156952 
	C106.787544,139.503677 109.915588,137.801178 113.387054,136.057938 
	C114.829933,135.380035 115.929390,134.742889 117.334930,133.953827 
	C121.094688,130.809830 124.548347,127.817741 128.334824,124.775108 
	C131.810593,120.501732 134.953552,116.278885 138.396057,111.873749 
	C140.835419,106.417961 142.941833,101.130257 145.171860,95.895210 
	C145.373047,95.422928 146.371689,95.290344 147.000000,95.000000 
z"/>
<path fill="#39A07E" opacity="1.000000" stroke="none" 
	d="
M143.044250,52.892353 
	C144.124146,55.039074 145.204041,57.185795 146.641968,59.166256 
	C147.000000,70.687561 147.000000,82.375122 147.000000,94.531342 
	C146.371689,95.290344 145.373047,95.422928 145.171860,95.895210 
	C142.941833,101.130257 140.835419,106.417961 138.092300,111.579636 
	C137.326004,109.843674 136.921356,108.201927 137.038025,106.598114 
	C138.015518,93.162613 138.936020,79.719467 140.218246,66.311577 
	C140.650681,61.789768 142.073868,57.362713 143.044250,52.892353 
z"/>
<path fill="#F0F5F7" opacity="1.000000" stroke="none" 
	d="
M54.956413,142.127487 
	C42.072426,139.012833 31.932707,131.865433 23.989212,121.337738 
	C16.316809,111.169304 11.967889,99.507607 9.292531,87.302849 
	C8.142711,82.057465 8.994636,76.370514 8.962181,70.884026 
	C8.942612,67.575714 8.971533,64.267120 8.978139,60.958652 
	C8.991163,54.435486 9.306892,54.152615 15.834737,54.552254 
	C16.253807,54.577911 16.696972,54.209949 17.681534,54.409866 
	C22.822151,55.199318 27.410164,55.604004 31.993317,56.317936 
	C31.984159,57.039536 31.979866,57.451893 31.563213,57.926834 
	C29.765989,58.059647 28.381124,58.129875 26.535892,58.119747 
	C21.487823,58.039391 16.900126,58.039391 12.102286,58.039391 
	C9.871680,75.978363 11.642591,92.513992 19.761044,108.465347 
	C22.478079,112.903091 25.144905,116.984268 27.905272,121.397339 
	C31.627605,124.955315 35.256397,128.181412 39.096497,131.663849 
	C42.495468,133.481232 45.683132,135.042282 49.156242,136.803497 
	C52.550262,137.883774 55.658829,138.763870 58.917313,139.963013 
	C62.710663,140.392883 66.354095,140.503693 70.396858,140.712143 
	C73.138428,140.573059 75.480667,140.336334 77.840561,140.492889 
	C75.791229,141.491867 73.731270,142.579865 71.655884,142.610138 
	C66.092926,142.691269 60.523357,142.319412 54.956413,142.127487 
z"/>
<path fill="#389D7F" opacity="1.000000" stroke="none" 
	d="
M142.899872,52.581017 
	C142.073868,57.362713 140.650681,61.789768 140.218246,66.311577 
	C138.936020,79.719467 138.015518,93.162613 137.038025,106.598114 
	C136.921356,108.201927 137.326004,109.843674 137.792755,111.761940 
	C134.953552,116.278885 131.810593,120.501732 128.334351,124.323929 
	C127.911392,118.434341 127.821724,112.945396 127.816223,107.137512 
	C129.537552,102.023956 131.174713,97.229355 132.878021,92.003319 
	C132.963989,90.708122 132.983826,89.844360 133.002045,88.752411 
	C133.000412,88.524216 133.007004,88.067871 133.275482,87.817604 
	C133.699066,86.363686 133.854187,85.160034 134.375732,83.736176 
	C134.543777,77.009483 134.345428,70.503006 134.502991,63.908745 
	C135.572678,61.568359 136.324997,59.327084 136.991104,57.060474 
	C137.969910,53.729729 138.887192,50.380890 139.830673,47.039761 
	C140.805618,48.783066 141.780548,50.526371 142.899872,52.581017 
z"/>
<path fill="#28877F" opacity="1.000000" stroke="none" 
	d="
M103.033882,141.107727 
	C99.601311,142.399673 96.168747,143.691620 92.136826,144.781418 
	C90.044075,137.371506 88.897385,136.603470 82.799232,139.829834 
	C83.562012,130.531815 84.281143,121.765755 85.189087,112.753784 
	C86.252632,112.013496 87.127380,111.519119 88.278954,110.828140 
	C91.030739,109.107666 93.505714,107.583794 95.987167,106.521835 
	C95.258080,116.825111 94.522530,126.666466 93.761780,136.844925 
	C93.442101,136.804062 94.220284,136.903549 95.298676,136.859314 
	C97.353058,134.726303 99.370392,133.720215 102.278687,135.274902 
	C102.716110,137.400955 102.875000,139.254349 103.033882,141.107727 
z"/>
<path fill="#1C7581" opacity="1.000000" stroke="none" 
	d="
M62.971699,14.834831 
	C64.836670,11.724314 67.364029,10.746418 71.077797,11.324831 
	C75.890228,12.074361 80.816833,12.090726 85.844925,13.078295 
	C85.613991,15.352862 85.232437,16.971859 84.444038,18.494280 
	C80.887939,18.896662 77.572708,14.546351 74.190689,18.978912 
	C72.554001,32.081139 71.275917,44.926888 69.677528,57.828735 
	C68.924164,57.875294 68.491112,57.865757 67.875504,57.560699 
	C66.794113,57.049313 65.895271,56.833443 64.997284,56.202911 
	C66.078255,45.124599 67.189301,34.463917 68.211624,23.794731 
	C68.409142,21.733433 68.259583,19.638880 68.164200,17.161285 
	C66.362747,16.120214 64.667221,15.477523 62.971699,14.834831 
z"/>
<path fill="#258181" opacity="1.000000" stroke="none" 
	d="
M85.000282,112.999695 
	C84.281143,121.765755 83.562012,130.531815 82.799232,139.829834 
	C88.897385,136.603470 90.044075,137.371506 91.812469,144.817169 
	C81.493858,148.115646 70.942322,147.481323 60.430141,144.645004 
	C58.630234,144.159378 56.883507,143.476624 55.034313,142.506210 
	C60.523357,142.319412 66.092926,142.691269 71.655884,142.610138 
	C73.731270,142.579865 75.791229,141.491867 78.151993,140.213669 
	C79.297127,130.705460 80.148499,121.869743 81.399933,113.030670 
	C82.866760,113.018105 83.933517,113.008896 85.000282,112.999695 
z"/>
<path fill="#32947F" opacity="1.000000" stroke="none" 
	d="
M122.094688,28.943989 
	C125.724777,32.032383 129.354858,35.120777 132.853394,38.927956 
	C131.723984,43.610435 130.726135,47.574127 129.476471,51.281052 
	C125.773911,46.490013 122.323204,41.955750 119.010979,37.050163 
	C120.131210,34.100559 121.112953,31.522274 122.094688,28.943989 
z"/>
<path fill="#369781" opacity="1.000000" stroke="none" 
	d="
M127.732040,107.456451 
	C127.821724,112.945396 127.911392,118.434341 128.001541,124.374466 
	C124.548347,127.817741 121.094688,130.809830 117.326721,133.487518 
	C117.693314,128.557129 118.374222,123.941162 119.091393,119.046677 
	C119.160950,118.583893 119.194244,118.399628 119.553719,118.121841 
	C122.497284,114.504372 125.114662,110.980408 127.732040,107.456451 
z"/>
<path fill="#EEF5F6" opacity="1.000000" stroke="none" 
	d="
M62.587540,14.900827 
	C64.667221,15.477523 66.362747,16.120214 67.708008,17.029903 
	C65.360558,17.255566 63.311924,16.930773 61.385685,17.280376 
	C60.250164,17.486471 58.516285,18.660374 58.399734,19.571484 
	C56.844158,31.732151 55.527103,43.923332 54.129253,56.296574 
	C57.735397,56.573708 60.862831,56.814053 63.993050,57.350616 
	C63.988735,58.041828 63.981640,58.436817 63.648476,58.892532 
	C62.880543,58.971436 62.438679,58.989616 61.724762,58.728851 
	C59.051453,58.341022 56.650196,58.232140 53.819580,58.080238 
	C52.528687,58.057220 51.667149,58.077217 50.456627,58.165367 
	C49.406231,58.162689 48.704830,58.091858 48.010025,57.731346 
	C48.025433,57.055752 48.034237,56.669842 48.333641,56.201092 
	C52.406551,56.844902 52.276318,54.549931 51.808922,51.994572 
	C53.252750,39.907982 54.696583,27.821396 56.232151,14.966825 
	C58.116192,14.966825 60.159786,14.966825 62.587540,14.900827 
z"/>
<path fill="#065A7F" opacity="1.000000" stroke="none" 
	d="
M51.353470,51.990395 
	C52.276318,54.549931 52.406551,56.844902 47.945110,56.074024 
	C44.982632,56.052994 42.699287,56.076191 40.013924,55.992393 
	C37.073997,55.926498 34.536087,55.967594 31.998178,56.008690 
	C27.410164,55.604004 22.822151,55.199318 18.040545,54.427025 
	C20.910353,50.259739 25.212759,50.959686 29.256384,51.068695 
	C36.473263,51.263248 43.684452,51.668861 51.353470,51.990395 
z"/>
<path fill="#369B7F" opacity="1.000000" stroke="none" 
	d="
M129.728302,51.537823 
	C130.726135,47.574127 131.723984,43.610435 132.885468,39.273708 
	C135.286484,41.388084 137.523880,43.875492 139.795959,46.701328 
	C138.887192,50.380890 137.969910,53.729729 136.991104,57.060474 
	C136.324997,59.327084 135.572678,61.568359 134.348694,63.560551 
	C132.468430,59.379364 131.098373,55.458591 129.728302,51.537823 
z"/>
<path fill="#2B8B7F" opacity="1.000000" stroke="none" 
	d="
M121.941498,28.634384 
	C121.112953,31.522274 120.131210,34.100559 118.718903,36.855118 
	C114.959373,34.626595 111.630424,32.221798 108.098251,29.573151 
	C107.048363,28.677954 106.201683,28.026611 105.730286,27.182663 
	C106.746727,24.955328 107.387886,22.920599 108.029045,20.885872 
	C112.615471,23.365509 117.201889,25.845146 121.941498,28.634384 
z"/>
<path fill="#319081" opacity="1.000000" stroke="none" 
	d="
M119.055130,119.325195 
	C118.374222,123.941162 117.693314,128.557129 117.020630,133.639404 
	C115.929390,134.742889 114.829933,135.380035 113.238953,135.716400 
	C112.607079,132.516815 112.466728,129.618011 112.300865,126.192520 
	C109.384834,128.445663 107.202942,130.036102 105.137222,131.765335 
	C103.991310,132.724579 103.039467,133.915665 102.000153,135.002258 
	C99.370392,133.720215 97.353058,134.726303 95.306854,136.493118 
	C96.143616,134.979187 97.165176,133.568893 98.429756,132.427948 
	C99.837929,131.157455 101.467255,130.132080 103.378326,128.999054 
	C105.826157,127.645477 107.895958,126.292862 110.315422,124.929108 
	C111.782364,123.952332 112.899628,122.986694 114.262177,121.842102 
	C115.006409,120.779991 115.505379,119.896828 116.216843,119.019394 
	C116.429344,119.025131 116.854156,119.042496 117.212204,119.142830 
	C118.065216,119.270508 118.560173,119.297852 119.055130,119.325195 
z"/>
<path fill="#308F81" opacity="1.000000" stroke="none" 
	d="
M102.278687,135.274902 
	C103.039467,133.915665 103.991310,132.724579 105.137222,131.765335 
	C107.202942,130.036102 109.384834,128.445663 112.300865,126.192520 
	C112.466728,129.618011 112.607079,132.516815 112.895538,135.757141 
	C109.915588,137.801178 106.787544,139.503677 103.346687,141.156952 
	C102.875000,139.254349 102.716110,137.400955 102.278687,135.274902 
z"/>
<path fill="#268480" opacity="1.000000" stroke="none" 
	d="
M107.844330,20.592049 
	C107.387886,22.920599 106.746727,24.955328 105.436150,27.065540 
	C102.177513,25.753799 99.588303,24.366575 96.998474,22.552231 
	C97.000061,20.141241 97.002266,18.157373 97.004471,16.173508 
	C100.556190,17.548412 104.107903,18.923319 107.844330,20.592049 
z"/>
<path fill="#217D80" opacity="1.000000" stroke="none" 
	d="
M96.669029,15.992123 
	C97.002266,18.157373 97.000061,20.141241 96.635384,22.501863 
	C92.465569,21.449364 88.658218,20.020109 84.850876,18.590855 
	C85.232437,16.971859 85.613991,15.352862 86.015350,13.315491 
	C89.467964,13.868324 92.900780,14.839533 96.669029,15.992123 
z"/>
<path fill="#0D637F" opacity="1.000000" stroke="none" 
	d="
M38.885189,131.407501 
	C35.256397,128.181412 31.627605,124.955315 28.292278,121.317581 
	C29.390404,118.898315 30.664820,116.946030 30.909046,114.872398 
	C31.564262,109.309219 31.678028,103.684937 32.188129,98.101479 
	C33.401207,84.823265 34.718967,71.554619 36.390827,58.204487 
	C37.859398,58.058006 38.931576,57.989147 40.368889,58.019234 
	C42.498577,58.281414 44.263134,58.444649 46.020470,59.089828 
	C45.946323,62.390617 46.063583,65.228104 45.780437,68.025063 
	C44.585667,79.827164 43.284138,91.618561 41.997086,103.411194 
	C40.978355,112.745316 39.923824,122.075546 38.885189,131.407501 
z"/>
<path fill="#146B80" opacity="1.000000" stroke="none" 
	d="
M39.096497,131.663849 
	C39.923824,122.075546 40.978355,112.745316 41.997086,103.411194 
	C43.284138,91.618561 44.585667,79.827164 45.780437,68.025063 
	C46.063583,65.228104 45.946323,62.390617 46.261276,58.990387 
	C47.007343,58.279678 47.505386,58.150352 48.003426,58.021027 
	C48.704830,58.091858 49.406231,58.162689 50.715584,58.552757 
	C50.939064,63.178974 50.554604,67.485954 50.170139,71.792938 
	C50.524723,71.868454 50.879307,71.943977 51.233887,72.019493 
	C51.640377,71.410019 52.046864,70.800537 52.575218,70.618607 
	C52.186211,74.861969 51.146408,78.697876 51.290520,82.488792 
	C51.497974,87.946014 52.566334,93.370514 53.211464,98.971298 
	C53.258522,99.856445 53.361385,100.579254 53.263805,101.700638 
	C51.665844,113.600571 50.268322,125.101944 48.870796,136.603317 
	C45.683132,135.042282 42.495468,133.481232 39.096497,131.663849 
z"/>
<path fill="#065980" opacity="1.000000" stroke="none" 
	d="
M19.710835,108.108795 
	C11.642591,92.513992 9.871680,75.978363 12.102286,58.039391 
	C16.900126,58.039391 21.487823,58.039391 26.536612,58.560539 
	C26.664978,63.334103 26.389679,67.591949 25.988230,71.837868 
	C24.984823,82.450394 24.036106,93.070953 22.765621,103.652283 
	C22.575325,105.237198 20.769379,106.628128 19.710835,108.108795 
z"/>
<path fill="#095E7F" opacity="1.000000" stroke="none" 
	d="
M19.761044,108.465347 
	C20.769379,106.628128 22.575325,105.237198 22.765621,103.652283 
	C24.036106,93.070953 24.984823,82.450394 25.988230,71.837868 
	C26.389679,67.591949 26.664978,63.334103 26.996979,58.640896 
	C28.381124,58.129875 29.765989,58.059647 31.956947,58.025452 
	C33.840172,58.135025 34.917305,58.208569 35.994434,58.282112 
	C34.718967,71.554619 33.401207,84.823265 32.188129,98.101479 
	C31.678028,103.684937 31.564262,109.309219 30.909046,114.872398 
	C30.664820,116.946030 29.390404,118.898315 28.198736,120.985695 
	C25.144905,116.984268 22.478079,112.903091 19.761044,108.465347 
z"/>
<path fill="#227F7F" opacity="1.000000" stroke="none" 
	d="
M80.999863,113.034027 
	C80.148499,121.869743 79.297127,130.705460 78.134331,139.820404 
	C75.480667,140.336334 73.138428,140.573059 70.395981,140.284286 
	C70.664154,130.506271 71.332535,121.253746 72.258102,111.999092 
	C72.686752,111.995270 72.858215,111.993584 73.344070,111.994659 
	C74.438850,111.636559 75.219223,111.275703 75.999817,110.451523 
	C76.042038,93.445251 76.084038,76.902298 76.495575,60.368656 
	C77.577408,60.565826 78.289711,60.753681 79.001419,61.414841 
	C79.001457,77.926247 79.002090,93.964340 79.044937,110.314636 
	C79.695740,111.095802 80.304337,111.564781 80.931427,112.284103 
	C80.966560,112.700981 80.983208,112.867500 80.999863,113.034027 
z"/>
<path fill="#18717F" opacity="1.000000" stroke="none" 
	d="
M49.156250,136.803497 
	C50.268322,125.101944 51.665844,113.600571 53.453117,102.007309 
	C56.631439,104.762917 59.420010,107.610428 62.153351,110.915901 
	C60.987881,120.797234 59.877640,130.220596 58.767399,139.643967 
	C55.658829,138.763870 52.550262,137.883774 49.156250,136.803497 
z"/>
<path fill="#1E7980" opacity="1.000000" stroke="none" 
	d="
M58.917313,139.963013 
	C59.877640,130.220596 60.987881,120.797234 62.444641,111.063591 
	C63.413498,110.750565 64.035835,110.747810 64.843903,110.889313 
	C65.029633,111.033577 65.372078,111.348129 65.388908,111.361511 
	C65.405739,111.374901 65.408546,111.346001 65.848785,111.254089 
	C67.184921,111.099663 68.080818,111.037155 69.190430,111.233299 
	C70.269737,111.661713 71.135330,111.831467 72.000916,112.001221 
	C71.332535,121.253746 70.664154,130.506271 69.996651,140.186646 
	C66.354095,140.503693 62.710663,140.392883 58.917313,139.963013 
z"/>
<path fill="#CFE0E6" opacity="1.000000" stroke="none" 
	d="
M36.390827,58.204491 
	C34.917305,58.208569 33.840172,58.135025 32.369308,57.962868 
	C31.979866,57.451893 31.984159,57.039536 31.993317,56.317940 
	C34.536087,55.967594 37.073997,55.926498 39.888893,56.443710 
	C40.111843,57.308105 40.057796,57.614197 40.003754,57.920288 
	C38.931576,57.989147 37.859398,58.058006 36.390827,58.204491 
z"/>
<path fill="#3A9E80" opacity="1.000000" stroke="none" 
	d="
M133.007004,88.067871 
	C133.007004,88.067871 133.000412,88.524216 132.618835,88.842041 
	C131.972580,90.333717 131.707901,91.507576 131.488159,93.039108 
	C129.493530,97.669823 127.453964,101.942871 125.056969,105.939659 
	C124.468140,104.716042 123.960014,103.742477 124.046837,102.825233 
	C125.339890,89.163689 126.686165,75.506874 128.140076,61.861740 
	C128.212601,61.181061 129.380569,60.617100 130.250916,60.316772 
	C131.316772,68.086319 132.170181,75.537888 132.754791,83.224091 
	C132.659653,84.995102 132.833328,86.531487 133.007004,88.067871 
z"/>
<path fill="#C2E0D9" opacity="1.000000" stroke="none" 
	d="
M133.023590,82.989456 
	C132.170181,75.537888 131.316772,68.086319 130.229736,59.945908 
	C127.726318,55.049664 125.456490,50.842258 123.034409,46.352608 
	C121.296150,44.274841 119.710144,42.479324 117.961861,40.400070 
	C115.930603,38.555382 114.061630,36.994427 112.013809,35.188232 
	C110.221130,33.634804 108.607307,32.326614 107.146698,30.756145 
	C107.633759,30.268248 107.967613,30.042625 108.301468,29.817001 
	C111.630424,32.221798 114.959373,34.626595 118.580414,37.226437 
	C122.323204,41.955750 125.773911,46.490013 129.476471,51.281052 
	C131.098373,55.458591 132.468430,59.379364 133.992767,63.648331 
	C134.345428,70.503006 134.543777,77.009483 134.290222,83.505943 
	C133.641693,83.206535 133.370117,83.037712 133.023590,82.989456 
z"/>
<path fill="#C4E1D9" opacity="1.000000" stroke="none" 
	d="
M125.414391,106.215912 
	C127.453964,101.942871 129.493530,97.669823 131.714417,92.991791 
	C131.895737,92.586807 132.339264,92.423492 132.339264,92.423492 
	C132.339264,92.423492 132.811890,92.434753 132.811890,92.434753 
	C131.174713,97.229355 129.537552,102.023956 127.816216,107.137512 
	C125.114662,110.980408 122.497284,114.504372 119.345016,117.914459 
	C118.671768,117.661674 118.533424,117.522766 118.572678,117.090637 
	C120.971642,113.270248 123.193016,109.743080 125.414391,106.215912 
z"/>
<path fill="#46A687" opacity="1.000000" stroke="none" 
	d="
M132.754791,83.224091 
	C133.370117,83.037712 133.641693,83.206535 133.923813,83.726151 
	C133.854187,85.160034 133.699066,86.363686 133.275482,87.817604 
	C132.833328,86.531487 132.659653,84.995102 132.754791,83.224091 
z"/>
<path fill="#46A687" opacity="1.000000" stroke="none" 
	d="
M132.878021,92.003319 
	C132.811890,92.434753 132.339264,92.423492 132.339264,92.423492 
	C132.339264,92.423492 131.895737,92.586807 131.669464,92.634117 
	C131.707901,91.507576 131.972580,90.333717 132.620468,89.070236 
	C132.983826,89.844360 132.963989,90.708122 132.878021,92.003319 
z"/>
<path fill="#308F81" opacity="1.000000" stroke="none" 
	d="
M103.000305,129.000000 
	C101.467255,130.132080 99.837929,131.157455 98.429756,132.427948 
	C97.165176,133.568893 96.143616,134.979187 95.006660,136.636856 
	C94.220284,136.903549 93.442101,136.804062 93.761780,136.844925 
	C94.522530,126.666466 95.258080,116.825111 96.130066,106.229828 
	C96.835381,104.359802 97.404251,103.243698 98.274963,101.950737 
	C100.276817,99.151764 101.976845,96.529648 104.012787,94.117325 
	C104.807419,97.007797 105.815735,99.728355 105.624695,102.361900 
	C104.979370,111.257912 103.908493,120.123055 103.000305,129.000000 
z"/>
<path fill="#399C81" opacity="1.000000" stroke="none" 
	d="
M97.973129,102.127594 
	C97.404251,103.243698 96.835381,104.359802 96.123596,105.767914 
	C93.505714,107.583794 91.030739,109.107666 88.159698,110.558075 
	C87.464279,109.977219 87.164940,109.469818 87.033615,108.694016 
	C88.132195,107.616707 89.062759,106.807800 90.371956,105.988937 
	C92.167412,103.671135 94.674088,101.423889 94.806389,99.044609 
	C95.295845,90.241608 95.079399,81.393906 94.952652,72.565521 
	C94.916199,70.026413 94.288933,67.495789 94.181305,64.700447 
	C95.615799,64.297600 96.801529,64.155571 97.978333,64.383087 
	C97.923676,65.243118 97.877937,65.733612 97.633514,66.444565 
	C100.325638,73.188812 103.941246,79.503204 103.188904,87.400024 
	C101.361748,92.548462 99.667435,97.338028 97.973129,102.127594 
z"/>
<path fill="#308F81" opacity="1.000000" stroke="none" 
	d="
M86.865601,108.962418 
	C87.164940,109.469818 87.464279,109.977219 87.882881,110.754684 
	C87.127380,111.519119 86.252632,112.013496 85.189087,112.753777 
	C83.933517,113.008896 82.866760,113.018105 81.399933,113.030670 
	C80.983208,112.867500 80.966560,112.700981 80.959442,111.945450 
	C80.977074,110.904198 80.985184,110.451950 81.288933,109.972038 
	C82.057098,109.630196 82.529617,109.316010 83.390228,109.000580 
	C84.807411,108.987030 85.836510,108.974716 86.865601,108.962418 
z"/>
<path fill="#1B7381" opacity="1.000000" stroke="none" 
	d="
M63.990261,57.054394 
	C60.862831,56.814053 57.735397,56.573708 54.129253,56.296574 
	C55.527103,43.923332 56.844158,31.732151 58.399734,19.571484 
	C58.516285,18.660374 60.250164,17.486471 61.385685,17.280376 
	C63.311924,16.930773 65.360558,17.255566 67.813942,17.428284 
	C68.259583,19.638880 68.409142,21.733433 68.211624,23.794731 
	C67.189301,34.463917 66.078255,45.124599 64.745926,56.312645 
	C64.325897,56.909492 64.158081,56.981941 63.990261,57.054394 
z"/>
<path fill="#1D797F" opacity="1.000000" stroke="none" 
	d="
M69.997833,57.772629 
	C71.275917,44.926888 72.554001,32.081139 74.543503,18.980835 
	C77.842552,19.416874 80.430191,20.107473 83.011841,21.249014 
	C82.294762,29.018837 81.759247,36.360573 80.810402,43.648502 
	C80.185493,48.448273 78.965225,53.170525 77.650520,57.930420 
	C74.858940,57.879780 72.428383,57.826206 69.997833,57.772629 
z"/>
<path fill="#B4D4D3" opacity="1.000000" stroke="none" 
	d="
M83.017822,20.798073 
	C80.430191,20.107473 77.842552,19.416874 74.902107,18.724354 
	C77.572708,14.546351 80.887939,18.896662 84.444038,18.494280 
	C88.658218,20.020109 92.465569,21.449364 96.636002,22.928986 
	C99.588303,24.366575 102.177513,25.753799 105.060867,27.258146 
	C106.201683,28.026611 107.048363,28.677954 108.098251,29.573151 
	C107.967613,30.042625 107.633759,30.268248 106.805771,30.695963 
	C105.267647,30.405088 104.223671,29.912119 102.964935,29.182774 
	C99.496559,27.382818 96.242935,25.819239 92.659897,24.071369 
	C89.226273,22.857409 86.122047,21.827740 83.017822,20.798073 
z"/>
<path fill="#C0DBDB" opacity="1.000000" stroke="none" 
	d="
M69.677528,57.828732 
	C72.428383,57.826206 74.858940,57.879780 78.024162,58.046524 
	C82.086021,58.981895 85.413208,59.804096 88.938385,60.838768 
	C90.249382,62.274677 91.362389,63.498119 92.315887,64.647339 
	C91.908142,64.527557 91.682770,64.580193 91.285065,64.457062 
	C90.055542,63.860718 89.021202,63.538345 87.601242,63.155464 
	C86.181519,62.991535 85.147415,62.888115 83.941162,62.471107 
	C82.180023,61.752190 80.591011,61.346859 79.002007,60.941532 
	C78.289711,60.753681 77.577408,60.565826 76.209366,60.229362 
	C74.702927,60.044727 73.852219,60.008698 72.623894,59.944820 
	C71.495758,60.009331 70.745255,60.101696 69.715866,60.065887 
	C68.953056,59.568874 68.469124,59.200035 67.996269,58.586914 
	C68.007339,58.342636 68.058052,57.856216 68.058052,57.856216 
	C68.491112,57.865757 68.924164,57.875294 69.677528,57.828732 
z"/>
<path fill="#D2E3E7" opacity="1.000000" stroke="none" 
	d="
M67.875504,57.560699 
	C68.058052,57.856216 68.007339,58.342636 67.665337,58.648926 
	C66.881409,59.028221 66.439484,59.101231 65.660797,59.110241 
	C64.874214,58.974766 64.424377,58.903282 63.974545,58.831802 
	C63.981640,58.436817 63.988735,58.041828 63.993050,57.350616 
	C64.158081,56.981941 64.325897,56.909492 64.745071,56.727310 
	C65.895271,56.833443 66.794113,57.049313 67.875504,57.560699 
z"/>
<path fill="#C4E1D9" opacity="1.000000" stroke="none" 
	d="
M119.091393,119.046677 
	C118.560173,119.297852 118.065216,119.270508 117.274261,118.848221 
	C117.450531,118.096802 117.922806,117.740334 118.395088,117.383865 
	C118.533424,117.522766 118.671768,117.661674 119.018829,118.007980 
	C119.194244,118.399628 119.160950,118.583893 119.091393,119.046677 
z"/>
<path fill="#126781" opacity="1.000000" stroke="none" 
	d="
M53.267265,98.808975 
	C52.566334,93.370514 51.497974,87.946014 51.290520,82.488792 
	C51.146408,78.697876 52.186211,74.861969 52.528984,70.298340 
	C52.990242,65.741440 53.619591,61.932346 54.248940,58.123257 
	C56.650196,58.232140 59.051453,58.341022 61.725945,59.195732 
	C61.776695,70.161964 61.717739,80.389687 61.260971,90.599617 
	C61.041054,95.515366 60.071083,100.397545 59.153301,105.165573 
	C56.999649,102.960472 55.133457,100.884720 53.267265,98.808975 
z"/>
<path fill="#166E80" opacity="1.000000" stroke="none" 
	d="
M59.440762,105.294930 
	C60.071083,100.397545 61.041054,95.515366 61.260971,90.599617 
	C61.717739,80.389687 61.776695,70.161964 61.998001,59.474674 
	C62.438679,58.989616 62.880543,58.971436 63.648476,58.892532 
	C64.424377,58.903282 64.874214,58.974766 65.661606,59.567261 
	C65.999443,74.672218 66.033119,89.256332 65.955544,103.839859 
	C65.946388,105.563080 65.327377,107.283066 64.674004,108.904251 
	C62.718216,107.634285 61.079487,106.464607 59.440762,105.294930 
z"/>
<path fill="#D2E3E7" opacity="1.000000" stroke="none" 
	d="
M53.819580,58.080238 
	C53.619591,61.932346 52.990242,65.741440 52.407124,69.870796 
	C52.046864,70.800537 51.640377,71.410019 51.233887,72.019493 
	C50.879307,71.943977 50.524723,71.868454 50.170139,71.792938 
	C50.554604,67.485954 50.939064,63.178974 51.064571,58.484604 
	C51.667149,58.077217 52.528687,58.057220 53.819580,58.080238 
z"/>
<path fill="#D2E3E7" opacity="1.000000" stroke="none" 
	d="
M40.368889,58.019230 
	C40.057796,57.614197 40.111843,57.308105 40.290913,56.550705 
	C42.699287,56.076191 44.982632,56.052994 47.654510,56.156860 
	C48.034237,56.669842 48.025433,57.055752 48.010025,57.731346 
	C47.505386,58.150352 47.007343,58.279678 46.268494,58.508442 
	C44.263134,58.444649 42.498577,58.281414 40.368889,58.019230 
z"/>
<path fill="#30927F" opacity="1.000000" stroke="none" 
	d="
M103.378326,128.999054 
	C103.908493,120.123055 104.979370,111.257912 105.624695,102.361900 
	C105.815735,99.728355 104.807419,97.007797 104.102997,93.737389 
	C104.186584,91.105049 104.515884,89.062447 104.911179,86.645088 
	C105.024963,83.512115 105.072754,80.753899 105.480530,77.905029 
	C106.893684,72.288254 108.148140,66.791267 108.953354,61.229256 
	C110.194786,52.654064 111.128448,44.034317 112.192657,35.433472 
	C114.061630,36.994427 115.930603,38.555382 117.884659,40.832008 
	C117.313179,46.456421 116.527885,51.352123 116.029007,56.276844 
	C115.195076,64.508980 114.546371,72.759850 113.815636,81.002480 
	C112.545090,95.334190 111.271439,109.665634 109.993721,124.233055 
	C109.988358,124.468925 109.965759,124.940262 109.965759,124.940262 
	C107.895958,126.292862 105.826157,127.645477 103.378326,128.999054 
z"/>
<path fill="#359A7F" opacity="1.000000" stroke="none" 
	d="
M118.572678,117.090637 
	C117.922806,117.740334 117.450531,118.096802 116.916206,118.747887 
	C116.854156,119.042496 116.429344,119.025131 116.214851,118.557343 
	C116.028908,115.260483 115.869598,112.414810 116.117722,109.605118 
	C117.353577,95.610786 118.567047,81.612106 120.056282,67.643517 
	C120.806229,60.609337 122.125076,53.635811 123.186668,46.634857 
	C125.456490,50.842258 127.726318,55.049664 130.017303,59.627930 
	C129.380569,60.617100 128.212601,61.181061 128.140076,61.861740 
	C126.686165,75.506874 125.339890,89.163689 124.046837,102.825233 
	C123.960014,103.742477 124.468140,104.716042 125.056969,105.939659 
	C123.193016,109.743080 120.971642,113.270248 118.572678,117.090637 
z"/>
<path fill="#32967E" opacity="1.000000" stroke="none" 
	d="
M123.034409,46.352608 
	C122.125076,53.635811 120.806229,60.609337 120.056282,67.643517 
	C118.567047,81.612106 117.353577,95.610786 116.117722,109.605118 
	C115.869598,112.414810 116.028908,115.260483 116.002350,118.551613 
	C115.505379,119.896828 115.006409,120.779991 113.934822,121.864716 
	C112.241158,122.709915 111.120117,123.353546 109.999084,123.997185 
	C111.271439,109.665634 112.545090,95.334190 113.815636,81.002480 
	C114.546371,72.759850 115.195076,64.508980 116.029007,56.276844 
	C116.527885,51.352123 117.313179,46.456421 118.046936,41.115742 
	C119.710144,42.479324 121.296150,44.274841 123.034409,46.352608 
z"/>
<path fill="#369781" opacity="1.000000" stroke="none" 
	d="
M109.993721,124.233055 
	C111.120117,123.353546 112.241158,122.709915 113.689545,122.043671 
	C112.899628,122.986694 111.782364,123.952332 110.315430,124.929115 
	C109.965759,124.940262 109.988358,124.468925 109.993721,124.233055 
z"/>
<path fill="#A9CAD0" opacity="1.000000" stroke="none" 
	d="
M59.153301,105.165573 
	C61.079487,106.464607 62.718216,107.634285 64.684311,109.203606 
	C64.893837,109.983849 64.776009,110.364456 64.658173,110.745056 
	C64.035835,110.747810 63.413498,110.750565 62.499870,110.605629 
	C59.420010,107.610428 56.631439,104.762917 53.653557,101.608742 
	C53.361385,100.579254 53.258522,99.856445 53.211464,98.971298 
	C55.133457,100.884720 56.999649,102.960472 59.153301,105.165573 
z"/>
<path fill="#1A777E" opacity="1.000000" stroke="none" 
	d="
M69.994743,60.194054 
	C70.745255,60.101696 71.495758,60.009331 72.623077,60.415699 
	C73.003494,77.618294 73.007095,94.322166 73.003853,111.267731 
	C72.997009,111.509430 73.029678,111.991905 73.029678,111.991905 
	C72.858215,111.993584 72.686752,111.995270 72.258102,111.999092 
	C71.135330,111.831467 70.269737,111.661713 69.198959,110.767593 
	C69.327431,93.426834 69.661087,76.810440 69.994743,60.194054 
z"/>
<path fill="#26847F" opacity="1.000000" stroke="none" 
	d="
M79.001419,61.414841 
	C80.591011,61.346859 82.180023,61.752190 83.764206,62.869457 
	C83.506355,65.518318 83.043549,67.454231 83.034149,69.392334 
	C82.970123,82.595238 83.001526,95.798607 83.002136,109.001831 
	C82.529617,109.316010 82.057098,109.630196 80.957245,109.972366 
	C79.887512,110.001053 79.445122,110.001747 79.002724,110.002441 
	C79.002090,93.964340 79.001457,77.926247 79.001419,61.414841 
z"/>
<path fill="#1F7C7E" opacity="1.000000" stroke="none" 
	d="
M73.010696,111.026031 
	C73.007095,94.322166 73.003494,77.618294 73.000702,60.443550 
	C73.852219,60.008698 74.702927,60.044727 75.839828,60.220047 
	C76.084038,76.902298 76.042038,93.445251 75.627274,110.489624 
	C74.506569,111.002708 73.758629,111.014366 73.010696,111.026031 
z"/>
<path fill="#2A8A7F" opacity="1.000000" stroke="none" 
	d="
M79.044937,110.314636 
	C79.445122,110.001747 79.887512,110.001053 80.661598,110.000031 
	C80.985184,110.451950 80.977074,110.904198 80.940956,111.695099 
	C80.304337,111.564781 79.695740,111.095802 79.044937,110.314636 
z"/>
<path fill="#599E9F" opacity="1.000000" stroke="none" 
	d="
M73.003853,111.267731 
	C73.758629,111.014366 74.506569,111.002708 75.627045,110.952942 
	C75.219223,111.275703 74.438850,111.636559 73.344070,111.994659 
	C73.029678,111.991905 72.997009,111.509430 73.003853,111.267731 
z"/>
<path fill="#17727E" opacity="1.000000" stroke="none" 
	d="
M69.715866,60.065884 
	C69.661087,76.810440 69.327431,93.426834 68.985245,110.508926 
	C68.080818,111.037155 67.184921,111.099663 65.839600,111.242859 
	C65.390175,111.323547 65.372078,111.348129 65.372078,111.348129 
	C65.372078,111.348129 65.029633,111.033577 64.843903,110.889313 
	C64.776009,110.364456 64.893837,109.983849 65.001373,109.303894 
	C65.327377,107.283066 65.946388,105.563080 65.955544,103.839859 
	C66.033119,89.256332 65.999443,74.672218 65.998367,59.631256 
	C66.439484,59.101231 66.881409,59.028221 67.654266,58.893204 
	C68.469124,59.200035 68.953056,59.568874 69.715866,60.065884 
z"/>
<path fill="#A9CAD0" opacity="1.000000" stroke="none" 
	d="
M65.388908,111.361511 
	C65.372078,111.348129 65.390175,111.323547 65.399361,111.334778 
	C65.408546,111.346001 65.405739,111.374901 65.388908,111.361511 
z"/>
<path fill="#2D8D7F" opacity="1.000000" stroke="none" 
	d="
M112.013809,35.188232 
	C111.128448,44.034317 110.194786,52.654064 108.953354,61.229256 
	C108.148140,66.791267 106.893684,72.288254 105.345917,77.569519 
	C103.221344,74.273003 101.591347,71.221329 99.930557,67.823013 
	C99.213608,67.025330 98.527473,66.574303 97.865707,66.150894 
	C97.890091,66.178520 97.832191,66.224098 97.832191,66.224098 
	C97.877937,65.733612 97.923676,65.243118 98.311516,64.190552 
	C99.091644,62.785072 99.827179,61.973839 99.922371,61.093369 
	C101.063187,50.541248 102.109024,39.978855 103.179688,29.419149 
	C104.223671,29.912119 105.267647,30.405088 106.652557,30.958239 
	C108.607307,32.326614 110.221130,33.634804 112.013809,35.188232 
z"/>
<path fill="#B6D9D1" opacity="1.000000" stroke="none" 
	d="
M104.845184,87.019836 
	C104.515884,89.062447 104.186584,91.105049 103.767082,93.527596 
	C101.976845,96.529648 100.276817,99.151764 98.274956,101.950737 
	C99.667435,97.338028 101.361748,92.548462 103.442139,87.395004 
	C104.167206,87.027351 104.506195,87.023598 104.845184,87.019836 
z"/>
<path fill="#28877F" opacity="1.000000" stroke="none" 
	d="
M102.964935,29.182774 
	C102.109024,39.978855 101.063187,50.541248 99.922371,61.093369 
	C99.827179,61.973839 99.091644,62.785072 98.320435,63.821014 
	C96.801529,64.155571 95.615799,64.297600 93.814255,64.659744 
	C92.957413,64.827095 92.716400,64.774330 92.475395,64.721558 
	C91.362389,63.498119 90.249382,62.274677 89.111938,60.414173 
	C90.388100,47.936626 91.688698,36.096142 92.989304,24.255659 
	C96.242935,25.819239 99.496559,27.382818 102.964935,29.182774 
z"/>
<path fill="#309280" opacity="1.000000" stroke="none" 
	d="
M92.315887,64.647339 
	C92.716400,64.774330 92.957413,64.827095 93.565483,64.920570 
	C94.288933,67.495789 94.916199,70.026413 94.952652,72.565521 
	C95.079399,81.393906 95.295845,90.241608 94.806389,99.044609 
	C94.674088,101.423889 92.167412,103.671135 90.157562,105.875984 
	C89.297722,105.572144 89.109535,105.313972 89.054962,104.591789 
	C89.402962,102.069489 89.928856,99.956123 89.949280,97.837883 
	C90.044556,87.953835 89.951973,78.067871 90.070740,68.184319 
	C90.084633,67.027748 90.988808,65.881866 91.480255,64.731026 
	C91.682770,64.580193 91.908142,64.527557 92.315887,64.647339 
z"/>
<path fill="#2A8A7F" opacity="1.000000" stroke="none" 
	d="
M89.000000,104.998474 
	C89.109535,105.313972 89.297722,105.572144 89.778938,105.885941 
	C89.062759,106.807800 88.132195,107.616707 87.033615,108.694016 
	C85.836510,108.974716 84.807411,108.987030 83.390228,109.000580 
	C83.001526,95.798607 82.970123,82.595238 83.034149,69.392334 
	C83.043549,67.454231 83.506355,65.518318 83.936340,63.183048 
	C85.147415,62.888115 86.181519,62.991535 87.602936,63.565369 
	C87.662651,65.973755 87.040039,67.914291 87.056862,69.849274 
	C87.145042,79.988411 87.338310,90.127884 87.648125,100.262566 
	C87.696762,101.853485 88.529709,103.420441 89.000000,104.998474 
z"/>
<path fill="#A9D4C9" opacity="1.000000" stroke="none" 
	d="
M104.911179,86.645088 
	C104.506195,87.023598 104.167206,87.027351 103.574982,87.036133 
	C103.941246,79.503204 100.325638,73.188812 97.633514,66.444565 
	C97.832191,66.224098 97.890091,66.178520 97.891190,66.494522 
	C98.581985,67.263580 99.271667,67.716621 99.961357,68.169662 
	C101.591347,71.221329 103.221344,74.273003 104.985947,77.660172 
	C105.072754,80.753899 105.024963,83.512115 104.911179,86.645088 
z"/>
<path fill="#23807F" opacity="1.000000" stroke="none" 
	d="
M92.659897,24.071369 
	C91.688698,36.096142 90.388100,47.936626 88.913940,60.201702 
	C85.413208,59.804096 82.086021,58.981895 78.385193,58.043594 
	C78.965225,53.170525 80.185493,48.448273 80.810402,43.648502 
	C81.759247,36.360573 82.294762,29.018837 83.011841,21.249014 
	C86.122047,21.827740 89.226273,22.857409 92.659897,24.071369 
z"/>
<path fill="#308F81" opacity="1.000000" stroke="none" 
	d="
M89.054962,104.591789 
	C88.529709,103.420441 87.696762,101.853485 87.648125,100.262566 
	C87.338310,90.127884 87.145042,79.988411 87.056862,69.849274 
	C87.040039,67.914291 87.662651,65.973755 87.988556,63.625877 
	C89.021202,63.538345 90.055542,63.860718 91.285072,64.457062 
	C90.988808,65.881866 90.084633,67.027748 90.070740,68.184319 
	C89.951973,78.067871 90.044556,87.953835 89.949280,97.837883 
	C89.928856,99.956123 89.402962,102.069489 89.054962,104.591789 
z"/>
<path fill="#399C81" opacity="1.000000" stroke="none" 
	d="
M99.930557,67.823013 
	C99.271667,67.716621 98.581985,67.263580 97.866814,66.466904 
	C98.527473,66.574303 99.213608,67.025330 99.930557,67.823013 
z"/>
</svg>