<svg version="1.1" id="Layer_1" xmlns="http://www.w3.org/2000/svg" xmlns:xlink="http://www.w3.org/1999/xlink" x="0px" y="0px"
	 width="100%" viewBox="0 0 146 155" enable-background="new 0 0 146 155" xml:space="preserve">
<path fill="#000000" opacity="1.000000" stroke="none" 
	d="
M1.000000,46.000000 
	C1.000000,30.678995 1.000000,15.857990 1.000000,1.018493 
	C49.613884,1.018493 98.227783,1.018493 146.920837,1.018493 
	C146.920837,52.570839 146.920837,104.141846 146.920837,155.856415 
	C98.333633,155.856415 49.666878,155.856415 1.000000,155.856415 
	C1.000000,119.439278 1.000000,82.969643 1.000000,46.000000 
M41.853149,147.985733 
	C43.565575,147.982452 45.278004,147.979156 47.928802,147.992966 
	C57.614239,147.988022 67.299675,147.983078 77.889114,147.993362 
	C80.600853,147.983917 83.312592,147.974457 86.892105,147.972580 
	C95.421089,147.988770 101.781372,143.368698 104.902290,135.269775 
	C106.228409,135.255219 107.565720,135.123169 108.878540,135.248215 
	C112.753258,135.617325 114.520393,134.017776 114.111290,129.382614 
	C116.745255,125.428520 119.379219,121.474434 122.890602,117.371040 
	C126.330864,116.947289 131.440338,118.790665 130.883835,111.982002 
	C131.205490,111.918640 131.623627,111.963875 131.834885,111.776230 
	C139.556503,104.917503 146.877823,97.857758 143.994598,85.069183 
	C143.988266,81.041550 143.981934,77.013924 143.982956,72.052162 
	C143.976944,66.366028 143.970917,60.679890 143.981476,54.060894 
	C143.972748,49.037888 143.964020,44.014881 143.983353,38.085236 
	C143.966736,35.051476 143.950134,32.017715 143.963577,28.087538 
	C143.319244,24.381624 142.674911,20.675711 141.916626,16.291292 
	C139.270157,13.903188 136.623688,11.515082 133.210938,8.956105 
	C131.136551,8.673775 129.062180,8.391444 126.117912,8.024831 
	C124.075066,8.056393 122.032211,8.087955 119.103981,8.042978 
	C116.732422,8.069413 114.360870,8.095848 111.085175,8.040386 
	C108.046883,8.073841 105.008598,8.107295 101.040192,8.064441 
	C94.687073,8.089809 88.333946,8.115178 81.055473,8.048672 
	C76.353508,8.095743 71.651543,8.142815 66.023537,8.098737 
	C59.681767,8.124352 53.339996,8.149969 46.068054,8.056773 
	C37.612526,8.038132 29.155787,7.921967 20.701801,8.027199 
	C11.527112,8.141402 4.210274,15.113099 4.054569,24.155529 
	C3.877663,34.429153 4.105613,44.709747 4.040238,55.909668 
	C4.078629,59.933826 4.117021,63.957981 4.046347,68.904793 
	C4.081998,72.930801 4.117649,76.956802 4.049891,81.912170 
	C4.096040,86.609627 4.142188,91.307091 4.076819,96.930466 
	C4.108391,101.601288 4.139964,106.272118 4.057323,111.875969 
	C4.085147,116.581108 4.112971,121.286247 4.062929,126.893570 
	C3.583941,134.874756 4.823308,142.051590 13.493575,146.549744 
	C16.657547,147.012360 19.821520,147.474976 23.884546,147.986298 
	C26.586388,147.975876 29.288227,147.965439 32.891373,147.987823 
	C35.593159,147.978134 38.294945,147.968430 41.853149,147.985733 
z"/>
<path fill="#181919" opacity="1.000000" stroke="none" 
	d="
M143.955307,38.991875 
	C143.964020,44.014881 143.972748,49.037888 143.634750,54.576588 
	C141.763016,56.326561 140.094177,57.421066 138.736526,58.818008 
	C130.546921,67.244629 122.773911,76.115898 114.142113,84.056358 
	C109.764297,88.083542 103.966270,90.631088 98.639061,93.533195 
	C96.202339,94.860649 93.853287,93.949760 93.542320,90.920219 
	C93.130157,86.904907 92.548569,82.725052 93.238091,78.827919 
	C93.981094,74.628494 92.529671,73.726135 88.799606,73.628441 
	C89.225571,71.846504 89.476318,70.096985 90.473625,69.078484 
	C98.587318,60.792370 106.802399,52.603832 115.098396,44.500023 
	C116.175049,43.448311 117.881622,42.465309 119.308281,42.448345 
	C125.310059,42.376984 128.794159,39.255455 131.128433,33.982037 
	C135.653107,35.689056 139.804199,37.340466 143.955307,38.991875 
z"/>
<path fill="#2F3132" opacity="1.000000" stroke="none" 
	d="
M119.989365,8.119517 
	C122.032211,8.087955 124.075066,8.056393 126.504730,8.401208 
	C125.448524,10.253094 124.127617,11.879020 122.535843,13.171310 
	C119.647881,15.515903 116.513939,17.562265 113.683884,19.969654 
	C113.073013,20.489300 113.314339,22.010759 113.067207,23.321682 
	C112.447166,24.047598 111.923042,24.522594 110.998405,25.001774 
	C109.531601,25.388559 108.220566,25.497501 107.438011,26.197367 
	C101.559792,31.454487 95.637718,34.457600 87.127632,31.528954 
	C81.324173,29.531761 77.479881,33.298759 76.724670,39.237625 
	C75.623199,39.910732 74.794334,40.454746 73.604225,40.999039 
	C72.759735,41.004166 72.276497,41.009014 71.513031,40.841415 
	C69.391983,40.696812 67.551155,40.724659 65.710320,40.752506 
	C65.859528,42.079369 66.008728,43.406235 66.157936,44.733097 
	C68.014290,44.452843 69.870651,44.172588 72.101273,43.926559 
	C72.976051,43.974022 73.476555,43.987259 74.219299,44.222038 
	C75.639030,44.934902 76.816528,45.426220 77.946686,46.297630 
	C75.595482,52.163208 73.291626,57.648685 70.645607,63.239487 
	C67.056786,65.604126 63.810116,67.863434 60.105576,70.096802 
	C56.186493,70.089729 52.340244,69.258469 50.542873,73.983482 
	C45.057182,74.284180 40.038883,74.584305 34.793552,75.039001 
	C34.214191,75.293236 33.861862,75.392914 33.084240,75.345100 
	C31.774080,75.071854 30.889217,74.946098 30.005159,74.427269 
	C30.971180,70.601059 31.936394,67.167915 33.042381,63.525436 
	C33.628834,62.819279 34.074516,62.322456 34.965126,61.869225 
	C36.898552,61.943874 38.387058,61.974937 40.145615,62.285721 
	C43.591946,62.919693 46.781090,63.596378 49.938213,63.470428 
	C51.211399,63.419632 52.414501,61.612007 53.649498,60.603909 
	C52.388241,59.415428 51.288265,57.531841 49.829769,57.193443 
	C47.338184,56.615341 44.621830,57.005997 41.990868,56.605408 
	C42.318279,52.757507 42.654701,49.293957 43.391697,45.731216 
	C45.660839,45.451694 47.529411,45.271355 49.779343,45.219269 
	C52.386223,45.317940 54.611732,45.288357 57.121735,45.456238 
	C61.592106,45.839153 61.226757,43.107079 60.892540,39.970470 
	C62.749763,38.319618 64.500839,37.005146 66.306213,35.770035 
	C69.506317,33.580738 74.705025,33.696396 75.423370,28.087885 
	C76.973595,27.852461 78.104225,27.711149 79.552567,27.670799 
	C81.136597,27.469069 82.402893,27.166378 84.120880,26.898548 
	C85.893738,27.072468 87.255859,27.051460 88.529312,27.377148 
	C95.620918,29.190830 101.502655,27.608728 106.579567,22.067589 
	C109.694275,18.668074 113.677864,16.079954 117.040268,12.884394 
	C118.349892,11.639751 119.025154,9.727612 119.989365,8.119517 
z"/>
<path fill="#101112" opacity="1.000000" stroke="none" 
	d="
M76.985123,147.978134 
	C67.299675,147.983078 57.614239,147.988022 47.463264,147.539719 
	C47.343071,143.493362 47.688416,139.900238 48.303837,136.248871 
	C49.046925,135.950485 49.519932,135.710358 50.389183,135.364456 
	C53.083992,135.307144 55.165546,135.065063 55.497005,132.003876 
	C56.562305,132.002548 57.272503,132.001968 58.142929,132.342346 
	C59.868595,136.304977 62.929230,135.294006 65.493782,134.611191 
	C66.283638,134.400879 66.548782,132.219772 67.054184,130.941086 
	C65.100250,130.173798 63.151436,129.392883 61.186768,128.654144 
	C60.897942,128.545532 60.533863,128.637054 60.185135,128.241425 
	C61.456123,124.491585 62.746582,121.136284 64.480209,117.634102 
	C68.658707,117.465950 72.425743,117.730156 76.117912,117.320160 
	C78.466301,117.059387 80.703552,115.797729 83.352234,114.883286 
	C84.448402,114.918106 85.182983,115.054520 85.992157,115.526947 
	C87.042336,116.276398 88.017914,116.689850 89.305374,117.147690 
	C90.098587,116.803490 90.579918,116.414894 91.300018,116.010086 
	C91.538788,115.993881 91.950264,115.749390 92.297226,115.750435 
	C93.100731,115.821968 93.557259,115.892456 94.211708,116.276962 
	C95.957306,116.396751 97.504990,116.202522 99.411728,116.005020 
	C100.248604,115.970100 100.726440,115.938461 101.557304,116.125465 
	C103.661034,116.651588 105.403862,117.159332 107.163910,117.228386 
	C112.109871,117.422424 117.062935,117.435753 122.013184,117.520340 
	C119.379219,121.474434 116.745255,125.428520 113.669922,129.509827 
	C112.645287,129.353058 112.064812,128.827942 111.478340,128.821167 
	C102.407082,128.716324 93.334457,128.617767 84.263954,128.705490 
	C83.170929,128.716064 81.109276,129.964691 81.172493,130.390945 
	C81.431023,132.134338 82.339775,133.781311 82.943008,135.789093 
	C80.912979,140.068985 78.949051,144.023560 76.985123,147.978134 
M75.911720,130.268860 
	C74.327126,130.103058 72.698456,129.680130 71.186684,129.939224 
	C70.771507,130.010376 70.178955,132.408722 70.620857,133.220078 
	C71.111313,134.120560 73.352219,135.155472 73.678604,134.859787 
	C74.795502,133.848007 75.406837,132.278122 75.911720,130.268860 
z"/>
<path fill="#131515" opacity="1.000000" stroke="none" 
	d="
M88.970367,73.999626 
	C92.529671,73.726135 93.981094,74.628494 93.238091,78.827919 
	C92.548569,82.725052 93.130157,86.904907 93.542320,90.920219 
	C93.853287,93.949760 96.202339,94.860649 98.639061,93.533195 
	C103.966270,90.631088 109.764297,88.083542 114.142113,84.056358 
	C122.773911,76.115898 130.546921,67.244629 138.736526,58.818008 
	C140.094177,57.421066 141.763016,56.326561 143.626465,55.043018 
	C143.970917,60.679890 143.976944,66.366028 143.640228,72.569672 
	C141.766815,74.322044 140.153244,75.468063 138.718674,76.806000 
	C128.295883,86.526649 117.871811,96.246841 107.561241,106.085678 
	C106.357491,107.234352 105.843483,109.105812 104.696442,110.778976 
	C103.326614,111.308456 102.270058,111.701134 100.837852,112.065056 
	C99.960495,112.024696 99.458786,112.013100 98.694626,111.873680 
	C96.936119,111.788475 95.440063,111.831093 93.674881,112.006714 
	C92.597443,112.153969 91.789124,112.168213 90.779823,112.092834 
	C90.578835,112.003220 90.143768,111.936646 90.032776,111.690826 
	C89.018997,111.481087 88.116196,111.517166 86.988480,111.594002 
	C86.479218,111.756912 86.230721,111.930389 85.656494,112.237747 
	C84.510071,112.976280 83.725220,113.632286 82.675339,114.107201 
	C81.909409,113.021362 81.408516,112.116615 81.063263,110.901382 
	C81.978088,109.728493 82.617401,108.707481 83.515419,108.028793 
	C90.662590,102.627228 91.572937,95.757408 88.477272,87.844658 
	C88.128418,86.952950 88.149483,85.916527 88.125809,84.568909 
	C88.491867,80.793610 88.731117,77.396614 88.970367,73.999626 
z"/>
<path fill="#505051" opacity="1.000000" stroke="none" 
	d="
M4.157570,54.987312 
	C4.105613,44.709747 3.877663,34.429153 4.054569,24.155529 
	C4.210274,15.113099 11.527112,8.141402 20.701801,8.027199 
	C29.155787,7.921967 37.612526,8.038132 46.474834,8.447611 
	C42.837940,14.030677 37.365868,15.199792 31.077780,15.113275 
	C26.234165,15.046631 20.858381,15.000770 18.753345,21.481625 
	C18.466011,23.693213 18.443689,25.704462 18.053078,27.939163 
	C17.467842,32.473568 17.250896,36.784519 17.037609,41.329811 
	C17.041265,41.564148 16.872288,42.001358 16.510502,42.011635 
	C13.856189,44.829933 11.659489,47.724274 9.236117,50.414421 
	C7.719756,52.097706 5.862090,53.473530 4.157570,54.987312 
z"/>
<path fill="#313436" opacity="1.000000" stroke="none" 
	d="
M12.998223,145.981857 
	C4.823308,142.051590 3.583941,134.874756 4.432900,126.390800 
	C7.148970,123.022125 9.353660,120.021751 11.898874,117.345192 
	C13.236971,115.938042 15.170735,115.097336 16.964954,114.380173 
	C18.676762,115.581291 20.210169,116.967819 21.851450,117.110123 
	C25.542570,117.430130 29.287180,117.133156 33.001442,117.453087 
	C31.667343,121.373909 30.341816,124.928963 28.572525,128.603394 
	C25.982441,128.748749 23.833725,128.719315 21.690296,128.812042 
	C17.060568,129.012314 16.491482,129.972946 17.999966,135.147736 
	C16.300451,139.009674 14.649338,142.495773 12.998223,145.981857 
z"/>
<path fill="#0D0D0D" opacity="1.000000" stroke="none" 
	d="
M105.009712,110.642189 
	C105.843483,109.105812 106.357491,107.234352 107.561241,106.085678 
	C117.871811,96.246841 128.295883,86.526649 138.718674,76.806000 
	C140.153244,75.468063 141.766815,74.322044 143.636566,73.036728 
	C143.981934,77.013924 143.988266,81.041550 143.652451,85.579453 
	C142.726807,86.391953 142.045883,86.586403 141.574387,87.012573 
	C134.192734,93.684502 126.801521,100.347115 119.526314,107.133858 
	C118.674599,107.928383 118.496750,109.445267 117.557755,110.752426 
	C113.075905,110.799118 109.042809,110.720650 105.009712,110.642189 
z"/>
<path fill="#525253" opacity="1.000000" stroke="none" 
	d="
M19.018356,21.281288 
	C20.858381,15.000770 26.234165,15.046631 31.077780,15.113275 
	C37.365868,15.199792 42.837940,14.030677 46.939919,8.507017 
	C53.339996,8.149969 59.681767,8.124352 66.440277,8.475400 
	C62.143482,11.543263 57.367340,14.132796 52.748135,16.977190 
	C50.974266,18.069496 49.558178,19.742832 47.578022,21.273689 
	C44.248169,21.968042 41.319359,22.540127 38.021744,22.972128 
	C35.139439,22.890995 32.625935,22.949945 29.812737,22.771381 
	C26.014811,22.116341 22.516582,21.698814 19.018356,21.281288 
z"/>
<path fill="#3D3E3F" opacity="1.000000" stroke="none" 
	d="
M81.980827,8.140547 
	C88.333946,8.115178 94.687073,8.089809 101.461655,8.432402 
	C99.144325,13.926604 94.282410,16.116842 89.217804,18.118189 
	C87.002876,18.993448 84.942474,20.259731 82.691406,21.365847 
	C82.570915,21.383242 82.317093,21.674143 81.926422,21.602272 
	C80.751816,21.602705 79.967880,21.675007 78.817368,21.592930 
	C74.849144,22.011091 69.963203,18.867947 67.845901,24.969025 
	C66.577499,24.982443 65.731819,24.984770 64.757904,24.669867 
	C63.084641,23.275274 61.539619,22.197912 60.067894,20.760967 
	C63.737278,18.894478 67.517555,17.711042 70.881180,15.795854 
	C74.772453,13.580232 78.297043,10.720584 81.980827,8.140547 
z"/>
<path fill="#070708" opacity="1.000000" stroke="none" 
	d="
M118.006500,110.627274 
	C118.496750,109.445267 118.674599,107.928383 119.526314,107.133858 
	C126.801521,100.347115 134.192734,93.684502 141.574387,87.012573 
	C142.045883,86.586403 142.726807,86.391953 143.651352,86.042374 
	C146.877823,97.857758 139.556503,104.917503 131.834885,111.776230 
	C131.623627,111.963875 131.205490,111.918640 130.158829,111.795349 
	C125.624718,111.281563 121.815605,110.954422 118.006500,110.627274 
z"/>
<path fill="#313536" opacity="1.000000" stroke="none" 
	d="
M16.835520,114.000847 
	C15.170735,115.097336 13.236971,115.938042 11.898874,117.345192 
	C9.353660,120.021751 7.148970,123.022125 4.471833,125.939713 
	C4.112971,121.286247 4.085147,116.581108 4.442084,111.368561 
	C7.166503,108.012253 9.391923,105.057922 11.887937,102.353317 
	C13.427320,100.685272 15.379287,99.397987 17.455574,98.147491 
	C19.179773,98.743408 20.594421,99.131584 22.010300,99.909882 
	C21.347055,103.764435 20.682577,107.228874 19.715664,110.860825 
	C18.553993,112.019173 17.694756,113.010010 16.835520,114.000847 
z"/>
<path fill="#404243" opacity="1.000000" stroke="none" 
	d="
M4.188335,96.004547 
	C4.142188,91.307091 4.096040,86.609627 4.433205,81.398209 
	C7.751665,76.843239 10.608906,72.742180 13.656502,68.787834 
	C15.072094,66.951065 16.857666,65.399429 18.825481,63.697655 
	C20.114944,63.757607 21.054447,63.838425 21.944798,64.307053 
	C21.265844,68.088684 20.636047,71.482506 19.676004,75.025726 
	C18.595110,76.774757 17.844461,78.374374 16.788963,80.134186 
	C14.807719,82.892586 13.315518,85.636414 11.406712,88.050888 
	C9.191446,90.852997 6.610535,93.366035 4.188335,96.004547 
z"/>
<path fill="#3C4447" opacity="1.000000" stroke="none" 
	d="
M4.132577,96.467506 
	C6.610535,93.366035 9.191446,90.852997 11.406712,88.050888 
	C13.315518,85.636414 14.807719,82.892586 17.049881,80.340637 
	C18.735790,80.894241 19.855928,81.401596 20.930679,82.290009 
	C19.948984,86.212593 19.012678,89.754105 17.935066,93.610947 
	C17.577847,95.264099 17.361933,96.601929 17.146019,97.939758 
	C15.379287,99.397987 13.427320,100.685272 11.887937,102.353317 
	C9.391923,105.057922 7.166503,108.012253 4.499191,110.902054 
	C4.139964,106.272118 4.108391,101.601288 4.132577,96.467506 
z"/>
<path fill="#454647" opacity="1.000000" stroke="none" 
	d="
M18.475517,63.718529 
	C16.857666,65.399429 15.072094,66.951065 13.656502,68.787834 
	C10.608906,72.742180 7.751665,76.843239 4.484909,80.933533 
	C4.117649,76.956802 4.081998,72.930801 4.432770,68.393692 
	C5.885921,66.910507 7.323610,66.134315 7.957612,64.933716 
	C11.402008,58.411076 14.648075,51.783703 18.311375,45.229752 
	C19.790625,45.459412 20.920921,45.651711 21.988960,46.239658 
	C21.285982,50.058220 20.645264,53.481133 19.675442,57.051403 
	C15.806900,58.938038 16.718904,61.271877 18.475517,63.718529 
z"/>
<path fill="#333435" opacity="1.000000" stroke="none" 
	d="
M119.546677,8.081247 
	C119.025154,9.727612 118.349892,11.639751 117.040268,12.884394 
	C113.677864,16.079954 109.694275,18.668074 106.579567,22.067589 
	C101.502655,27.608728 95.620918,29.190830 88.529312,27.377148 
	C87.255859,27.051460 85.893738,27.072468 84.180969,26.540356 
	C83.909843,25.432123 84.030296,24.716942 84.547821,23.930271 
	C86.566612,23.572784 88.180618,23.098026 89.811287,23.031464 
	C100.282471,22.604029 107.433235,17.310905 111.989311,8.122282 
	C114.360870,8.095848 116.732422,8.069413 119.546677,8.081247 
z"/>
<path fill="#EFF4F6" opacity="1.000000" stroke="none" 
	d="
M83.009109,135.463776 
	C82.339775,133.781311 81.431023,132.134338 81.172493,130.390945 
	C81.109276,129.964691 83.170929,128.716064 84.263954,128.705490 
	C93.334457,128.617767 102.407082,128.716324 111.478340,128.821167 
	C112.064812,128.827942 112.645287,129.353058 113.594696,129.857758 
	C114.520393,134.017776 112.753258,135.617325 108.878540,135.248215 
	C107.565720,135.123169 106.228409,135.255219 104.026520,135.243164 
	C99.096581,135.314804 95.042404,135.413025 90.560593,135.383301 
	C87.758331,135.324829 85.383720,135.394302 83.009109,135.463776 
z"/>
<path fill="#363636" opacity="1.000000" stroke="none" 
	d="
M111.537247,8.081334 
	C107.433235,17.310905 100.282471,22.604029 89.811287,23.031464 
	C88.180618,23.098026 86.566612,23.572784 84.456772,23.574223 
	C83.529236,22.791870 83.089828,22.294081 82.723000,21.695948 
	C82.795586,21.595604 82.811897,21.348454 82.811897,21.348454 
	C84.942474,20.259731 87.002876,18.993448 89.217804,18.118189 
	C94.282410,16.116842 99.144325,13.926604 101.926712,8.470556 
	C105.008598,8.107295 108.046883,8.073841 111.537247,8.081334 
z"/>
<path fill="#444444" opacity="1.000000" stroke="none" 
	d="
M81.518150,8.094608 
	C78.297043,10.720584 74.772453,13.580232 70.881180,15.795854 
	C67.517555,17.711042 63.737278,18.894478 59.620945,20.884079 
	C55.393490,21.294987 51.686279,21.223204 47.979065,21.151419 
	C49.558178,19.742832 50.974266,18.069496 52.748135,16.977190 
	C57.367340,14.132796 62.143482,11.543263 66.903297,8.520975 
	C71.651543,8.142815 76.353508,8.095743 81.518150,8.094608 
z"/>
<path fill="#43B5E8" opacity="1.000000" stroke="none" 
	d="
M117.557755,110.752426 
	C121.815605,110.954422 125.624718,111.281563 129.812057,111.802612 
	C131.440338,118.790665 126.330864,116.947289 122.451897,117.445694 
	C117.062935,117.435753 112.109871,117.422424 107.163910,117.228386 
	C105.403862,117.159332 103.661034,116.651588 101.522324,115.743683 
	C101.160698,114.126778 101.187096,113.110298 101.213501,112.093819 
	C102.270058,111.701134 103.326614,111.308456 104.696442,110.778976 
	C109.042809,110.720650 113.075905,110.799118 117.557755,110.752426 
z"/>
<path fill="#4B4C4C" opacity="1.000000" stroke="none" 
	d="
M17.962421,45.192387 
	C14.648075,51.783703 11.402008,58.411076 7.957612,64.933716 
	C7.323610,66.134315 5.885921,66.910507 4.487303,67.932373 
	C4.117021,63.957981 4.078629,59.933826 4.098905,55.448490 
	C5.862090,53.473530 7.719756,52.097706 9.236117,50.414421 
	C11.659489,47.724274 13.856189,44.829933 16.593761,42.339924 
	C17.346676,43.502750 17.654549,44.347569 17.962421,45.192387 
z"/>
<path fill="#292A2A" opacity="1.000000" stroke="none" 
	d="
M133.977219,9.126976 
	C136.623688,11.515082 139.270157,13.903188 141.744705,16.903233 
	C139.128036,18.482924 136.609039,19.300468 134.260040,20.461863 
	C132.037552,21.560707 129.993546,23.020500 127.533340,24.164097 
	C124.799156,23.274776 122.402672,22.542896 120.061691,21.478428 
	C121.908295,19.511520 123.662910,17.834860 125.498993,16.252748 
	C128.295441,13.843110 131.148300,11.498942 133.977219,9.126976 
z"/>
<path fill="#101112" opacity="1.000000" stroke="none" 
	d="
M90.988235,135.511261 
	C95.042404,135.413025 99.096581,135.314804 103.595795,135.366211 
	C101.781372,143.368698 95.421089,147.988770 86.502090,147.624146 
	C87.737465,143.354233 89.362854,139.432755 90.988235,135.511261 
z"/>
<path fill="#222425" opacity="1.000000" stroke="none" 
	d="
M127.871040,24.321541 
	C129.993546,23.020500 132.037552,21.560707 134.260040,20.461863 
	C136.609039,19.300468 139.128036,18.482924 141.801682,17.242485 
	C142.674911,20.675711 143.319244,24.381624 143.572678,28.598503 
	C138.966721,29.112322 134.751678,29.115175 130.354034,28.874224 
	C129.404648,27.194126 128.637848,25.757833 127.871040,24.321541 
z"/>
<path fill="#0A0A0A" opacity="1.000000" stroke="none" 
	d="
M90.560593,135.383301 
	C89.362854,139.432755 87.737465,143.354233 86.068207,147.620361 
	C83.312592,147.974457 80.600853,147.983917 77.437119,147.985748 
	C78.949051,144.023560 80.912979,140.068985 82.943008,135.789093 
	C85.383720,135.394302 87.758331,135.324829 90.560593,135.383301 
z"/>
<path fill="#1D1D1D" opacity="1.000000" stroke="none" 
	d="
M31.990067,147.955017 
	C29.288227,147.965439 26.586388,147.975876 23.442604,147.553375 
	C23.669504,143.209488 24.338346,139.298492 25.453270,135.270996 
	C28.400124,135.020691 30.900898,134.886917 33.589638,134.882751 
	C33.777607,135.012375 34.016254,135.401733 33.810177,135.698563 
	C33.066090,139.981934 32.528076,143.968475 31.990067,147.955017 
z"/>
<path fill="#232323" opacity="1.000000" stroke="none" 
	d="
M25.007189,135.387512 
	C24.338346,139.298492 23.669504,143.209488 22.993076,147.529022 
	C19.821520,147.474976 16.657547,147.012360 13.245899,146.265808 
	C14.649338,142.495773 16.300451,139.009674 18.431885,135.222351 
	C20.943865,135.076584 22.975527,135.232056 25.007189,135.387512 
z"/>
<path fill="#2E2E2E" opacity="1.000000" stroke="none" 
	d="
M133.594086,9.041540 
	C131.148300,11.498942 128.295441,13.843110 125.498993,16.252748 
	C123.662910,17.834860 121.908295,19.511520 119.670914,21.550903 
	C117.204124,22.327568 115.183624,22.699165 113.163124,23.070763 
	C113.314339,22.010759 113.073013,20.489300 113.683884,19.969654 
	C116.513939,17.562265 119.647881,15.515903 122.535843,13.171310 
	C124.127617,11.879020 125.448524,10.253094 126.939667,8.443350 
	C129.062180,8.391444 131.136551,8.673775 133.594086,9.041540 
z"/>
<path fill="#191919" opacity="1.000000" stroke="none" 
	d="
M32.440720,147.971420 
	C32.528076,143.968475 33.066090,139.981934 34.152554,135.640335 
	C35.154243,135.364563 35.607479,135.443848 36.360413,135.721725 
	C38.109444,136.045334 39.558773,136.170334 41.002739,136.686142 
	C40.997158,140.704193 40.996944,144.331467 40.996731,147.958725 
	C38.294945,147.968430 35.593159,147.978134 32.440720,147.971420 
z"/>
<path fill="#1C1C1C" opacity="1.000000" stroke="none" 
	d="
M130.536621,29.118029 
	C134.751678,29.115175 138.966721,29.112322 143.557648,29.046711 
	C143.950134,32.017715 143.966736,35.051476 143.969330,38.538555 
	C139.804199,37.340466 135.653107,35.689056 131.100494,33.580971 
	C130.644852,31.788877 130.590744,30.453453 130.536621,29.118029 
z"/>
<path fill="#151718" opacity="1.000000" stroke="none" 
	d="
M41.424942,147.972229 
	C40.996944,144.331467 40.997158,140.704193 41.439255,136.633606 
	C43.932014,136.229233 45.982887,136.268188 48.033756,136.307129 
	C47.688416,139.900238 47.343071,143.493362 46.994080,147.531174 
	C45.278004,147.979156 43.565575,147.982452 41.424942,147.972229 
z"/>
<path fill="#45B7EB" opacity="1.000000" stroke="none" 
	d="
M130.354034,28.874224 
	C130.590744,30.453453 130.644852,31.788877 130.726929,33.525368 
	C128.794159,39.255455 125.310059,42.376984 119.308281,42.448345 
	C117.881622,42.465309 116.175049,43.448311 115.098396,44.500023 
	C106.802399,52.603832 98.587318,60.792370 90.473625,69.078484 
	C89.476318,70.096985 89.225571,71.846504 88.799606,73.628441 
	C88.731117,77.396614 88.491867,80.793610 87.802383,84.693253 
	C84.727531,88.907204 82.418716,93.032913 76.595612,92.996262 
	C74.523247,92.908592 72.858727,92.906891 71.037491,92.566139 
	C68.820000,88.429329 70.774612,86.850899 74.251785,86.054543 
	C75.952148,85.665123 77.850418,85.526474 79.270882,84.647163 
	C83.022415,82.324852 83.354378,78.188065 81.784821,74.999199 
	C80.118629,71.614029 76.628174,68.310272 72.323845,70.062820 
	C69.536644,71.197655 66.537277,73.918953 65.488785,76.643539 
	C64.365295,79.563019 64.233757,82.094254 60.133289,80.955536 
	C60.173794,77.118729 60.368622,73.620743 60.563446,70.122742 
	C63.810116,67.863434 67.056786,65.604126 71.096931,63.331654 
	C77.867630,64.063416 82.821365,63.114414 87.133514,57.921402 
	C93.337807,50.449722 100.527168,43.800137 107.189873,36.700001 
	C108.062614,35.769958 108.307281,34.250526 108.911423,32.608093 
	C108.964005,31.141933 108.948029,30.071766 109.136902,28.732746 
	C110.027473,27.308460 110.713196,26.153025 111.398918,24.997589 
	C111.923042,24.522594 112.447166,24.047598 113.067207,23.321682 
	C115.183624,22.699165 117.204124,22.327568 119.615402,21.883493 
	C122.402672,22.542896 124.799156,23.274776 127.533340,24.164097 
	C128.637848,25.757833 129.404648,27.194126 130.354034,28.874224 
M116.241180,33.166016 
	C117.758209,34.145233 119.182159,35.575867 120.830994,35.915810 
	C121.672470,36.089302 123.864395,34.215191 123.788742,33.425339 
	C123.615250,31.614168 122.845169,28.873663 121.564178,28.348886 
	C118.338722,27.027538 116.319145,28.853455 116.241180,33.166016 
z"/>
<path fill="#292A2A" opacity="1.000000" stroke="none" 
	d="
M108.842857,33.004082 
	C108.307281,34.250526 108.062614,35.769958 107.189873,36.700001 
	C100.527168,43.800137 93.337807,50.449722 87.133514,57.921402 
	C82.821365,63.114414 77.867630,64.063416 71.439087,63.226326 
	C73.291626,57.648685 75.595482,52.163208 78.388512,46.216957 
	C80.670517,45.734203 82.469765,45.605545 84.254799,45.713047 
	C87.682877,45.919498 89.063988,44.315556 89.154251,41.004227 
	C95.315491,40.347698 100.867462,39.401649 104.983490,34.658085 
	C105.808968,33.706757 107.533089,33.535187 108.842857,33.004082 
z"/>
<path fill="#262829" opacity="1.000000" stroke="none" 
	d="
M60.105576,70.096802 
	C60.368622,73.620743 60.173794,77.118729 59.972023,81.318909 
	C57.139122,83.936844 54.161560,85.669830 51.546062,87.839317 
	C50.061127,89.071030 49.169086,91.017525 47.558899,92.765945 
	C43.897369,93.036476 40.686977,93.183174 37.136810,93.206100 
	C35.855751,92.884628 34.914467,92.686928 33.857910,92.316711 
	C33.515026,91.984039 33.275013,91.845360 33.082417,91.375496 
	C34.106369,87.972801 35.070503,84.922752 36.480854,81.747215 
	C40.913776,81.597229 44.917633,81.777382 48.878578,81.445457 
	C50.418915,81.316376 51.862442,80.032005 53.350067,79.273895 
	C52.566616,77.848579 51.783169,76.423256 51.012497,74.744286 
	C51.020279,74.321396 51.015274,74.152153 51.010269,73.982903 
	C52.340244,69.258469 56.186493,70.089729 60.105576,70.096802 
z"/>
<path fill="#333435" opacity="1.000000" stroke="none" 
	d="
M64.886139,24.987095 
	C65.731819,24.984770 66.577499,24.982443 68.021751,25.288282 
	C70.748138,26.458298 72.875946,27.320147 75.003761,28.181995 
	C74.705025,33.696396 69.506317,33.580738 66.306213,35.770035 
	C64.500839,37.005146 62.749763,38.319618 60.622089,39.806538 
	C59.116222,39.930706 57.962494,39.846680 56.392487,39.701210 
	C53.817966,39.723549 51.659725,39.807327 49.078384,39.759758 
	C47.788479,39.477081 46.921669,39.325748 46.042755,38.845764 
	C47.357323,35.099182 48.683994,31.681252 50.458557,28.143557 
	C53.365623,27.998695 55.905704,28.349159 58.260971,27.841755 
	C60.567314,27.344893 62.685413,25.974230 64.886139,24.987095 
z"/>
<path fill="#353637" opacity="1.000000" stroke="none" 
	d="
M39.875561,62.006004 
	C38.387058,61.974937 36.898552,61.943874 34.977928,61.517761 
	C34.845295,57.774551 32.544014,57.182518 30.006775,56.429092 
	C30.669159,52.628700 31.332050,49.239212 32.381397,45.723244 
	C34.338165,45.436207 35.908478,45.275661 37.917534,45.269646 
	C39.901226,45.559586 41.446175,45.694996 42.991123,45.830402 
	C42.654701,49.293957 42.318279,52.757507 41.715279,56.840317 
	C40.924320,58.975052 40.399940,60.490524 39.875561,62.006004 
z"/>
<path fill="#EFF4F6" opacity="1.000000" stroke="none" 
	d="
M50.999718,74.997940 
	C51.783169,76.423256 52.566616,77.848579 53.350067,79.273895 
	C51.862442,80.032005 50.418915,81.316376 48.878578,81.445457 
	C44.917633,81.777382 40.913776,81.597229 36.255116,81.609703 
	C35.064880,81.501137 34.546597,81.404594 33.829529,80.974594 
	C33.590343,78.924957 33.549938,77.208771 33.509537,75.492592 
	C33.861862,75.392914 34.214191,75.293236 35.251022,75.127235 
	C40.956921,75.039917 45.978321,75.018929 50.999718,74.997940 
z"/>
<path fill="#2E2E2E" opacity="1.000000" stroke="none" 
	d="
M110.998405,25.001774 
	C110.713196,26.153025 110.027473,27.308460 108.795685,28.782377 
	C101.947586,34.464748 95.169907,37.871754 86.452759,35.607204 
	C85.342346,35.318745 83.500420,37.846245 81.587212,39.157372 
	C79.783783,39.199894 78.390526,39.154213 76.997276,39.108536 
	C77.479881,33.298759 81.324173,29.531761 87.127632,31.528954 
	C95.637718,34.457600 101.559792,31.454487 107.438011,26.197367 
	C108.220566,25.497501 109.531601,25.388559 110.998405,25.001774 
z"/>
<path fill="#46B0DF" opacity="1.000000" stroke="none" 
	d="
M30.007282,56.840004 
	C32.544014,57.182518 34.845295,57.774551 34.533001,61.474171 
	C34.074516,62.322456 33.628834,62.819279 32.612034,63.499786 
	C30.026863,63.765160 28.012812,63.846848 25.603539,63.845715 
	C24.136862,63.815014 23.065407,63.867126 21.993950,63.919243 
	C21.054447,63.838425 20.114944,63.757607 18.825480,63.697655 
	C16.718904,61.271877 15.806900,58.938038 20.089628,57.120865 
	C22.224699,56.976448 23.616476,56.909924 25.418880,56.933002 
	C27.222101,56.961735 28.614691,56.900871 30.007282,56.840004 
z"/>
<path fill="#53ABD3" opacity="1.000000" stroke="none" 
	d="
M33.084240,75.345100 
	C33.549938,77.208771 33.590343,78.924957 33.488647,81.132217 
	C31.561237,81.731667 29.775930,81.840027 27.559332,81.860855 
	C25.077383,81.818527 23.026724,81.863739 20.976067,81.908951 
	C19.855928,81.401596 18.735790,80.894241 17.354731,80.180435 
	C17.844461,78.374374 18.595110,76.774757 20.073971,75.089966 
	C21.868919,74.938385 22.935656,74.871979 24.424164,74.896957 
	C26.565409,74.932343 28.284880,74.876343 30.004353,74.820343 
	C30.889217,74.946098 31.774080,75.071854 33.084240,75.345100 
z"/>
<path fill="#44ACDB" opacity="1.000000" stroke="none" 
	d="
M76.724670,39.237625 
	C78.390526,39.154213 79.783783,39.199894 81.951218,39.243149 
	C84.723831,39.829979 86.722252,40.419231 88.720680,41.008480 
	C89.063988,44.315556 87.682877,45.919498 84.254799,45.713047 
	C82.469765,45.605545 80.670517,45.734203 78.435852,45.836861 
	C76.816528,45.426220 75.639030,44.934902 74.227829,43.846802 
	C73.984566,42.499599 73.975021,41.749180 73.965469,40.998760 
	C74.794334,40.454746 75.623199,39.910732 76.724670,39.237625 
z"/>
<path fill="#E0E3E5" opacity="1.000000" stroke="none" 
	d="
M40.145615,62.285721 
	C40.399940,60.490524 40.924320,58.975052 41.724289,57.224667 
	C44.621830,57.005997 47.338184,56.615341 49.829769,57.193443 
	C51.288265,57.531841 52.388241,59.415428 53.649498,60.603909 
	C52.414501,61.612007 51.211399,63.419632 49.938213,63.470428 
	C46.781090,63.596378 43.591946,62.919693 40.145615,62.285721 
z"/>
<path fill="#4DAEDA" opacity="1.000000" stroke="none" 
	d="
M75.423370,28.087885 
	C72.875946,27.320147 70.748138,26.458298 68.444473,25.277191 
	C69.963203,18.867947 74.849144,22.011091 78.639023,21.912300 
	C78.963112,24.113979 79.098984,25.841908 79.234848,27.569838 
	C78.104225,27.711149 76.973595,27.852461 75.423370,28.087885 
z"/>
<path fill="#4CC3F9" opacity="1.000000" stroke="none" 
	d="
M43.391697,45.731216 
	C41.446175,45.694996 39.901226,45.559586 38.036545,44.908752 
	C37.633759,42.893597 37.550709,41.393860 37.940430,39.775925 
	C40.960423,39.496616 43.507641,39.335514 46.054859,39.174416 
	C46.921669,39.325748 47.788479,39.477081 48.945328,40.184990 
	C49.289574,42.191383 49.343777,43.641201 49.397980,45.091019 
	C47.529411,45.271355 45.660839,45.451694 43.391697,45.731216 
z"/>
<path fill="#353637" opacity="1.000000" stroke="none" 
	d="
M30.005159,74.427277 
	C28.284880,74.876343 26.565409,74.932343 24.439739,74.513809 
	C24.688614,70.669022 25.343685,67.298775 25.998758,63.928532 
	C28.012812,63.846848 30.026863,63.765160 32.471260,63.709126 
	C31.936394,67.167915 30.971180,70.601059 30.005159,74.427277 
z"/>
<path fill="#D1D8DB" opacity="1.000000" stroke="none" 
	d="
M71.727005,43.892334 
	C69.870651,44.172588 68.014290,44.452843 66.157936,44.733097 
	C66.008728,43.406235 65.859528,42.079369 65.710320,40.752506 
	C67.551155,40.724659 69.391983,40.696812 71.532173,41.202629 
	C71.796684,42.454975 71.761841,43.173653 71.727005,43.892334 
z"/>
<path fill="#ECF9FE" opacity="1.000000" stroke="none" 
	d="
M49.779343,45.219269 
	C49.343777,43.641201 49.289574,42.191383 49.368423,40.316334 
	C51.659725,39.807327 53.817966,39.723549 56.556965,40.034950 
	C57.037563,42.039680 56.937405,43.649227 56.837246,45.258774 
	C54.611732,45.288357 52.386223,45.317940 49.779343,45.219269 
z"/>
<path fill="#E6F0F4" opacity="1.000000" stroke="none" 
	d="
M79.552567,27.670799 
	C79.098984,25.841908 78.963112,24.113979 79.005592,22.066679 
	C79.967880,21.675007 80.751816,21.602705 81.982712,21.699680 
	C82.429665,21.868956 82.650414,21.796291 82.650414,21.796291 
	C83.089828,22.294081 83.529236,22.791870 84.059692,23.645710 
	C84.030296,24.716942 83.909843,25.432123 83.729294,26.505497 
	C82.402893,27.166378 81.136597,27.469069 79.552567,27.670799 
z"/>
<path fill="#6492A6" opacity="1.000000" stroke="none" 
	d="
M57.121735,45.456238 
	C56.937405,43.649227 57.037563,42.039680 56.973244,40.096394 
	C57.962494,39.846680 59.116222,39.930706 60.540401,40.178665 
	C61.226757,43.107079 61.592106,45.839153 57.121735,45.456238 
z"/>
<path fill="#404243" opacity="1.000000" stroke="none" 
	d="
M51.012497,74.744286 
	C45.978321,75.018929 40.956921,75.039917 35.478058,74.972672 
	C40.038883,74.584305 45.057182,74.284180 50.542873,73.983482 
	C51.015274,74.152153 51.020279,74.321396 51.012497,74.744286 
z"/>
<path fill="#333435" opacity="1.000000" stroke="none" 
	d="
M72.101273,43.926559 
	C71.761841,43.173653 71.796684,42.454975 71.812393,41.375076 
	C72.276497,41.009014 72.759735,41.004166 73.604225,40.999039 
	C73.975021,41.749180 73.984566,42.499599 73.985588,43.625259 
	C73.476555,43.987259 72.976051,43.974022 72.101273,43.926559 
z"/>
<path fill="#F1F5F7" opacity="1.000000" stroke="none" 
	d="
M80.907616,111.211868 
	C81.408516,112.116615 81.909409,113.021362 82.642586,114.284622 
	C82.874870,114.643135 82.990639,114.984879 82.990639,114.984879 
	C80.703552,115.797729 78.466301,117.059387 76.117912,117.320160 
	C72.425743,117.730156 68.658707,117.465950 64.070572,117.478806 
	C61.486160,117.570305 59.754547,117.670204 57.596695,117.620834 
	C54.778511,117.572075 52.386570,117.672585 49.576588,117.620926 
	C46.061581,116.652359 42.964607,115.835976 39.944481,114.673447 
	C40.424404,113.254654 40.827484,112.181992 41.683411,111.062973 
	C48.430222,110.834892 54.724194,110.653168 61.467453,110.605469 
	C68.247032,110.896950 74.577324,111.054413 80.907616,111.211868 
z"/>
<path fill="#EFF6F9" opacity="1.000000" stroke="none" 
	d="
M36.060715,135.523132 
	C35.607479,135.443848 35.154243,135.364563 34.358631,135.343506 
	C34.016254,135.401733 33.777607,135.012375 33.476593,134.477417 
	C33.255238,132.301453 33.334900,130.660446 33.836212,128.893631 
	C37.836514,128.582901 41.415165,128.397995 45.423447,128.357544 
	C48.568523,128.605209 51.283970,128.708435 54.286053,129.023392 
	C54.762428,130.158279 54.952168,131.081451 55.141907,132.004608 
	C55.165546,135.065063 53.083992,135.307144 49.944691,135.222733 
	C44.756207,135.298889 40.408463,135.411011 36.060715,135.523132 
z"/>
<path fill="#151718" opacity="1.000000" stroke="none" 
	d="
M55.497005,132.003876 
	C54.952168,131.081451 54.762428,130.158279 54.289062,128.650024 
	C55.344608,124.633316 56.683773,121.201714 58.022934,117.770103 
	C59.754547,117.670204 61.486160,117.570305 63.627403,117.625702 
	C62.746582,121.136284 61.456123,124.491585 59.984497,128.452240 
	C59.196453,130.038849 58.589581,131.020126 57.982704,132.001389 
	C57.272503,132.001968 56.562305,132.002548 55.497005,132.003876 
z"/>
<path fill="#42AEDF" opacity="1.000000" stroke="none" 
	d="
M58.142929,132.342346 
	C58.589581,131.020126 59.196453,130.038849 60.003967,128.846771 
	C60.533863,128.637054 60.897942,128.545532 61.186768,128.654144 
	C63.151436,129.392883 65.100250,130.173798 67.054184,130.941086 
	C66.548782,132.219772 66.283638,134.400879 65.493782,134.611191 
	C62.929230,135.294006 59.868595,136.304977 58.142929,132.342346 
z"/>
<path fill="#3FA6D5" opacity="1.000000" stroke="none" 
	d="
M76.061356,130.594971 
	C75.406837,132.278122 74.795502,133.848007 73.678604,134.859787 
	C73.352219,135.155472 71.111313,134.120560 70.620857,133.220078 
	C70.178955,132.408722 70.771507,130.010376 71.186684,129.939224 
	C72.698456,129.680130 74.327126,130.103058 76.061356,130.594971 
z"/>
<path fill="#DAE1E5" opacity="1.000000" stroke="none" 
	d="
M93.944008,111.873703 
	C95.440063,111.831093 96.936119,111.788475 98.748596,112.275085 
	C99.060898,113.872299 99.056786,114.940300 99.052673,116.008293 
	C97.504990,116.202522 95.957306,116.396751 94.211853,115.867966 
	C93.990730,114.054527 93.967369,112.964111 93.944008,111.873703 
z"/>
<path fill="#DAE1E5" opacity="1.000000" stroke="none" 
	d="
M90.143768,111.936646 
	C90.143768,111.936646 90.578835,112.003220 90.787537,112.407867 
	C91.314240,113.791466 91.632256,114.770432 91.950264,115.749390 
	C91.950264,115.749390 91.538788,115.993881 90.989960,116.022263 
	C89.958588,116.401535 89.476044,116.752419 88.993492,117.103302 
	C88.017914,116.689850 87.042336,116.276398 86.038467,115.149429 
	C86.012817,113.675682 86.015442,112.915443 86.018066,112.155205 
	C86.230721,111.930389 86.479218,111.756912 87.470284,111.704758 
	C88.832603,111.828728 89.488182,111.882683 90.143768,111.936646 
z"/>
<path fill="#32383B" opacity="1.000000" stroke="none" 
	d="
M36.360413,135.721725 
	C40.408463,135.411011 44.756207,135.298889 49.548447,135.328506 
	C49.519932,135.710358 49.046925,135.950485 48.303837,136.248871 
	C45.982887,136.268188 43.932014,136.229233 41.444626,136.242828 
	C39.558773,136.170334 38.109444,136.045334 36.360413,135.721725 
z"/>
<path fill="#CAD3D8" opacity="1.000000" stroke="none" 
	d="
M92.297226,115.750435 
	C91.632256,114.770432 91.314240,113.791466 90.988525,112.497482 
	C91.789124,112.168213 92.597443,112.153969 93.674881,112.006714 
	C93.967369,112.964111 93.990730,114.054527 94.013939,115.553940 
	C93.557259,115.892456 93.100731,115.821968 92.297226,115.750435 
z"/>
<path fill="#172226" opacity="1.000000" stroke="none" 
	d="
M99.411728,116.005020 
	C99.056786,114.940300 99.060898,113.872299 99.011040,112.402908 
	C99.458786,112.013100 99.960495,112.024696 100.837860,112.065056 
	C101.187096,113.110298 101.160698,114.126778 101.169281,115.525040 
	C100.726440,115.938461 100.248604,115.970100 99.411728,116.005020 
z"/>
<path fill="#CAD3D8" opacity="1.000000" stroke="none" 
	d="
M85.656494,112.237747 
	C86.015442,112.915443 86.012817,113.675682 85.963875,114.813431 
	C85.182983,115.054520 84.448402,114.918106 83.352234,114.883286 
	C82.990639,114.984879 82.874870,114.643135 82.907623,114.465714 
	C83.725220,113.632286 84.510071,112.976280 85.656494,112.237747 
z"/>
<path fill="#CAD3D8" opacity="1.000000" stroke="none" 
	d="
M89.305374,117.147690 
	C89.476044,116.752419 89.958588,116.401535 90.751190,116.038467 
	C90.579918,116.414894 90.098587,116.803490 89.305374,117.147690 
z"/>
<path fill="#181919" opacity="1.000000" stroke="none" 
	d="
M81.063263,110.901382 
	C74.577324,111.054413 68.247032,110.896950 61.494804,110.263290 
	C62.611744,108.820892 64.031700,107.438538 65.709648,106.959053 
	C73.883537,104.623283 76.302025,101.787262 77.003456,93.082222 
	C82.418716,93.032913 84.727531,88.907204 87.675568,85.071564 
	C88.149483,85.916527 88.128418,86.952950 88.477272,87.844658 
	C91.572937,95.757408 90.662590,102.627228 83.515419,108.028793 
	C82.617401,108.707481 81.978088,109.728493 81.063263,110.901382 
z"/>
<path fill="#CAD3D8" opacity="1.000000" stroke="none" 
	d="
M90.032776,111.690826 
	C89.488182,111.882683 88.832603,111.828728 87.695206,111.664001 
	C88.116196,111.517166 89.018997,111.481087 90.032776,111.690826 
z"/>
<path fill="#48B3E3" opacity="1.000000" stroke="none" 
	d="
M18.753345,21.481625 
	C22.516582,21.698814 26.014811,22.116341 29.805939,23.172911 
	C29.895479,29.903612 24.900826,27.075026 21.654831,28.066542 
	C20.342060,27.888525 19.381712,27.802120 18.421366,27.715714 
	C18.443689,25.704462 18.466011,23.693213 18.753345,21.481625 
z"/>
<path fill="#4A4C4D" opacity="1.000000" stroke="none" 
	d="
M18.053078,27.939165 
	C19.381712,27.802120 20.342060,27.888525 21.653856,28.465916 
	C21.332186,32.376747 20.659065,35.796597 19.693470,39.409698 
	C18.611980,40.100460 17.822966,40.597965 17.033951,41.095470 
	C17.250896,36.784519 17.467842,32.473568 18.053078,27.939165 
z"/>
<path fill="#4DC0F4" opacity="1.000000" stroke="none" 
	d="
M17.037609,41.329811 
	C17.822966,40.597965 18.611980,40.100460 20.135052,39.538868 
	C22.394985,39.612183 23.920862,39.749584 25.312157,40.313892 
	C25.235876,42.196495 25.294174,43.652191 25.055897,45.277496 
	C23.856621,45.579407 22.953920,45.711712 22.051218,45.844013 
	C20.920921,45.651711 19.790625,45.459412 18.311375,45.229752 
	C17.654549,44.347569 17.346676,43.502750 16.955547,42.329643 
	C16.872288,42.001358 17.041265,41.564148 17.037609,41.329811 
z"/>
<path fill="#1D1D1D" opacity="1.000000" stroke="none" 
	d="
M44.993820,128.213104 
	C41.415165,128.397995 37.836514,128.582901 33.400383,128.772049 
	C31.367365,128.678864 30.191826,128.581436 29.016289,128.484009 
	C30.341816,124.928963 31.667343,121.373909 33.163597,117.251740 
	C33.595837,116.461105 33.857342,116.237595 34.480209,115.958954 
	C36.516922,115.609085 38.192280,115.314339 39.867638,115.019585 
	C42.964607,115.835976 46.061581,116.652359 49.577164,117.953011 
	C49.146095,119.975983 48.256306,121.494217 47.457569,123.058929 
	C46.592083,124.754402 45.811459,126.493195 44.993820,128.213104 
z"/>
<path fill="#45B5E8" opacity="1.000000" stroke="none" 
	d="
M34.118851,116.014084 
	C33.857342,116.237595 33.595837,116.461105 33.172173,116.885963 
	C29.287180,117.133156 25.542570,117.430130 21.851450,117.110123 
	C20.210169,116.967819 18.676762,115.581291 16.964954,114.380173 
	C17.694756,113.010010 18.553993,112.019173 20.145256,110.945740 
	C22.910587,110.800331 24.943893,110.737526 27.389320,110.792244 
	C31.131052,111.096550 35.159092,110.418907 34.118851,116.014084 
z"/>
<path fill="#49B7E8" opacity="1.000000" stroke="none" 
	d="
M28.572525,128.603394 
	C30.191826,128.581436 31.367365,128.678864 32.978737,128.897873 
	C33.334900,130.660446 33.255238,132.301453 33.288624,134.347794 
	C30.900898,134.886917 28.400124,135.020691 25.453270,135.270996 
	C22.975527,135.232056 20.943865,135.076584 18.480286,134.846497 
	C16.491482,129.972946 17.060568,129.012314 21.690296,128.812042 
	C23.833725,128.719315 25.982441,128.748749 28.572525,128.603394 
z"/>
<path fill="#464848" opacity="1.000000" stroke="none" 
	d="
M25.446737,39.886986 
	C23.920862,39.749584 22.394985,39.612183 20.427528,39.345612 
	C20.659065,35.796597 21.332186,32.376747 22.006281,28.557528 
	C24.900826,27.075026 29.895479,29.903612 30.105637,23.410425 
	C32.625935,22.949945 35.139439,22.890995 38.013687,23.312256 
	C39.252598,25.224688 40.130756,26.656908 40.957672,28.431534 
	C39.129028,30.089483 37.157806,31.213512 35.621983,32.767769 
	C33.580574,34.833668 31.878561,37.234936 29.639214,39.508266 
	C27.980709,39.645271 26.713722,39.766129 25.446737,39.886986 
z"/>
<path fill="#EEF0F1" opacity="1.000000" stroke="none" 
	d="
M41.008915,28.089128 
	C40.130756,26.656908 39.252598,25.224688 38.382492,23.452339 
	C41.319359,22.540127 44.248169,21.968042 47.578022,21.273689 
	C51.686279,21.223204 55.393490,21.294987 59.547653,21.243660 
	C61.539619,22.197912 63.084641,23.275274 64.757904,24.669865 
	C62.685413,25.974230 60.567314,27.344893 58.260971,27.841755 
	C55.905704,28.349159 53.365623,27.998695 50.024574,28.013193 
	C46.431435,28.031439 43.720177,28.060284 41.008915,28.089128 
z"/>
<path fill="#4DAEDA" opacity="1.000000" stroke="none" 
	d="
M82.723000,21.695948 
	C82.650414,21.796291 82.429665,21.868956 82.373383,21.771549 
	C82.317093,21.674143 82.570915,21.383242 82.691406,21.365849 
	C82.811897,21.348454 82.795586,21.595604 82.723000,21.695948 
z"/>
<path fill="#2B2B2B" opacity="1.000000" stroke="none" 
	d="
M26.977200,110.674713 
	C24.943893,110.737526 22.910587,110.800331 20.447691,110.778229 
	C20.682577,107.228874 21.347055,103.764435 22.439171,99.834717 
	C23.724707,99.244743 24.582609,99.120033 25.742680,99.111481 
	C26.681173,99.397179 27.317495,99.566734 27.969812,100.119507 
	C27.649605,103.893379 27.313402,107.284050 26.977200,110.674713 
z"/>
<path fill="#4DB7E7" opacity="1.000000" stroke="none" 
	d="
M25.440510,98.995331 
	C24.582609,99.120033 23.724707,99.244743 22.437937,99.444603 
	C20.594421,99.131584 19.179773,98.743408 17.455572,98.147491 
	C17.361933,96.601929 17.577847,95.264099 18.395500,93.536217 
	C21.174980,93.199799 23.352722,93.253433 25.388556,93.701050 
	C25.311268,95.728477 25.375889,97.361900 25.440510,98.995331 
z"/>
<path fill="#393939" opacity="1.000000" stroke="none" 
	d="
M25.603539,63.845715 
	C25.343685,67.298775 24.688614,70.669022 24.017967,74.422424 
	C22.935656,74.871979 21.868919,74.938385 20.404217,74.940559 
	C20.636047,71.482506 21.265844,68.088684 21.944798,64.307053 
	C23.065407,63.867126 24.136862,63.815014 25.603539,63.845715 
z"/>
<path fill="#333333" opacity="1.000000" stroke="none" 
	d="
M25.530462,93.307060 
	C23.352722,93.253433 21.174980,93.199799 18.536806,93.220894 
	C19.012678,89.754105 19.948984,86.212593 20.930679,82.290009 
	C23.026724,81.863739 25.077383,81.818527 27.510527,82.245308 
	C27.269978,85.755844 26.646944,88.794388 25.990366,92.082886 
	C25.953838,92.499947 25.950853,92.667046 25.868097,92.974075 
	C25.788328,93.113998 25.530462,93.307060 25.530462,93.307060 
z"/>
<path fill="#404142" opacity="1.000000" stroke="none" 
	d="
M21.988960,46.239658 
	C22.953920,45.711712 23.856621,45.579407 25.410765,45.381142 
	C27.825079,45.482517 29.587954,45.649857 30.915123,45.884438 
	C27.559896,45.729328 25.754219,46.625050 25.754532,50.000214 
	C25.754744,52.281254 25.273914,54.562340 25.008253,56.843403 
	C23.616476,56.909924 22.224699,56.976448 20.418736,56.973511 
	C20.645264,53.481133 21.285982,50.058220 21.988960,46.239658 
z"/>
<path fill="#1D1E1E" opacity="1.000000" stroke="none" 
	d="
M76.595612,92.996262 
	C76.302025,101.787262 73.883537,104.623283 65.709648,106.959053 
	C64.031700,107.438538 62.611744,108.820892 61.045517,110.129257 
	C54.724194,110.653168 48.430222,110.834892 41.325142,110.961334 
	C39.874142,109.167130 38.758080,107.438713 38.719406,105.686516 
	C38.674835,103.667076 39.581619,101.626640 40.525894,99.487000 
	C43.812729,99.239418 46.648933,99.100174 49.859657,99.114655 
	C52.487934,99.229607 54.741695,99.190842 57.207169,99.406685 
	C58.640823,98.778076 59.862766,97.894852 61.477650,97.008209 
	C64.978462,95.638260 68.086327,94.271721 71.194199,92.905190 
	C72.858727,92.906891 74.523247,92.908592 76.595612,92.996262 
z"/>
<path fill="#202223" opacity="1.000000" stroke="none" 
	d="
M71.037491,92.566139 
	C68.086327,94.271721 64.978462,95.638260 61.416782,96.710449 
	C60.600342,95.983246 60.237709,95.550385 59.642410,95.035851 
	C59.138000,94.735847 58.983692,94.453354 58.911873,93.778534 
	C57.908543,93.304276 56.940166,93.158188 55.640968,92.928009 
	C54.870911,92.728241 54.431683,92.612564 53.905960,92.351288 
	C53.548294,92.302528 53.277119,92.399376 52.656929,92.592865 
	C51.390923,92.901878 50.473927,93.114258 49.177589,93.138832 
	C48.535507,92.848053 48.272774,92.745087 48.010036,92.642113 
	C49.169086,91.017525 50.061127,89.071030 51.546062,87.839317 
	C54.161560,85.669830 57.139122,83.936844 60.126350,81.657715 
	C64.233757,82.094254 64.365295,79.563019 65.488785,76.643539 
	C66.537277,73.918953 69.536644,71.197655 72.323845,70.062820 
	C76.628174,68.310272 80.118629,71.614029 81.784821,74.999199 
	C83.354378,78.188065 83.022415,82.324852 79.270882,84.647163 
	C77.850418,85.526474 75.952148,85.665123 74.251785,86.054543 
	C70.774612,86.850899 68.820000,88.429329 71.037491,92.566139 
M76.877441,76.822174 
	C74.791191,75.168091 72.448204,73.889359 71.010414,77.157860 
	C70.555206,78.192703 71.748314,81.129265 72.661751,81.366287 
	C75.277138,82.044952 77.090233,80.649506 76.877441,76.822174 
z"/>
<path fill="#2C2D2D" opacity="1.000000" stroke="none" 
	d="
M89.154251,41.004227 
	C86.722252,40.419231 84.723831,39.829979 82.361397,39.154953 
	C83.500420,37.846245 85.342346,35.318745 86.452759,35.607204 
	C95.169907,37.871754 101.947586,34.464748 108.590836,29.051228 
	C108.948029,30.071766 108.964005,31.141933 108.911423,32.608093 
	C107.533089,33.535187 105.808968,33.706757 104.983490,34.658085 
	C100.867462,39.401649 95.315491,40.347698 89.154251,41.004227 
z"/>
<path fill="#233036" opacity="1.000000" stroke="none" 
	d="
M116.160248,32.777267 
	C116.319145,28.853455 118.338722,27.027538 121.564178,28.348886 
	C122.845169,28.873663 123.615250,31.614168 123.788742,33.425339 
	C123.864395,34.215191 121.672470,36.089302 120.830994,35.915810 
	C119.182159,35.575867 117.758209,34.145233 116.160248,32.777267 
z"/>
<path fill="#2B2B2B" opacity="1.000000" stroke="none" 
	d="
M26.023911,91.832932 
	C26.646944,88.794388 27.269978,85.755844 27.941816,82.332848 
	C29.775930,81.840027 31.561237,81.731667 33.687431,81.465683 
	C34.546597,81.404594 35.064880,81.501137 35.808903,81.735191 
	C35.070503,84.922752 34.106369,87.972801 32.646355,91.430466 
	C30.108288,91.836357 28.066099,91.834648 26.023911,91.832932 
z"/>
<path fill="#F0F8FC" opacity="1.000000" stroke="none" 
	d="
M25.388556,93.701050 
	C25.530462,93.307060 25.788328,93.113998 26.316885,93.024261 
	C29.221357,92.786095 31.597271,92.637665 33.973186,92.489235 
	C34.914467,92.686928 35.855751,92.884628 37.254597,93.602386 
	C37.631077,95.716049 37.549988,97.309631 37.081097,99.045998 
	C33.780136,99.371284 30.866978,99.553787 27.953819,99.736298 
	C27.317495,99.566734 26.681173,99.397179 25.742680,99.111481 
	C25.375889,97.361900 25.311268,95.728477 25.388556,93.701050 
z"/>
<path fill="#4CB9EB" opacity="1.000000" stroke="none" 
	d="
M37.468899,98.903221 
	C37.549988,97.309631 37.631077,95.716049 37.594376,93.726166 
	C40.686977,93.183174 43.897369,93.036476 47.558899,92.765945 
	C48.272774,92.745087 48.535507,92.848053 49.040932,93.532196 
	C49.350792,95.729218 49.417965,97.345070 49.485138,98.960922 
	C46.648933,99.100174 43.812729,99.239418 40.106949,99.325348 
	C38.647881,99.149086 38.058388,99.026154 37.468899,98.903221 
z"/>
<path fill="#3C4447" opacity="1.000000" stroke="none" 
	d="
M33.857910,92.316711 
	C31.597271,92.637665 29.221357,92.786095 26.396654,92.884338 
	C25.950853,92.667046 25.953838,92.499947 25.990364,92.082886 
	C28.066099,91.834648 30.108288,91.836357 32.586540,91.783112 
	C33.275013,91.845360 33.515026,91.984039 33.857910,92.316711 
z"/>
<path fill="#3C3C3C" opacity="1.000000" stroke="none" 
	d="
M40.957672,28.431534 
	C43.720177,28.060284 46.431435,28.031439 49.576683,28.132957 
	C48.683994,31.681252 47.357323,35.099182 46.042755,38.845764 
	C43.507641,39.335514 40.960423,39.496616 37.561264,39.674820 
	C34.483128,39.625324 32.256931,39.558723 30.030733,39.492119 
	C31.878561,37.234936 33.580574,34.833668 35.621983,32.767769 
	C37.157806,31.213512 39.129028,30.089483 40.957672,28.431534 
z"/>
<path fill="#F7FCFF" opacity="1.000000" stroke="none" 
	d="
M29.639214,39.508266 
	C32.256931,39.558723 34.483128,39.625324 37.088493,39.793026 
	C37.550709,41.393860 37.633759,42.893597 37.597797,44.754223 
	C35.908478,45.275661 34.338165,45.436207 32.225471,45.614094 
	C31.683086,45.631432 31.350826,45.817200 31.350826,45.817200 
	C29.587954,45.649857 27.825079,45.482517 25.707340,45.211533 
	C25.294174,43.652191 25.235876,42.196495 25.312157,40.313892 
	C26.713722,39.766129 27.980709,39.645271 29.639214,39.508266 
z"/>
<path fill="#3A3B3C" opacity="1.000000" stroke="none" 
	d="
M30.915123,45.884438 
	C31.350826,45.817200 31.683086,45.631432 31.839012,45.740578 
	C31.332050,49.239212 30.669159,52.628700 30.006775,56.429092 
	C28.614691,56.900871 27.222101,56.961735 25.418880,56.933002 
	C25.273914,54.562340 25.754744,52.281254 25.754532,50.000214 
	C25.754219,46.625050 27.559896,45.729328 30.915123,45.884438 
z"/>
<path fill="#313436" opacity="1.000000" stroke="none" 
	d="
M37.081097,99.045998 
	C38.058388,99.026154 38.647881,99.149086 39.656315,99.433670 
	C39.581619,101.626640 38.674835,103.667076 38.719406,105.686516 
	C38.758080,107.438713 39.874142,109.167130 40.872303,111.007690 
	C40.827484,112.181992 40.424404,113.254654 39.944481,114.673447 
	C38.192280,115.314339 36.516922,115.609085 34.480209,115.958954 
	C35.159092,110.418907 31.131052,111.096550 27.389320,110.792244 
	C27.313402,107.284050 27.649605,103.893379 27.969814,100.119507 
	C30.866978,99.553787 33.780136,99.371284 37.081097,99.045998 
z"/>
<path fill="#191919" opacity="1.000000" stroke="none" 
	d="
M45.423447,128.357529 
	C45.811459,126.493195 46.592083,124.754402 47.457569,123.058929 
	C48.256306,121.494217 49.146095,119.975983 49.995201,118.105194 
	C52.386570,117.672585 54.778511,117.572075 57.596695,117.620834 
	C56.683773,121.201714 55.344608,124.633316 54.002434,128.438293 
	C51.283970,128.708435 48.568523,128.605209 45.423447,128.357529 
z"/>
<path fill="#E6F5FB" opacity="1.000000" stroke="none" 
	d="
M49.859657,99.114655 
	C49.417965,97.345070 49.350792,95.729218 49.420273,93.720001 
	C50.473927,93.114258 51.390923,92.901878 52.903446,92.716080 
	C53.663464,92.660744 53.827957,92.578819 53.992455,92.496895 
	C54.431683,92.612564 54.870911,92.728241 55.752457,93.261909 
	C57.112122,93.822174 58.029476,93.964439 58.946827,94.106705 
	C58.983692,94.453354 59.138000,94.735847 59.647991,95.373322 
	C58.922642,96.912331 57.959049,98.032204 56.995453,99.152069 
	C54.741695,99.190842 52.487934,99.229607 49.859657,99.114655 
z"/>
<path fill="#3C4447" opacity="1.000000" stroke="none" 
	d="
M57.207169,99.406693 
	C57.959049,98.032204 58.922642,96.912331 59.880653,95.454987 
	C60.237709,95.550385 60.600342,95.983246 61.023842,96.713867 
	C59.862766,97.894852 58.640823,98.778076 57.207169,99.406693 
z"/>
<path fill="#D5DCDF" opacity="1.000000" stroke="none" 
	d="
M76.905411,77.204483 
	C77.090233,80.649506 75.277138,82.044952 72.661751,81.366287 
	C71.748314,81.129265 70.555206,78.192703 71.010414,77.157860 
	C72.448204,73.889359 74.791191,75.168091 76.905411,77.204483 
z"/>
<path fill="#3C4447" opacity="1.000000" stroke="none" 
	d="
M58.911873,93.778534 
	C58.029476,93.964439 57.112122,93.822174 56.083282,93.346008 
	C56.940166,93.158188 57.908543,93.304276 58.911873,93.778534 
z"/>
<path fill="#3C4447" opacity="1.000000" stroke="none" 
	d="
M53.905960,92.351288 
	C53.827957,92.578819 53.663464,92.660744 53.252457,92.619446 
	C53.277119,92.399376 53.548294,92.302528 53.905960,92.351288 
z"/>
</svg>