<svg version="1.1" id="Layer_1" xmlns="http://www.w3.org/2000/svg" xmlns:xlink="http://www.w3.org/1999/xlink" x="0px" y="0px"
	 width="100%" viewBox="0 0 212 217" enable-background="new 0 0 212 217" xml:space="preserve">
<path fill="#000001" opacity="1.000000" stroke="none" 
	d="
M1.000000,81.000000 
	C1.000000,54.000000 1.000000,27.500004 1.000000,1.000004 
	C71.666664,1.000002 142.333328,1.000002 213.000000,1.000001 
	C213.000000,73.333321 213.000000,145.666641 213.000000,217.999969 
	C142.333344,217.999985 71.666695,217.999985 1.000021,218.000000 
	C1.000000,172.500000 1.000000,127.000000 1.000000,81.000000 
M16.745596,117.970947 
	C17.494591,117.924309 18.243584,117.877670 19.921761,117.969635 
	C28.949453,117.923996 37.977146,117.878349 47.920811,117.973236 
	C53.811005,117.766243 60.627514,120.091164 63.959858,111.502350 
	C63.838566,105.239326 61.653286,102.878181 55.646160,103.050949 
	C52.422314,103.143669 49.213917,103.773758 45.074734,104.031395 
	C39.435692,104.031395 33.796650,104.031395 28.157610,104.031395 
	C27.937550,103.687195 27.717491,103.342995 27.497433,102.998795 
	C31.282631,99.440903 35.067829,95.883011 39.416252,92.068092 
	C47.311031,83.800377 55.205807,75.532654 63.709515,66.967560 
	C70.030701,60.305477 76.351891,53.643394 83.229881,46.560131 
	C87.495483,42.080223 91.761078,37.600311 96.913124,32.914654 
	C97.329147,35.942631 97.745171,38.970612 98.018349,42.850929 
	C98.071404,44.582336 98.124451,46.313744 98.038910,48.883850 
	C98.084404,50.579567 98.129906,52.275284 98.022369,54.846210 
	C98.349998,61.253269 98.888451,67.657944 98.961128,74.067894 
	C99.109879,87.187561 98.979332,100.310219 99.049240,113.431198 
	C99.057434,114.968437 99.602768,116.502815 99.988785,118.967064 
	C100.050125,127.978523 100.111465,136.989990 100.036667,146.929962 
	C100.079414,155.286163 100.122169,163.642349 100.029762,172.828049 
	C100.404678,175.884903 100.779594,178.941742 101.025284,182.842880 
	C101.047157,183.976379 101.069031,185.109863 100.391876,186.243866 
	C99.934326,186.156052 99.476776,186.068222 98.769920,185.359604 
	C90.230858,177.218658 81.691795,169.077728 72.869781,160.323639 
	C70.248741,158.211380 67.627708,156.099106 64.627274,153.384384 
	C62.365108,152.294983 61.450596,148.184128 57.495831,150.896042 
	C52.363358,154.415543 51.324745,158.973328 55.234730,164.661469 
	C57.455601,166.785645 59.676472,168.909805 62.168964,171.652191 
	C75.096039,183.920319 88.111176,196.097992 100.880127,208.528549 
	C103.620995,211.196777 106.224525,212.750595 110.679420,211.819275 
	C116.218704,206.251373 121.757988,200.683456 127.888870,194.827332 
	C132.185059,190.302673 136.481247,185.778000 141.339478,180.992706 
	C146.597641,175.434326 151.855804,169.875961 157.726028,164.007721 
	C164.957825,156.402206 172.189621,148.796707 179.993073,140.868393 
	C182.021988,138.644363 184.050919,136.420334 186.685364,133.926117 
	C187.804840,132.656143 188.924316,131.386185 190.676468,129.840347 
	C195.451691,124.798088 200.226929,119.755829 205.640991,114.481354 
	C206.360199,112.339211 207.079407,110.197067 207.950226,107.372887 
	C207.425491,106.209709 206.900757,105.046532 205.991653,103.182144 
	C204.156082,102.453522 202.311661,101.073669 200.486313,101.098450 
	C184.656525,101.313362 168.830154,101.780594 152.111710,102.030411 
	C150.797897,102.021622 149.446701,102.210922 148.176437,101.971298 
	C140.970520,100.611938 137.908951,107.318665 141.303787,113.735344 
	C144.205063,114.435776 147.106339,115.136200 150.857040,115.972702 
	C152.575333,115.928429 154.293625,115.884163 156.878586,115.971588 
	C158.920197,115.925354 160.961792,115.879120 163.929443,115.969414 
	C169.287582,115.923660 174.645721,115.877907 180.653076,115.968613 
	C181.314987,116.051682 181.976898,116.134750 182.875031,116.247467 
	C182.041763,117.394913 181.496658,118.145546 180.377518,119.129120 
	C179.568314,120.050056 178.759125,120.970993 177.359604,122.144440 
	C176.217865,123.402100 175.076141,124.659767 173.343216,126.171463 
	C172.195068,127.430176 171.046936,128.688889 169.295792,130.262100 
	C168.206360,131.665939 167.238327,133.187790 166.007431,134.454132 
	C159.006729,141.656509 151.943253,148.797882 144.294571,156.229385 
	C141.516464,159.451447 138.738358,162.673508 135.350586,166.174515 
	C133.197678,168.435394 131.044754,170.696274 128.298203,173.216888 
	C126.828568,174.797180 125.358932,176.377457 123.285034,178.226242 
	C121.837967,180.115417 120.390907,182.004578 118.372231,184.313568 
	C117.577011,184.945908 116.781792,185.578232 115.652931,186.475861 
	C115.369164,185.021255 115.172356,184.012421 115.154839,182.080643 
	C114.826797,167.372452 114.498756,152.664261 114.384903,137.044785 
	C114.026138,119.701698 113.667374,102.358612 113.550652,84.219765 
	C113.304749,73.813774 113.058846,63.407784 112.965134,52.101383 
	C112.866074,49.067608 112.767021,46.033829 112.820831,42.105015 
	C112.820831,39.097282 112.820831,36.089550 112.820831,31.984638 
	C116.510971,35.671589 119.243126,38.401386 122.215424,41.728050 
	C123.795845,43.192600 125.376266,44.657150 127.213722,46.732559 
	C133.565338,52.744858 139.831390,58.851097 146.295700,64.739693 
	C151.454300,69.438850 155.803238,69.080452 158.905823,63.998978 
	C161.458878,59.817513 159.212494,56.835579 156.303497,54.056633 
	C142.298813,40.678074 128.292923,27.300768 113.989250,13.300776 
	C112.035156,11.785366 110.081062,10.269958 107.589546,8.157655 
	C104.409462,8.911654 100.694054,8.883980 98.177750,10.607228 
	C94.616028,13.046406 91.939163,16.777647 88.281136,20.230474 
	C83.169487,25.456985 78.057838,30.683495 72.327332,36.187614 
	C65.519142,43.446831 58.710957,50.706043 51.288631,58.239719 
	C47.512608,62.460339 43.736584,66.680962 39.347740,71.181877 
	C34.885120,75.754120 30.422503,80.326370 25.346811,85.178757 
	C21.550610,89.083183 17.754406,92.987610 13.334170,97.181419 
	C11.548999,99.299492 9.852424,101.500458 7.962430,103.520447 
	C1.715984,110.196495 2.612879,114.861542 11.748330,118.977539 
	C13.166814,118.597343 14.585299,118.217140 16.745596,117.970947 
z"/>
<path fill="#4F94D7" opacity="1.000000" stroke="none" 
	d="
M114.287453,13.923021 
	C128.292923,27.300768 142.298813,40.678074 156.303497,54.056633 
	C159.212494,56.835579 161.458878,59.817513 158.905823,63.998978 
	C155.803238,69.080452 151.454300,69.438850 146.295700,64.739693 
	C139.831390,58.851097 133.565338,52.744858 127.352455,46.232933 
	C130.670334,46.151199 133.849487,46.569096 137.311249,47.160225 
	C142.748489,52.147484 147.903107,56.961506 153.057724,61.775532 
	C153.430420,61.387627 153.803116,60.999722 154.175812,60.611816 
	C153.108444,59.218254 152.041092,57.824688 150.957092,56.045467 
	C150.454620,54.458298 150.267380,52.973297 149.437119,52.098755 
	C140.322815,42.498425 131.249374,32.849129 121.794075,23.591824 
	C120.041779,21.876221 116.640022,21.845346 113.603371,20.952919 
	C112.132874,20.885580 111.058548,20.902235 109.863136,20.763775 
	C109.574249,20.405609 109.387245,20.222137 109.192047,19.693800 
	C108.971596,18.405930 108.740135,17.482502 108.465607,16.302439 
	C108.301491,15.722442 108.180450,15.399081 108.440475,14.980550 
	C110.643509,14.564594 112.465477,14.243809 114.287453,13.923021 
z"/>
<path fill="#527EDD" opacity="1.000000" stroke="none" 
	d="
M110.004959,211.817261 
	C106.224525,212.750595 103.620995,211.196777 100.880127,208.528549 
	C88.111176,196.097992 75.096039,183.920319 62.306389,171.150940 
	C63.292198,169.093384 64.140587,167.537079 65.238762,166.106720 
	C65.986099,166.488510 66.483650,166.744354 67.270172,167.167236 
	C76.704857,175.967438 85.850578,184.600632 95.084404,193.539368 
	C96.408493,194.887390 97.644478,195.929855 99.010353,197.288742 
	C102.104347,200.349670 105.068451,203.094162 108.051086,206.197937 
	C108.714737,208.310562 109.359848,210.063904 110.004959,211.817261 
z"/>
<path fill="#617DCA" opacity="1.000000" stroke="none" 
	d="
M99.899094,118.038521 
	C99.602768,116.502815 99.057434,114.968437 99.049240,113.431198 
	C98.979332,100.310219 99.109879,87.187561 98.961128,74.067894 
	C98.888451,67.657944 98.349998,61.253269 98.407120,54.498199 
	C100.898209,53.444225 101.908508,60.426407 104.769180,55.244820 
	C104.902878,55.667332 104.956497,55.835934 104.980995,56.472191 
	C105.252762,71.229828 105.553635,85.519814 105.677666,99.878998 
	C105.500816,99.948204 105.137146,100.057777 104.788475,100.216461 
	C103.956711,102.173447 103.454681,103.966919 102.994347,105.771019 
	C101.951683,109.857399 100.929565,113.949028 99.899094,118.038521 
z"/>
<path fill="#4C89DC" opacity="1.000000" stroke="none" 
	d="
M113.308609,85.015526 
	C113.667374,102.358612 114.026138,119.701698 113.980270,137.511551 
	C113.377296,137.986084 113.178947,137.993835 112.906052,137.633942 
	C111.378456,134.506119 109.925407,131.745926 108.383530,128.528839 
	C108.181557,123.393028 108.068413,118.714119 108.012878,113.566116 
	C107.808739,104.322121 107.546989,95.547203 107.313934,86.350090 
	C107.398933,83.951820 107.455254,81.975754 107.822212,80.059486 
	C109.858101,81.751366 111.583359,83.383446 113.308609,85.015526 
z"/>
<path fill="#5382D3" opacity="1.000000" stroke="none" 
	d="
M157.113968,164.317581 
	C151.855804,169.875961 146.597641,175.434326 140.607178,181.077377 
	C136.302765,182.445984 132.730652,183.729935 129.085526,184.694275 
	C128.669998,183.846863 128.327484,183.319046 127.945114,182.462097 
	C126.566605,180.741226 125.227951,179.349472 123.889297,177.957733 
	C125.358932,176.377457 126.828568,174.797180 128.985809,173.173096 
	C131.799011,173.428574 133.924606,173.727844 135.897873,174.298187 
	C135.297180,175.480194 134.848816,176.391144 134.400467,177.302078 
	C134.857620,177.666672 135.314789,178.031265 135.771957,178.395859 
	C139.518402,173.939835 143.264832,169.483826 147.009857,165.017868 
	C147.008438,165.007919 147.027267,165.016235 147.277252,165.088348 
	C147.696838,165.124207 147.866455,165.087952 148.312103,164.866714 
	C152.673080,160.671295 156.757996,156.660843 160.848022,153.045761 
	C159.606735,157.066620 158.360352,160.692093 157.113968,164.317581 
z"/>
<path fill="#4F7BE0" opacity="1.000000" stroke="none" 
	d="
M112.980598,138.001602 
	C113.178947,137.993835 113.377296,137.986084 113.873177,137.967194 
	C114.498756,152.664261 114.826797,167.372452 114.669815,182.541565 
	C112.606598,183.004333 111.028419,183.006195 109.364624,182.579254 
	C109.237923,180.405136 109.196838,178.659821 109.312836,176.660385 
	C109.346764,175.287613 109.223618,174.168976 109.087746,172.786682 
	C109.055153,172.348190 109.035271,172.173355 109.059326,171.531525 
	C109.086777,161.042465 109.070305,151.020416 109.360901,140.918213 
	C110.772179,139.892578 111.876389,138.947083 112.980598,138.001602 
z"/>
<path fill="#5080D4" opacity="1.000000" stroke="none" 
	d="
M63.100586,67.264938 
	C55.205807,75.532654 47.311031,83.800377 38.712227,92.154663 
	C35.023102,93.170280 32.038006,94.099335 29.212742,94.737778 
	C39.617836,83.654572 49.863098,72.861992 60.359535,61.892937 
	C61.693520,60.798431 62.776325,59.880402 64.033615,59.236229 
	C63.838932,62.095036 63.469757,64.679985 63.100586,67.264938 
z"/>
<path fill="#4F7BE0" opacity="1.000000" stroke="none" 
	d="
M29.052910,95.028397 
	C32.038006,94.099335 35.023102,93.170280 38.430614,92.283173 
	C35.067829,95.883011 31.282631,99.440903 27.497433,102.998795 
	C27.717491,103.342995 27.937550,103.687195 28.157610,104.031395 
	C33.796650,104.031395 39.435692,104.031395 45.617916,104.441483 
	C46.428612,106.241730 46.696129,107.631889 46.613743,109.068359 
	C45.556709,109.103485 44.849579,109.092293 43.776981,109.038292 
	C42.018299,109.108231 40.625076,109.220970 38.751541,109.378281 
	C31.857601,109.488892 25.443979,109.554939 19.023304,109.249374 
	C19.035191,107.634933 19.054132,106.392105 19.082027,105.104584 
	C19.090979,105.059906 19.169647,105.013878 19.319679,104.881149 
	C19.663752,104.564278 19.843311,104.366936 20.181189,103.874161 
	C21.962933,101.799545 23.571877,100.007179 25.441483,98.037804 
	C26.819069,96.916656 27.935989,95.972527 29.052910,95.028397 
z"/>
<path fill="#507AD7" opacity="1.000000" stroke="none" 
	d="
M73.152733,160.936783 
	C81.691795,169.077728 90.230858,177.218658 98.634354,185.909225 
	C96.687172,186.966339 94.875557,187.473846 92.774506,187.812683 
	C84.662842,180.328278 76.840630,173.012558 68.953049,165.391266 
	C67.804283,161.127502 71.221001,161.795425 73.152733,160.936783 
z"/>
<path fill="#6279C7" opacity="1.000000" stroke="none" 
	d="
M39.960564,70.901581 
	C43.736584,66.680962 47.512608,62.460339 51.961639,58.082062 
	C53.273537,57.765598 54.090778,57.806316 54.524796,57.418339 
	C62.151882,50.600273 69.742340,43.741001 77.296143,36.841824 
	C77.728676,36.446777 77.779037,35.633293 78.257538,35.009506 
	C78.674698,35.001640 78.841568,34.998825 79.217651,35.191833 
	C79.965706,35.930763 80.504562,36.473862 80.864922,37.300629 
	C73.415222,45.337250 66.144012,53.090199 58.601425,61.036270 
	C55.239162,64.222755 52.148273,67.216118 48.798004,70.001289 
	C45.679272,70.162582 42.819916,70.532082 39.960564,70.901581 
z"/>
<path fill="#2EB3EC" opacity="1.000000" stroke="none" 
	d="
M109.181038,20.058245 
	C109.387245,20.222137 109.574249,20.405609 109.942642,21.100849 
	C115.164551,26.239426 120.185860,30.885815 125.109955,35.886787 
	C124.000259,37.871304 122.987770,39.501240 121.975281,41.131180 
	C119.243126,38.401386 116.510971,35.671589 112.820831,31.984638 
	C112.820831,36.089550 112.820831,39.097282 112.395676,42.512360 
	C110.360687,42.606800 108.750847,42.293896 107.097977,41.515114 
	C107.399261,34.143333 107.743568,27.237432 108.369843,20.297905 
	C108.828217,20.195602 109.004623,20.126925 109.181038,20.058245 
z"/>
<path fill="#587FCC" opacity="1.000000" stroke="none" 
	d="
M99.943939,118.502792 
	C100.929565,113.949028 101.951683,109.857399 102.994347,105.771019 
	C103.454681,103.966919 103.956711,102.173447 104.789253,100.401070 
	C105.138702,100.426987 105.086853,100.793564 105.059586,101.281471 
	C105.320580,110.160812 105.608849,118.552246 105.950455,127.388359 
	C106.083893,130.494873 106.163986,133.156708 106.166153,136.274963 
	C106.019478,139.153763 105.950714,141.576111 105.541550,144.039185 
	C103.525024,144.720413 101.848915,145.360931 100.172806,146.001450 
	C100.111465,136.989990 100.050125,127.978523 99.943939,118.502792 
z"/>
<path fill="#5786CE" opacity="1.000000" stroke="none" 
	d="
M100.104736,146.465698 
	C101.848915,145.360931 103.525024,144.720413 105.582458,144.445633 
	C106.250618,146.878159 106.537468,148.944946 106.795792,151.391312 
	C106.781593,152.786102 106.795921,153.801346 106.667610,155.152130 
	C106.640854,157.369278 106.756737,159.250885 106.861053,161.592758 
	C106.991478,171.403671 107.133469,180.754333 107.184441,190.081512 
	C107.093430,190.058029 106.923058,189.978561 106.746399,189.714447 
	C106.382927,188.630707 106.196114,187.811081 106.008179,186.564240 
	C105.999382,184.426453 105.991730,182.715912 105.986465,180.542023 
	C105.988861,176.058670 105.988861,172.038635 105.988861,167.193283 
	C103.350197,169.370407 101.757561,170.684479 100.164917,171.998550 
	C100.122169,163.642349 100.079414,155.286163 100.104736,146.465698 
z"/>
<path fill="#4A91D9" opacity="1.000000" stroke="none" 
	d="
M113.429626,84.617645 
	C111.583359,83.383446 109.858101,81.751366 107.760040,79.594757 
	C107.259346,72.715652 107.131470,66.361076 107.056198,59.562897 
	C107.173180,56.736568 107.237572,54.353836 107.650665,52.009727 
	C109.603897,52.366169 111.208412,52.683983 112.812943,53.001793 
	C113.058846,63.407784 113.304749,73.813774 113.429626,84.617645 
z"/>
<path fill="#6E76CB" opacity="1.000000" stroke="none" 
	d="
M153.002777,102.172745 
	C168.830154,101.780594 184.656525,101.313362 200.486313,101.098450 
	C202.311661,101.073669 204.156082,102.453522 205.689972,103.557236 
	C192.575546,103.956909 179.755630,103.751869 166.954575,104.151283 
	C163.292496,104.265549 159.685043,106.130501 155.734894,107.327705 
	C154.282837,107.691689 153.148453,107.920662 151.758423,107.953224 
	C150.677582,107.563423 149.852402,107.370033 149.120819,106.857834 
	C150.477203,105.083603 151.739990,103.628174 153.002777,102.172745 
z"/>
<path fill="#4F94D7" opacity="1.000000" stroke="none" 
	d="
M96.026680,33.120403 
	C91.761078,37.600311 87.495483,42.080223 82.664925,46.727615 
	C82.008003,45.801285 81.607628,44.619362 81.889610,43.632393 
	C82.441208,41.701744 83.373672,39.879913 84.304199,37.726746 
	C85.672363,35.599171 86.884796,33.757893 88.275436,31.657505 
	C90.291328,29.355648 92.129021,27.312901 94.276634,25.185844 
	C95.073906,24.735165 95.561256,24.368792 96.019302,23.994778 
	C95.989990,23.987137 95.990456,24.047712 96.243027,23.960636 
	C96.679680,23.579241 96.863762,23.284920 97.016396,22.987770 
	C96.984940,22.984943 96.990662,23.047850 97.242218,22.959448 
	C97.678535,22.577679 97.863297,22.284311 98.024139,21.983589 
	C98.000229,21.976233 98.008842,22.024382 98.318146,21.905598 
	C100.037476,20.615810 101.447517,19.444807 102.947235,18.199326 
	C103.815536,20.047102 104.473129,21.446480 105.088394,23.147846 
	C104.759407,23.966007 104.472740,24.482176 103.814041,25.028639 
	C99.304482,26.213858 96.555954,28.646444 96.026680,33.120403 
z"/>
<path fill="#4F85D2" opacity="1.000000" stroke="none" 
	d="
M157.419998,164.162659 
	C158.360352,160.692093 159.606735,157.066620 160.987091,152.761841 
	C165.163727,147.731857 169.206421,143.381165 173.548965,138.940140 
	C175.208038,137.874649 176.567245,136.899490 177.922119,136.285248 
	C178.419006,138.161194 178.920212,139.676193 179.421432,141.191208 
	C172.189621,148.796707 164.957825,156.402206 157.419998,164.162659 
z"/>
<path fill="#5A83C9" opacity="1.000000" stroke="none" 
	d="
M39.654152,71.041733 
	C42.819916,70.532082 45.679272,70.162582 48.621132,70.268105 
	C42.629364,76.897224 36.555096,83.051338 30.169731,89.033890 
	C28.559052,87.541092 27.259468,86.219849 25.959885,84.898613 
	C30.422503,80.326370 34.885120,75.754120 39.654152,71.041733 
z"/>
<path fill="#5078E3" opacity="1.000000" stroke="none" 
	d="
M47.004845,117.832703 
	C37.977146,117.878349 28.949453,117.923996 19.379404,117.552078 
	C17.648773,113.867203 19.279638,113.069527 22.208607,112.981758 
	C26.150549,112.863632 30.084093,112.465210 34.479385,112.125282 
	C38.947594,112.020851 42.957657,111.978226 46.972878,112.357231 
	C46.986973,114.463470 46.995907,116.148087 47.004845,117.832703 
z"/>
<path fill="#6780CF" opacity="1.000000" stroke="none" 
	d="
M156.052551,107.192696 
	C159.685043,106.130501 163.292496,104.265549 166.954575,104.151283 
	C179.755630,103.751869 192.575546,103.956909 205.882172,103.907837 
	C206.900757,105.046532 207.425491,106.209709 207.481400,107.703445 
	C205.702194,108.033989 204.391830,108.033981 202.759186,107.750549 
	C195.614304,107.354103 188.791702,107.241074 181.506592,107.076057 
	C174.753342,107.155678 168.462585,107.287285 161.734879,107.386497 
	C159.549469,107.300308 157.801010,107.246498 156.052551,107.192696 
z"/>
<path fill="#4F85D2" opacity="1.000000" stroke="none" 
	d="
M84.148476,38.013039 
	C83.373672,39.879913 82.441208,41.701744 81.889610,43.632393 
	C81.607628,44.619362 82.008003,45.801285 82.386520,46.938202 
	C76.351891,53.643394 70.030701,60.305477 63.405048,67.116249 
	C63.469757,64.679985 63.838932,62.095036 64.227875,58.959442 
	C70.881248,51.610214 77.514862,44.811626 84.148476,38.013039 
z"/>
<path fill="#5376E5" opacity="1.000000" stroke="none" 
	d="
M109.450233,183.008041 
	C111.028419,183.006195 112.606598,183.004333 114.580170,183.003036 
	C115.172356,184.012421 115.369164,185.021255 115.652931,186.475861 
	C116.781792,185.578232 117.577011,184.945908 118.887924,184.346634 
	C120.276741,185.618301 121.149864,186.856888 121.867676,188.386566 
	C117.958191,192.812241 114.203995,196.946823 110.449806,201.081406 
	C109.910736,200.809784 109.371666,200.538147 108.832596,200.266525 
	C108.832596,196.856247 108.832596,193.445953 108.875076,189.596039 
	C109.095123,187.106964 109.272675,185.057495 109.450233,183.008041 
z"/>
<path fill="#6279C7" opacity="1.000000" stroke="none" 
	d="
M135.960251,165.895554 
	C138.738358,162.673508 141.516464,159.451447 144.984451,156.093903 
	C148.583878,154.337082 151.589676,152.864197 154.378250,151.056229 
	C157.748108,148.871353 160.933945,146.402603 164.092621,144.386246 
	C162.625153,146.363922 161.329178,148.070999 159.891708,149.649170 
	C155.552246,154.413406 151.157791,159.127563 146.777618,164.164230 
	C146.856064,164.650223 146.941666,164.833237 147.027267,165.016235 
	C147.027267,165.016235 147.008438,165.007919 146.688446,164.937683 
	C145.573486,165.224838 144.778503,165.582245 143.706207,165.770142 
	C140.939331,165.698944 138.449799,165.797241 135.960251,165.895554 
z"/>
<path fill="#518CCC" opacity="1.000000" stroke="none" 
	d="
M25.653347,85.038681 
	C27.259468,86.219849 28.559052,87.541092 29.981705,89.323730 
	C28.037140,92.163696 25.969507,94.542259 23.637560,97.118843 
	C20.512510,100.029861 17.651775,102.742851 14.528540,105.177307 
	C14.163428,102.229851 14.060816,99.560944 13.958204,96.892036 
	C17.754406,92.987610 21.550610,89.083183 25.653347,85.038681 
z"/>
<path fill="#5270DE" opacity="1.000000" stroke="none" 
	d="
M110.342186,211.818268 
	C109.359848,210.063904 108.714737,208.310562 108.350426,206.066956 
	C113.388367,200.967285 118.145508,196.357849 123.085335,192.057312 
	C124.611107,193.282654 125.954193,194.199112 127.297272,195.115540 
	C121.757988,200.683456 116.218704,206.251373 110.342186,211.818268 
z"/>
<path fill="#6574C6" opacity="1.000000" stroke="none" 
	d="
M164.199417,144.056702 
	C160.933945,146.402603 157.748108,148.871353 154.378250,151.056229 
	C151.589676,152.864197 148.583878,154.337082 145.287720,155.959213 
	C151.943253,148.797882 159.006729,141.656509 166.007431,134.454132 
	C167.238327,133.187790 168.206360,131.665939 169.807526,130.392288 
	C170.547119,131.679001 170.774963,132.835510 170.768829,134.231918 
	C169.043152,137.035980 167.551437,139.600174 165.925369,142.398804 
	C165.260483,143.107727 164.729950,143.582214 164.199417,144.056702 
z"/>
<path fill="#5C7BE1" opacity="1.000000" stroke="none" 
	d="
M106.009308,186.991455 
	C106.196114,187.811081 106.382927,188.630707 106.809418,190.166901 
	C107.049095,194.137680 107.049095,197.391891 107.049095,200.451889 
	C103.715431,199.031845 101.297951,198.002075 98.880463,196.972321 
	C97.644478,195.929855 96.408493,194.887390 95.292236,193.295395 
	C94.629288,191.157700 93.846619,189.569519 93.063950,187.981354 
	C94.875557,187.473846 96.687172,186.966339 98.759003,186.219620 
	C99.476776,186.068222 99.934326,186.156052 101.056747,186.407974 
	C103.150848,186.711868 104.580078,186.851669 106.009308,186.991455 
z"/>
<path fill="#449FE2" opacity="1.000000" stroke="none" 
	d="
M180.951553,118.896172 
	C181.496658,118.145546 182.041763,117.394913 182.875031,116.247467 
	C181.976898,116.134750 181.314987,116.051682 180.419617,115.580139 
	C181.801971,113.493622 183.417801,111.795578 185.485138,110.078323 
	C189.566452,110.570808 193.196259,111.082504 196.543442,111.788513 
	C192.572235,115.668999 188.883652,119.355171 184.875229,122.937195 
	C183.354126,121.520752 182.152832,120.208466 180.951553,118.896172 
z"/>
<path fill="#3AA5E2" opacity="1.000000" stroke="none" 
	d="
M205.002151,114.713570 
	C200.226929,119.755829 195.451691,124.798088 190.322052,129.600647 
	C189.248505,127.761772 188.529358,126.162598 187.926071,124.383682 
	C188.041916,124.203957 188.348694,123.903252 188.469727,123.809113 
	C188.745926,123.579323 188.888809,123.431778 189.197083,122.979126 
	C192.635422,119.132591 195.896133,115.579277 199.454865,111.965225 
	C200.503357,111.594307 201.253845,111.284142 202.218704,111.194778 
	C203.289444,112.514915 204.145798,113.614243 205.002151,114.713570 
z"/>
<path fill="#4996CA" opacity="1.000000" stroke="none" 
	d="
M13.646187,97.036728 
	C14.060816,99.560944 14.163428,102.229851 14.315147,105.454994 
	C14.085804,108.133331 8.567368,109.133041 13.021132,112.452141 
	C13.018466,112.634949 13.011036,113.000542 12.689327,113.155800 
	C11.909385,115.154259 11.451151,116.997467 10.992918,118.840668 
	C2.612879,114.861542 1.715984,110.196495 7.962430,103.520447 
	C9.852424,101.500458 11.548999,99.299492 13.646187,97.036728 
z"/>
<path fill="#4B93DE" opacity="1.000000" stroke="none" 
	d="
M185.033630,110.097527 
	C183.417801,111.795578 181.801971,113.493622 180.095001,115.511917 
	C174.645721,115.877907 169.287582,115.923660 163.553925,115.581909 
	C163.787796,113.548309 164.397217,111.902222 165.419342,110.198273 
	C167.221985,110.097366 168.611908,110.054306 170.467972,110.027664 
	C175.633957,110.061890 180.333801,110.079712 185.033630,110.097527 
z"/>
<path fill="#4996CA" opacity="1.000000" stroke="none" 
	d="
M55.172935,164.003372 
	C51.324745,158.973328 52.363358,154.415543 57.495831,150.896042 
	C61.450596,148.184128 62.365108,152.294983 64.729843,154.010880 
	C63.223915,156.756241 61.615406,158.875092 59.825996,161.272919 
	C58.154377,162.369049 56.663658,163.186203 55.172935,164.003372 
z"/>
<path fill="#3AA5E2" opacity="1.000000" stroke="none" 
	d="
M96.469902,33.017529 
	C96.555954,28.646444 99.304482,26.213858 103.792969,25.470997 
	C104.128479,31.258263 104.113022,36.633461 104.032272,41.992767 
	C103.966972,41.976879 103.832893,41.986164 103.432053,41.992737 
	C101.407875,41.999073 99.784531,41.998833 98.161194,41.998592 
	C97.745171,38.970612 97.329147,35.942631 96.469902,33.017529 
z"/>
<path fill="#587FCC" opacity="1.000000" stroke="none" 
	d="
M46.963642,109.022049 
	C46.696129,107.631889 46.428612,106.241730 46.079823,104.506462 
	C49.213917,103.773758 52.422314,103.143669 55.646160,103.050949 
	C61.653286,102.878181 63.838566,105.239326 63.423721,111.762154 
	C61.548275,111.669090 60.208965,111.316223 58.716621,110.625244 
	C54.696941,109.865448 50.830292,109.443748 46.963642,109.022049 
z"/>
<path fill="#4F7BE0" opacity="1.000000" stroke="none" 
	d="
M127.593079,194.971436 
	C125.954193,194.199112 124.611107,193.282654 123.156403,191.735992 
	C125.082710,189.075134 127.120628,187.044510 129.158539,185.013885 
	C132.730652,183.729935 136.302765,182.445984 140.326157,181.207687 
	C136.481247,185.778000 132.185059,190.302673 127.593079,194.971436 
z"/>
<path fill="#6574C6" opacity="1.000000" stroke="none" 
	d="
M78.007256,35.014549 
	C77.779037,35.633293 77.728676,36.446777 77.296143,36.841824 
	C69.742340,43.741001 62.151882,50.600273 54.524796,57.418339 
	C54.090778,57.806316 53.273537,57.765598 52.268707,57.944832 
	C58.710957,50.706043 65.519142,43.446831 72.879433,36.206604 
	C74.956772,35.821911 76.482018,35.418228 78.007256,35.014549 
z"/>
<path fill="#7173C8" opacity="1.000000" stroke="none" 
	d="
M78.257538,35.009506 
	C76.482018,35.418228 74.956772,35.821911 73.188866,36.067795 
	C78.057838,30.683495 83.169487,25.456985 88.951408,20.074642 
	C92.412018,18.609797 95.202347,17.300781 97.996124,15.995663 
	C97.999565,15.999559 98.002594,16.004038 97.823433,16.284023 
	C91.432327,22.708008 85.220383,28.852005 79.008438,34.996002 
	C78.841568,34.998825 78.674698,35.001640 78.257538,35.009506 
z"/>
<path fill="#5681D8" opacity="1.000000" stroke="none" 
	d="
M58.869656,110.963356 
	C60.208965,111.316223 61.548275,111.669090 63.296661,112.110077 
	C60.627514,120.091164 53.811005,117.766243 47.462830,117.902969 
	C46.995907,116.148087 46.986973,114.463470 47.412224,112.288940 
	C51.520824,111.520462 55.195240,111.241905 58.869656,110.963356 
z"/>
<path fill="#518CCC" opacity="1.000000" stroke="none" 
	d="
M60.006901,160.993958 
	C61.615406,158.875092 63.223915,156.756241 64.919548,154.312103 
	C67.627708,156.099106 70.248741,158.211380 73.011261,160.630219 
	C71.221001,161.795425 67.804283,161.127502 68.639420,165.461487 
	C67.921173,166.224945 67.451187,166.612564 66.981194,167.000198 
	C66.483650,166.744354 65.986099,166.488510 65.066650,165.835739 
	C63.098797,163.957199 61.552849,162.475571 60.006901,160.993958 
z"/>
<path fill="#7370C3" opacity="1.000000" stroke="none" 
	d="
M152.557251,102.101578 
	C151.739990,103.628174 150.477203,105.083603 148.840729,106.928497 
	C147.739319,108.057869 147.011627,108.797760 146.093307,109.850540 
	C144.326111,111.107544 142.749557,112.051674 141.172989,112.995811 
	C137.908951,107.318665 140.970520,100.611938 148.176437,101.971298 
	C149.446701,102.210922 150.797897,102.021622 152.557251,102.101578 
z"/>
<path fill="#48A2E1" opacity="1.000000" stroke="none" 
	d="
M122.095352,41.429611 
	C122.987770,39.501240 124.000259,37.871304 125.456146,36.047932 
	C126.608994,35.908398 127.318443,35.962299 128.016144,36.006256 
	C128.004395,35.996307 127.983009,35.974148 127.835205,36.289417 
	C128.685959,37.774841 129.684509,38.945000 130.861206,40.406433 
	C133.035797,42.794136 135.032227,44.890564 137.028641,46.986992 
	C133.849487,46.569096 130.670334,46.151199 127.223938,45.927498 
	C125.376266,44.657150 123.795845,43.192600 122.095352,41.429611 
z"/>
<path fill="#587FCC" opacity="1.000000" stroke="none" 
	d="
M135.655426,166.035034 
	C138.449799,165.797241 140.939331,165.698944 143.559845,166.071930 
	C141.143936,169.037857 138.597076,171.532486 136.050201,174.027115 
	C133.924606,173.727844 131.799011,173.428574 129.282623,173.043213 
	C131.044754,170.696274 133.197678,168.435394 135.655426,166.035034 
z"/>
<path fill="#5080D4" opacity="1.000000" stroke="none" 
	d="
M100.097336,172.413300 
	C101.757561,170.684479 103.350197,169.370407 105.988861,167.193283 
	C105.988861,172.038635 105.988861,176.058670 105.633888,180.564407 
	C103.904114,181.366272 102.529320,181.682434 101.154518,181.998596 
	C100.779594,178.941742 100.404678,175.884903 100.097336,172.413300 
z"/>
<path fill="#6E7CCB" opacity="1.000000" stroke="none" 
	d="
M171.002808,133.992035 
	C170.774963,132.835510 170.547119,131.679001 170.109024,130.235046 
	C171.046936,128.688889 172.195068,127.430176 173.785217,126.363068 
	C175.716248,128.010147 177.205261,129.465607 178.751373,131.204208 
	C178.857635,131.673126 178.906784,131.858902 178.770782,132.299530 
	C178.396164,133.362961 178.206665,134.171509 177.994522,135.216141 
	C177.971878,135.452209 177.926468,135.924332 177.926468,135.924332 
	C176.567245,136.899490 175.208038,137.874649 173.347473,138.691483 
	C172.548828,138.228836 172.251511,137.924530 171.952744,137.302673 
	C171.635117,135.987427 171.318954,134.989731 171.002808,133.992035 
z"/>
<path fill="#7370C3" opacity="1.000000" stroke="none" 
	d="
M97.992683,15.991766 
	C95.202347,17.300781 92.412018,18.609797 89.252892,19.937729 
	C91.939163,16.777647 94.616028,13.046406 98.177750,10.607228 
	C100.694054,8.883980 104.409462,8.911654 107.649437,8.755116 
	C106.139915,10.181421 104.472595,10.869446 103.026070,11.875065 
	C101.251808,13.108527 99.662155,14.607551 97.992683,15.991766 
z"/>
<path fill="#6491D3" opacity="1.000000" stroke="none" 
	d="
M104.689095,54.990910 
	C101.908508,60.426407 100.898209,53.444225 98.483643,54.060593 
	C98.129906,52.275284 98.084404,50.579567 98.475822,48.491001 
	C100.311661,48.258999 101.710579,48.419846 103.832893,48.663868 
	C103.832893,46.095890 103.832893,44.041027 103.832893,41.986164 
	C103.832893,41.986164 103.966972,41.976879 104.335022,42.165859 
	C104.698418,46.566864 104.693756,50.778885 104.689095,54.990910 
z"/>
<path fill="#449FE2" opacity="1.000000" stroke="none" 
	d="
M112.889038,52.551590 
	C111.208412,52.683983 109.603897,52.366169 107.593933,51.560402 
	C107.172653,48.041965 107.156830,45.011478 107.141006,41.980995 
	C108.750847,42.293896 110.360687,42.606800 112.319244,42.959877 
	C112.767021,46.033829 112.866074,49.067608 112.889038,52.551590 
z"/>
<path fill="#4F94D7" opacity="1.000000" stroke="none" 
	d="
M59.825996,161.272919 
	C61.552849,162.475571 63.098797,163.957199 64.816864,165.709808 
	C64.140587,167.537079 63.292198,169.093384 62.170578,170.841827 
	C59.676472,168.909805 57.455601,166.785645 55.203835,164.332428 
	C56.663658,163.186203 58.154377,162.369049 59.825996,161.272919 
z"/>
<path fill="#527EDD" opacity="1.000000" stroke="none" 
	d="
M122.022980,188.095490 
	C121.149864,186.856888 120.276741,185.618301 119.173737,184.136719 
	C120.390907,182.004578 121.837967,180.115417 123.587158,178.091980 
	C125.227951,179.349472 126.566605,180.741226 127.660629,182.639801 
	C125.618324,184.796265 123.820656,186.445877 122.022980,188.095490 
z"/>
<path fill="#7173C8" opacity="1.000000" stroke="none" 
	d="
M97.996124,15.995663 
	C99.662155,14.607551 101.251808,13.108527 103.026070,11.875065 
	C104.472595,10.869446 106.139915,10.181421 107.918152,9.053562 
	C110.081062,10.269958 112.035156,11.785366 114.138351,13.611899 
	C112.465477,14.243809 110.643509,14.564594 108.155128,14.836992 
	C104.748001,12.114382 103.086632,14.929622 100.705017,16.035105 
	C99.546669,16.017162 98.774635,16.010601 98.002594,16.004038 
	C98.002594,16.004038 97.999565,15.999559 97.996124,15.995663 
z"/>
<path fill="#4B93DE" opacity="1.000000" stroke="none" 
	d="
M177.922119,136.285248 
	C177.926468,135.924332 177.971878,135.452209 178.240662,135.054993 
	C179.016052,133.843430 179.522690,133.029114 180.311768,132.031738 
	C181.683502,130.764908 182.772797,129.681122 183.948807,128.966644 
	C184.716949,130.956055 185.398392,132.576172 186.079834,134.196304 
	C184.050919,136.420334 182.021988,138.644363 179.707245,141.029800 
	C178.920212,139.676193 178.419006,138.161194 177.922119,136.285248 
z"/>
<path fill="#4C89DC" opacity="1.000000" stroke="none" 
	d="
M165.006622,110.256134 
	C164.397217,111.902222 163.787796,113.548309 163.090897,115.513641 
	C160.961792,115.879120 158.920197,115.925354 156.442322,115.506729 
	C156.021271,113.445892 156.036499,111.849930 156.494080,110.200378 
	C159.626495,110.183243 162.316559,110.219688 165.006622,110.256134 
z"/>
<path fill="#6679C9" opacity="1.000000" stroke="none" 
	d="
M141.238388,113.365578 
	C142.749557,112.051674 144.326111,111.107544 146.438721,109.828033 
	C148.673019,109.230179 150.371262,108.967697 152.263077,108.884186 
	C152.647827,109.354897 152.839035,109.646629 152.791306,110.186378 
	C151.704117,112.235146 150.855865,114.035889 150.007614,115.836639 
	C147.106339,115.136200 144.205063,114.435776 141.238388,113.365578 
z"/>
<path fill="#5681D8" opacity="1.000000" stroke="none" 
	d="
M178.694275,130.921082 
	C177.205261,129.465607 175.716248,128.010147 174.080811,126.236053 
	C175.076141,124.659767 176.217865,123.402100 177.746490,122.363113 
	C179.517059,123.743584 180.900772,124.905373 182.073044,126.337479 
	C180.805847,128.045547 179.750061,129.483307 178.694275,130.921082 
z"/>
<path fill="#4B93DE" opacity="1.000000" stroke="none" 
	d="
M103.432053,41.992737 
	C103.832893,44.041027 103.832893,46.095890 103.832893,48.663868 
	C101.710579,48.419846 100.311661,48.258999 98.545120,48.071651 
	C98.124451,46.313744 98.071404,44.582336 98.089767,42.424759 
	C99.784531,41.998833 101.407875,41.999073 103.432053,41.992737 
z"/>
<path fill="#449FE2" opacity="1.000000" stroke="none" 
	d="
M186.382599,134.061218 
	C185.398392,132.576172 184.716949,130.956055 184.091492,128.699982 
	C185.368393,126.897148 186.589310,125.730278 187.810226,124.563416 
	C188.529358,126.162598 189.248505,127.761772 190.005722,129.738586 
	C188.924316,131.386185 187.804840,132.656143 186.382599,134.061218 
z"/>
<path fill="#5681D8" opacity="1.000000" stroke="none" 
	d="
M13.011036,113.000542 
	C13.011036,113.000542 13.018466,112.634949 13.420946,112.399918 
	C14.898664,112.090935 15.973903,112.016968 17.512363,111.981705 
	C23.324137,112.075974 28.672689,112.131531 34.021240,112.187088 
	C30.084093,112.465210 26.150549,112.863632 22.208607,112.981758 
	C19.279638,113.069527 17.648773,113.867203 18.914814,117.482773 
	C18.243584,117.877670 17.494591,117.924309 16.297230,117.573074 
	C14.902923,115.783646 13.956980,114.392097 13.011036,113.000542 
z"/>
<path fill="#5786CE" opacity="1.000000" stroke="none" 
	d="
M150.432327,115.904671 
	C150.855865,114.035889 151.704117,112.235146 153.169006,110.220680 
	C154.541000,110.089302 155.296371,110.171631 156.051727,110.253960 
	C156.036499,111.849930 156.021271,113.445892 156.008972,115.440880 
	C154.293625,115.884163 152.575333,115.928429 150.432327,115.904671 
z"/>
<path fill="#4B93DE" opacity="1.000000" stroke="none" 
	d="
M182.284470,126.067169 
	C180.900772,124.905373 179.517059,123.743584 178.041641,122.236862 
	C178.759125,120.970993 179.568314,120.050056 180.664536,119.012650 
	C182.152832,120.208466 183.354126,121.520752 184.724548,123.206436 
	C184.023941,124.408943 183.154205,125.238052 182.284470,126.067169 
z"/>
<path fill="#4F94D7" opacity="1.000000" stroke="none" 
	d="
M205.321564,114.597458 
	C204.145798,113.614243 203.289444,112.514915 202.223755,110.899643 
	C202.024841,109.990112 202.035248,109.596519 202.239777,109.027725 
	C202.649734,108.579681 202.865585,108.306824 203.081451,108.033966 
	C204.391830,108.033981 205.702194,108.033989 207.405579,108.044464 
	C207.079407,110.197067 206.360199,112.339211 205.321564,114.597458 
z"/>
<path fill="#507AD7" opacity="1.000000" stroke="none" 
	d="
M101.089905,182.420746 
	C102.529320,181.682434 103.904114,181.366272 105.631500,181.027740 
	C105.991730,182.715912 105.999382,184.426453 106.008179,186.564240 
	C104.580078,186.851669 103.150848,186.711868 101.406265,186.407715 
	C101.069031,185.109863 101.047157,183.976379 101.089905,182.420746 
z"/>
<path fill="#4F85D2" opacity="1.000000" stroke="none" 
	d="
M12.689327,113.155800 
	C13.956980,114.392097 14.902923,115.783646 15.926324,117.506073 
	C14.585299,118.217140 13.166814,118.597343 11.370625,118.909103 
	C11.451151,116.997467 11.909385,115.154259 12.689327,113.155800 
z"/>
<path fill="#48A2E1" opacity="1.000000" stroke="none" 
	d="
M113.999550,21.036919 
	C116.640022,21.845346 120.041779,21.876221 121.794075,23.591824 
	C131.249374,32.849129 140.322815,42.498425 149.437119,52.098755 
	C150.267380,52.973297 150.454620,54.458298 150.662796,55.842949 
	C144.255005,50.336929 138.124893,44.647774 131.824661,38.675682 
	C130.430695,37.586548 129.206848,36.780346 127.983009,35.974148 
	C127.983009,35.974148 128.004395,35.996307 127.978912,35.662682 
	C123.302132,30.565012 118.650841,25.800966 113.999550,21.036919 
z"/>
<path fill="#C3B3D8" opacity="1.000000" stroke="none" 
	d="
M131.994781,38.958618 
	C138.124893,44.647774 144.255005,50.336929 150.679413,56.228603 
	C152.041092,57.824688 153.108444,59.218254 154.175812,60.611816 
	C153.803116,60.999722 153.430420,61.387627 153.057724,61.775532 
	C147.903107,56.961506 142.748489,52.147484 137.311249,47.160225 
	C135.032227,44.890564 133.035797,42.794136 131.102173,40.238628 
	C131.441574,39.505905 131.718185,39.232262 131.994781,38.958618 
z"/>
<path fill="#C5C0DE" opacity="1.000000" stroke="none" 
	d="
M113.603371,20.952923 
	C118.650841,25.800966 123.302132,30.565012 127.990662,35.672630 
	C127.318443,35.962299 126.608994,35.908398 125.553360,35.693352 
	C120.185860,30.885815 115.164551,26.239426 110.063736,21.255966 
	C111.058548,20.902235 112.132874,20.885580 113.603371,20.952923 
z"/>
<path fill="#CCA7D2" opacity="1.000000" stroke="none" 
	d="
M101.091324,16.046484 
	C103.086632,14.929622 104.748001,12.114382 107.774063,14.932161 
	C108.180450,15.399081 108.301491,15.722442 108.288879,16.461651 
	C108.155228,16.877499 107.823692,17.211405 107.527344,17.320068 
	C106.530907,19.234438 105.830811,21.040148 105.130722,22.845856 
	C104.473129,21.446480 103.815536,20.047102 102.947235,18.199326 
	C101.447517,19.444807 100.037476,20.615810 98.229034,21.555908 
	C98.917519,19.565496 100.004425,17.805990 101.091324,16.046484 
z"/>
<path fill="#CCA7D2" opacity="1.000000" stroke="none" 
	d="
M109.192047,19.693800 
	C109.004623,20.126925 108.828217,20.195602 108.339226,19.903362 
	C107.958992,18.765432 107.891342,17.988419 107.823685,17.211405 
	C107.823692,17.211405 108.155228,16.877499 108.331955,16.718287 
	C108.740135,17.482502 108.971596,18.405930 109.192047,19.693800 
z"/>
<path fill="#C4D3E1" opacity="1.000000" stroke="none" 
	d="
M121.867683,188.386566 
	C123.820656,186.445877 125.618324,184.796265 127.700478,182.968933 
	C128.327484,183.319046 128.669998,183.846863 129.085526,184.694275 
	C127.120628,187.044510 125.082710,189.075134 122.973724,191.427094 
	C118.145508,196.357849 113.388367,200.967285 108.331894,205.707687 
	C105.068451,203.094162 102.104347,200.349670 99.010361,197.288727 
	C101.297951,198.002075 103.715431,199.031845 107.049095,200.451889 
	C107.049095,197.391891 107.049095,194.137680 106.986076,190.431015 
	C106.923058,189.978561 107.093430,190.058029 107.443718,190.068283 
	C108.140205,190.064240 108.486397,190.049957 108.832596,190.035675 
	C108.832596,193.445953 108.832596,196.856247 108.832596,200.266525 
	C109.371666,200.538147 109.910736,200.809784 110.449806,201.081406 
	C114.203995,196.946823 117.958191,192.812241 121.867683,188.386566 
z"/>
<path fill="#ADCFDC" opacity="1.000000" stroke="none" 
	d="
M67.270172,167.167236 
	C67.451187,166.612564 67.921173,166.224945 68.704788,165.767075 
	C76.840630,173.012558 84.662842,180.328278 92.774506,187.812683 
	C93.846619,189.569519 94.629288,191.157700 95.204132,192.989838 
	C85.850578,184.600632 76.704857,175.967438 67.270172,167.167236 
z"/>
<path fill="#C3B3D8" opacity="1.000000" stroke="none" 
	d="
M107.003601,60.006493 
	C107.131470,66.361076 107.259346,72.715652 107.449402,79.534958 
	C107.455254,81.975754 107.398933,83.951820 107.237946,86.833817 
	C107.407265,96.504898 107.681267,105.270050 107.955261,114.035202 
	C108.068413,118.714119 108.181557,123.393028 108.300873,128.943970 
	C108.275650,131.502975 108.244263,133.189972 107.993881,135.051132 
	C107.264618,135.423035 106.754349,135.620789 106.244080,135.818542 
	C106.163986,133.156708 106.083893,130.494873 106.005600,126.928284 
	C105.956902,117.735336 105.906403,109.447144 105.873955,100.821640 
	C105.879501,100.259483 105.867004,100.034637 105.854515,99.809799 
	C105.553635,85.519814 105.252762,71.229828 105.187225,56.720375 
	C105.949585,57.669434 106.476593,58.837963 107.003601,60.006493 
z"/>
<path fill="#A2ABD1" opacity="1.000000" stroke="none" 
	d="
M107.056198,59.562897 
	C106.476593,58.837963 105.949585,57.669434 105.216339,56.252724 
	C104.956497,55.835934 104.902878,55.667332 104.769180,55.244820 
	C104.693756,50.778885 104.698418,46.566864 104.400322,42.181747 
	C104.113022,36.633461 104.128479,31.258263 104.165009,25.440704 
	C104.472740,24.482176 104.759407,23.966007 105.088394,23.147846 
	C105.830811,21.040148 106.530907,19.234438 107.527344,17.320068 
	C107.891342,17.988419 107.958992,18.765432 108.057266,19.936989 
	C107.743568,27.237432 107.399261,34.143333 107.097977,41.515114 
	C107.156830,45.011478 107.172653,48.041965 107.245224,51.521774 
	C107.237572,54.353836 107.173180,56.736568 107.056198,59.562897 
z"/>
<path fill="#A2ABD1" opacity="1.000000" stroke="none" 
	d="
M105.677666,99.878998 
	C105.867004,100.034637 105.879501,100.259483 105.683243,100.727402 
	C105.474495,100.970459 105.086853,100.793564 105.086853,100.793564 
	C105.086853,100.793564 105.138702,100.426987 105.137924,100.242386 
	C105.137146,100.057777 105.500816,99.948204 105.677666,99.878998 
z"/>
<path fill="#4D7ED1" opacity="1.000000" stroke="none" 
	d="
M108.212883,134.876968 
	C108.244263,133.189972 108.275650,131.502975 108.389694,129.400864 
	C109.925407,131.745926 111.378456,134.506119 112.906052,137.633942 
	C111.876389,138.947083 110.772179,139.892578 109.320892,140.524170 
	C108.720177,138.432526 108.466530,136.654739 108.212883,134.876968 
z"/>
<path fill="#94A8CC" opacity="1.000000" stroke="none" 
	d="
M108.012878,113.566116 
	C107.681267,105.270050 107.407265,96.504898 107.209259,87.256020 
	C107.546989,95.547203 107.808739,104.322121 108.012878,113.566116 
z"/>
<path fill="#B4A3CD" opacity="1.000000" stroke="none" 
	d="
M171.954208,137.620209 
	C172.251511,137.924530 172.548828,138.228836 173.047623,138.781815 
	C169.206421,143.381165 165.163727,147.731857 160.981979,152.366470 
	C156.757996,156.660843 152.673080,160.671295 148.122894,164.649628 
	C147.366669,164.365417 147.075729,164.113342 146.784775,163.861252 
	C151.157791,159.127563 155.552246,154.413406 159.891708,149.649170 
	C161.329178,148.070999 162.625153,146.363922 164.092621,144.386246 
	C164.729950,143.582214 165.260483,143.107727 166.215210,142.229568 
	C168.411011,140.423996 170.182617,139.022095 171.954208,137.620209 
z"/>
<path fill="#ADB6D0" opacity="1.000000" stroke="none" 
	d="
M135.897873,174.298187 
	C138.597076,171.532486 141.143936,169.037857 143.837173,166.241425 
	C144.778503,165.582245 145.573486,165.224838 146.689880,164.947632 
	C143.264832,169.483826 139.518402,173.939835 135.771957,178.395859 
	C135.314789,178.031265 134.857620,177.666672 134.400467,177.302078 
	C134.848816,176.391144 135.297180,175.480194 135.897873,174.298187 
z"/>
<path fill="#ADB6D0" opacity="1.000000" stroke="none" 
	d="
M146.777618,164.164230 
	C147.075729,164.113342 147.366669,164.365417 147.846832,164.834595 
	C147.866455,165.087952 147.696838,165.124207 147.277252,165.088348 
	C146.941666,164.833237 146.856064,164.650223 146.777618,164.164230 
z"/>
<path fill="#94A8CC" opacity="1.000000" stroke="none" 
	d="
M107.993881,135.051132 
	C108.466530,136.654739 108.720177,138.432526 109.013832,140.604324 
	C109.070305,151.020416 109.086777,161.042465 108.857697,171.172485 
	C108.425148,168.191498 108.309723,165.096130 108.032654,162.015305 
	C107.702225,158.340942 107.233269,154.679047 106.824318,151.011749 
	C106.537468,148.944946 106.250618,146.878159 105.922859,144.404907 
	C105.950714,141.576111 106.019478,139.153763 106.166153,136.274963 
	C106.754349,135.620789 107.264618,135.423035 107.993881,135.051132 
z"/>
<path fill="#B0C6DB" opacity="1.000000" stroke="none" 
	d="
M106.795792,151.391312 
	C107.233269,154.679047 107.702225,158.340942 108.032654,162.015305 
	C108.309723,165.096130 108.425148,168.191498 108.813766,171.639465 
	C109.035271,172.173355 109.055153,172.348190 108.831886,172.986725 
	C108.777748,174.605118 108.966751,175.759811 109.155754,176.914505 
	C109.196838,178.659821 109.237923,180.405136 109.364624,182.579254 
	C109.272675,185.057495 109.095123,187.106964 108.875076,189.596039 
	C108.486397,190.049957 108.140205,190.064240 107.534729,190.091766 
	C107.133469,180.754333 106.991478,171.403671 106.909058,161.142624 
	C106.915840,158.427002 106.863045,156.621796 106.810242,154.816574 
	C106.795921,153.801346 106.781593,152.786102 106.795792,151.391312 
z"/>
<path fill="#4D7ED1" opacity="1.000000" stroke="none" 
	d="
M109.312836,176.660385 
	C108.966751,175.759811 108.777748,174.605118 108.844604,173.250366 
	C109.223618,174.168976 109.346764,175.287613 109.312836,176.660385 
z"/>
<path fill="#A2ABD1" opacity="1.000000" stroke="none" 
	d="
M23.901873,96.920822 
	C25.969507,94.542259 28.037140,92.163696 30.292799,89.495285 
	C36.555096,83.051338 42.629364,76.897224 48.880508,70.476303 
	C52.148273,67.216118 55.239162,64.222755 58.787571,61.260902 
	C59.532848,61.551414 59.820602,61.810410 60.108360,62.069408 
	C49.863098,72.861992 39.617836,83.654572 29.212742,94.737778 
	C27.935989,95.972527 26.819069,96.916656 25.248577,97.801773 
	C24.497295,97.468781 24.199583,97.194801 23.901873,96.920822 
z"/>
<path fill="#B4A3CD" opacity="1.000000" stroke="none" 
	d="
M60.359535,61.892937 
	C59.820602,61.810410 59.532848,61.551414 59.058945,61.067780 
	C66.144012,53.090199 73.415222,45.337250 81.129715,37.104324 
	C83.747742,35.055107 85.922493,33.485863 88.097237,31.916615 
	C86.884796,33.757893 85.672363,35.599171 84.304199,37.726746 
	C77.514862,44.811626 70.881248,51.610214 64.053383,58.685585 
	C62.776325,59.880402 61.693520,60.798431 60.359535,61.892937 
z"/>
<path fill="#B0C6DB" opacity="1.000000" stroke="none" 
	d="
M34.479385,112.125275 
	C28.672689,112.131531 23.324137,112.075974 17.624069,111.736633 
	C17.517166,110.971405 17.761780,110.489960 18.264381,109.916977 
	C18.691698,109.757294 18.861029,109.689140 19.030359,109.620987 
	C25.443979,109.554939 31.857601,109.488892 39.090721,109.481171 
	C41.320961,109.386688 42.731705,109.233894 44.142445,109.081100 
	C44.849579,109.092293 45.556709,109.103485 46.613743,109.068359 
	C50.830292,109.443748 54.696941,109.865448 58.716621,110.625244 
	C55.195240,111.241905 51.520824,111.520462 47.407063,111.867310 
	C42.957657,111.978226 38.947594,112.020851 34.479385,112.125275 
z"/>
<path fill="#9CC7D2" opacity="1.000000" stroke="none" 
	d="
M18.006395,110.008514 
	C17.761780,110.489960 17.517166,110.971405 17.160847,111.697929 
	C15.973903,112.016968 14.898664,112.090935 13.423611,112.217117 
	C8.567368,109.133041 14.085804,108.133331 14.577648,105.733536 
	C17.651775,102.742851 20.512510,100.029861 23.637558,97.118843 
	C24.199583,97.194801 24.497295,97.468781 24.987913,97.978790 
	C23.571877,100.007179 21.962933,101.799545 20.003284,103.975777 
	C19.430901,104.532913 19.269924,104.750984 19.169647,105.013878 
	C19.169647,105.013878 19.090979,105.059906 18.827343,105.264961 
	C17.718719,106.333534 16.873734,107.197052 15.855646,108.207657 
	C15.820273,108.819038 15.958000,109.283333 16.415354,109.782974 
	C17.158787,109.881714 17.582592,109.945114 18.006395,110.008514 
z"/>
<path fill="#5080D4" opacity="1.000000" stroke="none" 
	d="
M16.028746,108.060570 
	C16.873734,107.197052 17.718719,106.333534 18.818390,105.309647 
	C19.054132,106.392105 19.035191,107.634933 19.023304,109.249374 
	C18.861029,109.689140 18.691698,109.757294 18.264383,109.916977 
	C17.582592,109.945114 17.158787,109.881714 16.401754,109.502838 
	C16.055269,108.811768 16.042007,108.436172 16.028746,108.060570 
z"/>
<path fill="#6491D3" opacity="1.000000" stroke="none" 
	d="
M43.776981,109.038292 
	C42.731705,109.233894 41.320961,109.386688 39.571037,109.436600 
	C40.625076,109.220970 42.018299,109.108231 43.776981,109.038292 
z"/>
<path fill="#5080D4" opacity="1.000000" stroke="none" 
	d="
M19.319679,104.881149 
	C19.269924,104.750984 19.430901,104.532913 19.830482,104.258034 
	C19.843311,104.366936 19.663752,104.564278 19.319679,104.881149 
z"/>
<path fill="#6E7CCB" opacity="1.000000" stroke="none" 
	d="
M88.275436,31.657505 
	C85.922493,33.485863 83.747742,35.055107 81.308197,36.820656 
	C80.504562,36.473862 79.965706,35.930763 79.217644,35.191833 
	C85.220383,28.852005 91.432327,22.708008 97.823433,16.284023 
	C98.774635,16.010601 99.546669,16.017162 100.705017,16.035105 
	C100.004425,17.805990 98.917519,19.565496 97.919731,21.674694 
	C98.008842,22.024382 98.000229,21.976233 97.741142,22.026360 
	C97.318253,22.400274 97.154457,22.724062 96.990662,23.047848 
	C96.990662,23.047850 96.984940,22.984943 96.733749,23.031204 
	C96.318527,23.400879 96.154488,23.724297 95.990456,24.047712 
	C95.990456,24.047712 95.989990,23.987137 95.681732,23.957367 
	C94.904556,24.375114 94.435638,24.822634 93.966721,25.270153 
	C92.129021,27.312901 90.291328,29.355648 88.275436,31.657505 
z"/>
<path fill="#617DCA" opacity="1.000000" stroke="none" 
	d="
M105.059586,101.281471 
	C105.086853,100.793564 105.474495,100.970459 105.665207,101.064697 
	C105.906403,109.447144 105.956902,117.735336 105.952255,126.483612 
	C105.608849,118.552246 105.320580,110.160812 105.059586,101.281471 
z"/>
<path fill="#94A8CC" opacity="1.000000" stroke="none" 
	d="
M106.667603,155.152130 
	C106.863045,156.621796 106.915840,158.427002 106.920624,160.682358 
	C106.756737,159.250885 106.640854,157.369278 106.667603,155.152130 
z"/>
<path fill="#CCA7D2" opacity="1.000000" stroke="none" 
	d="
M202.759186,107.750549 
	C202.865585,108.306824 202.649734,108.579681 201.768738,108.985710 
	C199.780640,109.078316 198.455093,108.963196 197.135132,109.009178 
	C188.090042,109.324310 179.046112,109.673218 170.001816,110.011246 
	C168.611908,110.054306 167.221985,110.097366 165.419342,110.198273 
	C162.316559,110.219688 159.626495,110.183243 156.494080,110.200378 
	C155.296371,110.171631 154.541000,110.089302 153.407944,109.972664 
	C152.839035,109.646629 152.647827,109.354897 152.254318,108.745155 
	C152.052002,108.427155 152.014053,108.149643 152.014053,108.149643 
	C153.148453,107.920662 154.282837,107.691689 155.734894,107.327705 
	C157.801010,107.246498 159.549469,107.300308 162.095871,107.519730 
	C169.252243,107.499573 175.610657,107.313812 181.969086,107.128044 
	C188.791702,107.241074 195.614304,107.354103 202.759186,107.750549 
z"/>
<path fill="#B4A3CD" opacity="1.000000" stroke="none" 
	d="
M151.758423,107.953232 
	C152.014053,108.149643 152.052002,108.427155 152.060760,108.566177 
	C150.371262,108.967697 148.673019,109.230179 146.629349,109.515160 
	C147.011627,108.797760 147.739319,108.057869 148.747116,107.247299 
	C149.852402,107.370033 150.677582,107.563423 151.758423,107.953232 
z"/>
<path fill="#CCA7D2" opacity="1.000000" stroke="none" 
	d="
M94.276634,25.185846 
	C94.435638,24.822634 94.904556,24.375114 95.711044,23.965008 
	C95.561256,24.368792 95.073906,24.735165 94.276634,25.185846 
z"/>
<path fill="#CCA7D2" opacity="1.000000" stroke="none" 
	d="
M96.243027,23.960636 
	C96.154488,23.724297 96.318527,23.400879 96.765205,23.034031 
	C96.863762,23.284920 96.679680,23.579241 96.243027,23.960636 
z"/>
<path fill="#CCA7D2" opacity="1.000000" stroke="none" 
	d="
M97.242218,22.959446 
	C97.154457,22.724062 97.318253,22.400274 97.765053,22.033716 
	C97.863297,22.284311 97.678535,22.577679 97.242218,22.959446 
z"/>
<path fill="#B4A3CD" opacity="1.000000" stroke="none" 
	d="
M181.506592,107.076057 
	C175.610657,107.313812 169.252243,107.499573 162.532822,107.552109 
	C168.462585,107.287285 174.753342,107.155678 181.506592,107.076057 
z"/>
<path fill="#6279C7" opacity="1.000000" stroke="none" 
	d="
M171.952744,137.302673 
	C170.182617,139.022095 168.411011,140.423996 166.349579,141.995117 
	C167.551437,139.600174 169.043152,137.035980 170.768829,134.231918 
	C171.318954,134.989731 171.635117,135.987427 171.952744,137.302673 
z"/>
<path fill="#C5C0DE" opacity="1.000000" stroke="none" 
	d="
M182.073044,126.337471 
	C183.154205,125.238052 184.023941,124.408943 185.044373,123.310585 
	C188.883652,119.355171 192.572235,115.668999 196.802139,111.747879 
	C197.839584,111.127846 198.335709,110.742752 198.831833,110.357651 
	C198.940170,110.913757 199.048508,111.469856 199.156845,112.025970 
	C195.896133,115.579277 192.635422,119.132591 189.043335,123.034439 
	C188.513748,123.502556 188.392654,123.675987 188.348694,123.903252 
	C188.348694,123.903252 188.041916,124.203957 187.926071,124.383682 
	C186.589310,125.730278 185.368393,126.897148 184.004791,128.330673 
	C182.772797,129.681122 181.683502,130.764908 180.044678,131.979980 
	C179.315399,132.089081 179.135651,132.066864 178.955917,132.044662 
	C178.906784,131.858902 178.857635,131.673126 178.751373,131.204193 
	C179.750061,129.483307 180.805847,128.045547 182.073044,126.337471 
z"/>
<path fill="#6491D3" opacity="1.000000" stroke="none" 
	d="
M199.454865,111.965218 
	C199.048508,111.469856 198.940170,110.913757 198.831833,110.357651 
	C198.335709,110.742752 197.839584,111.127846 197.084763,111.553566 
	C193.196259,111.082504 189.566452,110.570808 185.485138,110.078323 
	C180.333801,110.079712 175.633957,110.061890 170.467972,110.027657 
	C179.046112,109.673218 188.090042,109.324310 197.135132,109.009178 
	C198.455093,108.963196 199.780640,109.078316 201.574631,109.160904 
	C202.035248,109.596519 202.024841,109.990112 202.009369,110.678833 
	C201.253845,111.284142 200.503357,111.594307 199.454865,111.965218 
z"/>
<path fill="#449FE2" opacity="1.000000" stroke="none" 
	d="
M188.469727,123.809113 
	C188.392654,123.675987 188.513748,123.502556 188.865707,123.327660 
	C188.888809,123.431778 188.745926,123.579323 188.469727,123.809113 
z"/>
<path fill="#C5C0DE" opacity="1.000000" stroke="none" 
	d="
M131.824661,38.675682 
	C131.718185,39.232262 131.441574,39.505905 130.924011,39.947350 
	C129.684509,38.945000 128.685959,37.774841 127.835205,36.289417 
	C129.206848,36.780346 130.430695,37.586548 131.824661,38.675682 
z"/>
<path fill="#4F85D2" opacity="1.000000" stroke="none" 
	d="
M178.770782,132.299530 
	C179.135651,132.066864 179.315399,132.089081 179.762222,132.163025 
	C179.522690,133.029114 179.016052,133.843430 178.263306,134.818909 
	C178.206665,134.171509 178.396164,133.362961 178.770782,132.299530 
z"/>
<path fill="#6491D3" opacity="1.000000" stroke="none" 
	d="
M15.855646,108.207657 
	C16.042007,108.436172 16.055269,108.811768 16.082129,109.467499 
	C15.958000,109.283333 15.820273,108.819038 15.855646,108.207657 
z"/>
</svg>