<svg data-v-fde0c5aa="" xmlns="http://www.w3.org/2000/svg" viewBox="0 0 300 300" class="iconLeft"><!----><defs data-v-fde0c5aa=""><!----></defs><rect data-v-fde0c5aa="" fill="transparent" x="0" y="0" width="300px" height="300px" class="logo-background-square"></rect><defs data-v-fde0c5aa=""><!----></defs><g data-v-fde0c5aa="" id="bf6bc4cc-8d71-40f7-80d3-7395b9beee7d" fill="#265045" transform="matrix(1.7589398419461026,0,0,1.7589398419461026,99.81334588068376,137.8633150276673)"><path d="M5.95 9.83L5.95 9.83L0.42 9.83L0.42 9.41L1.72 9.41L1.72 0.36L0.42 0.36L0.42-0.06L5.29-0.06L5.29-0.06Q5.77-0.06 6.17 0.12L6.17 0.12L6.17 0.12Q6.58 0.29 6.88 0.59L6.88 0.59L6.88 0.59Q7.18 0.90 7.35 1.31L7.35 1.31L7.35 1.31Q7.52 1.72 7.52 2.18L7.52 2.18L7.52 2.18Q7.52 2.77 7.24 3.27L7.24 3.27L7.24 3.27Q6.96 3.77 6.48 4.07L6.48 4.07L6.48 4.07Q6.96 4.17 7.39 4.44L7.39 4.44L7.39 4.44Q7.83 4.70 8.15 5.09L8.15 5.09L8.15 5.09Q8.47 5.47 8.67 5.94L8.67 5.94L8.67 5.94Q8.86 6.41 8.86 6.92L8.86 6.92L8.86 6.92Q8.86 7.53 8.64 8.06L8.64 8.06L8.64 8.06Q8.41 8.58 8.02 8.98L8.02 8.98L8.02 8.98Q7.62 9.38 7.08 9.60L7.08 9.60L7.08 9.60Q6.55 9.83 5.95 9.83ZM6.09 3.19L6.09 1.18L6.09 1.18Q6.09 0.80 5.87 0.58L5.87 0.58L5.87 0.58Q5.66 0.36 5.29 0.36L5.29 0.36L3.49 0.36L3.49 4.00L3.49 4.00Q3.93 4.02 4.39 4.01L4.39 4.01L4.39 4.01Q4.84 4.00 5.29 4.00L5.29 4.00L5.29 4.00Q5.63 4.00 5.86 3.77L5.86 3.77L5.86 3.77Q6.09 3.53 6.09 3.19L6.09 3.19ZM7.10 8.27L7.10 5.53L7.10 5.53Q7.10 5.04 6.78 4.73L6.78 4.73L6.78 4.73Q6.47 4.42 5.96 4.42L5.96 4.42L3.49 4.42L3.49 9.42L5.95 9.42L5.95 9.42Q6.55 9.42 6.83 9.14L6.83 9.14L6.83 9.14Q7.10 8.86 7.10 8.27L7.10 8.27ZM13.29 9.32L13.29 9.32L13.29 9.32Q13.12 9.25 13.02 9.10L13.02 9.10L13.02 9.10Q12.92 8.95 12.92 8.75L12.92 8.75L12.92 8.75Q12.92 8.48 13.10 8.29L13.10 8.29L13.10 8.29Q13.29 8.11 13.57 8.11L13.57 8.11L13.57 8.11Q13.83 8.11 14.01 8.29L14.01 8.29L14.01 8.29Q14.20 8.48 14.20 8.75L14.20 8.75L14.20 8.75Q14.20 9.07 14.04 9.28L14.04 9.28L14.04 9.28Q13.87 9.49 13.64 9.61L13.64 9.61L13.64 9.61Q13.41 9.73 13.15 9.78L13.15 9.78L13.15 9.78Q12.89 9.83 12.68 9.83L12.68 9.83L12.68 9.83Q12.07 9.83 11.55 9.61L11.55 9.61L11.55 9.61Q11.03 9.39 10.65 9.02L10.65 9.02L10.65 9.02Q10.28 8.64 10.06 8.12L10.06 8.12L10.06 8.12Q9.84 7.60 9.84 6.99L9.84 6.99L9.84 6.99Q9.84 6.40 10.07 5.89L10.07 5.89L10.07 5.89Q10.29 5.38 10.68 4.99L10.68 4.99L10.68 4.99Q11.07 4.61 11.58 4.38L11.58 4.38L11.58 4.38Q12.10 4.16 12.68 4.16L12.68 4.16L12.68 4.16Q13.33 4.16 13.85 4.40L13.85 4.40L13.85 4.40Q14.38 4.65 14.75 5.06L14.75 5.06L14.75 5.06Q15.12 5.47 15.32 6.03L15.32 6.03L15.32 6.03Q15.53 6.58 15.53 7.20L15.53 7.20L11.56 7.20L11.56 8.30L11.56 8.30Q11.56 8.76 11.89 9.09L11.89 9.09L11.89 9.09Q12.22 9.42 12.68 9.42L12.68 9.42L12.68 9.42Q12.82 9.42 12.98 9.40L12.98 9.40L12.98 9.40Q13.13 9.38 13.29 9.32ZM13.80 6.79L13.80 5.67L13.80 5.67Q13.80 5.18 13.49 4.86L13.49 4.86L13.49 4.86Q13.17 4.55 12.68 4.55L12.68 4.55L12.68 4.55Q12.19 4.55 11.89 4.86L11.89 4.86L11.89 4.86Q11.58 5.18 11.56 5.67L11.56 5.67L11.56 5.67Q11.56 5.91 11.57 6.21L11.57 6.21L11.57 6.21Q11.58 6.51 11.56 6.79L11.56 6.79L13.80 6.79ZM24.35 9.83L19.98 9.83L19.98 9.42L21.28 9.42L21.28 4.56L21.28 4.56Q20.99 4.59 20.68 4.70L20.68 4.70L20.68 4.70Q20.37 4.82 20.08 4.98L20.08 4.98L20.08 4.98Q19.78 5.15 19.51 5.35L19.51 5.35L19.51 5.35Q19.24 5.54 19.01 5.75L19.01 5.75L19.01 7.67L19.01 9.83L15.95 9.83L15.95 9.42L17.25 9.42L17.25 4.55L15.95 4.55L15.95 4.14L19.01 4.14L19.01 5.22L19.01 5.22Q19.26 5.01 19.56 4.82L19.56 4.82L19.56 4.82Q19.85 4.63 20.17 4.48L20.17 4.48L20.17 4.48Q20.50 4.33 20.83 4.23L20.83 4.23L20.83 4.23Q21.15 4.14 21.49 4.14L21.49 4.14L21.49 4.14Q21.83 4.14 22.11 4.26L22.11 4.26L22.11 4.26Q22.40 4.37 22.60 4.57L22.60 4.57L22.60 4.57Q22.81 4.77 22.93 5.05L22.93 5.05L22.93 5.05Q23.04 5.33 23.04 5.67L23.04 5.67L23.04 9.42L24.35 9.42L24.35 9.83ZM26.96 4.55L26.96 4.55L26.91 4.55L26.91 4.55Q26.70 4.55 26.58 4.68L26.58 4.68L26.58 4.68Q26.46 4.80 26.46 5.01L26.46 5.01L26.46 5.01Q26.46 5.43 26.92 5.47L26.92 5.47L26.92 5.47Q27.86 5.54 28.46 6.06L28.46 6.06L28.46 6.06Q29.05 6.58 29.05 7.64L29.05 7.64L29.05 7.64Q29.05 8.13 28.88 8.53L28.88 8.53L28.88 8.53Q28.71 8.93 28.42 9.21L28.42 9.21L28.42 9.21Q28.13 9.49 27.73 9.65L27.73 9.65L27.73 9.65Q27.33 9.81 26.87 9.81L26.87 9.81L26.87 9.81Q26.40 9.81 26.01 9.65L26.01 9.65L26.01 9.65Q25.62 9.49 25.35 9.21L25.35 9.21L25.35 9.21Q25.07 8.92 24.92 8.52L24.92 8.52L24.92 8.52Q24.77 8.12 24.77 7.64L24.77 7.64L24.77 7.64Q24.77 7.28 25.01 7.03L25.01 7.03L25.01 7.03Q25.26 6.79 25.61 6.79L25.61 6.79L25.61 6.79Q25.97 6.79 26.21 7.03L26.21 7.03L26.21 7.03Q26.46 7.28 26.46 7.64L26.46 7.64L26.46 7.64Q26.46 7.87 26.36 8.05L26.36 8.05L26.36 8.05Q26.26 8.23 26.10 8.34L26.10 8.34L26.10 8.34Q25.94 8.46 25.75 8.49L25.75 8.49L25.75 8.49Q25.55 8.53 25.34 8.46L25.34 8.46L25.34 8.46Q25.75 9.42 26.91 9.42L26.91 9.42L26.91 9.42Q27.09 9.42 27.22 9.29L27.22 9.29L27.22 9.29Q27.36 9.16 27.36 8.96L27.36 8.96L27.36 6.33L27.36 6.33Q27.36 6.13 27.23 6.00L27.23 6.00L27.23 6.00Q27.10 5.87 26.91 5.87L26.91 5.87L26.91 5.87Q26.54 5.87 26.30 5.62L26.30 5.62L26.30 5.62Q26.05 5.38 26.05 5.01L26.05 5.01L26.05 5.01Q26.05 4.63 26.30 4.39L26.30 4.39L26.30 4.39Q26.54 4.14 26.91 4.14L26.91 4.14L26.91 4.14Q27.27 4.14 27.51 4.40L27.51 4.40L27.51 4.40Q27.75 4.65 27.75 5.01L27.75 5.01L27.75 5.01Q27.75 5.24 27.59 5.39L27.59 5.39L27.59 5.39Q27.44 5.54 27.23 5.54L27.23 5.54L27.23 5.54Q27.01 5.54 26.86 5.39L26.86 5.39L26.86 5.39Q26.71 5.24 26.71 5.01L26.71 5.01L26.71 5.01Q26.71 4.70 26.96 4.55ZM41.38 4.55L39.98 4.55L37.13 10.07L35.08 6.12L33.04 10.07L30.18 4.55L28.78 4.55L28.78 4.14L37.30 4.14L37.30 4.55L36.11 4.55L37.81 7.85L39.51 4.55L38.32 4.55L38.32 4.14L41.38 4.14L41.38 4.55ZM34.85 5.67L34.27 4.55L32.02 4.55L33.73 7.85L34.85 5.67ZM43.96 9.83L43.96 9.83L43.96 9.83Q43.39 9.83 42.87 9.60L42.87 9.60L42.87 9.60Q42.35 9.37 41.97 8.98L41.97 8.98L41.97 8.98Q41.58 8.60 41.35 8.08L41.35 8.08L41.35 8.08Q41.12 7.56 41.12 6.99L41.12 6.99L41.12 6.99Q41.12 6.40 41.34 5.88L41.34 5.88L41.34 5.88Q41.57 5.36 41.95 4.98L41.95 4.98L41.95 4.98Q42.34 4.59 42.85 4.37L42.85 4.37L42.85 4.37Q43.37 4.14 43.96 4.14L43.96 4.14L43.96 4.14Q44.55 4.14 45.07 4.37L45.07 4.37L45.07 4.37Q45.58 4.59 45.97 4.98L45.97 4.98L45.97 4.98Q46.35 5.36 46.58 5.88L46.58 5.88L46.58 5.88Q46.80 6.40 46.80 6.99L46.80 6.99L46.80 6.99Q46.80 7.57 46.58 8.08L46.58 8.08L46.58 8.08Q46.35 8.60 45.96 8.99L45.96 8.99L45.96 8.99Q45.57 9.38 45.06 9.60L45.06 9.60L45.06 9.60Q44.55 9.83 43.96 9.83ZM45.08 8.30L45.08 5.67L45.08 5.67Q45.08 5.21 44.75 4.88L44.75 4.88L44.75 4.88Q44.42 4.55 43.96 4.55L43.96 4.55L43.96 4.55Q43.50 4.55 43.17 4.88L43.17 4.88L43.17 4.88Q42.84 5.21 42.84 5.67L42.84 5.67L42.84 8.30L42.84 8.30Q42.84 8.76 43.17 9.09L43.17 9.09L43.17 9.09Q43.50 9.42 43.96 9.42L43.96 9.42L43.96 9.42Q44.42 9.42 44.75 9.09L44.75 9.09L44.75 9.09Q45.08 8.76 45.08 8.30L45.08 8.30ZM52.00 6.54L52.00 6.54L52.00 6.54Q51.63 6.54 51.39 6.29L51.39 6.29L51.39 6.29Q51.14 6.03 51.14 5.67L51.14 5.67L51.14 5.67Q51.14 5.47 51.22 5.31L51.22 5.31L51.22 5.31Q51.30 5.14 51.44 5.02L51.44 5.02L51.44 5.02Q51.58 4.90 51.74 4.84L51.74 4.84L51.74 4.84Q51.91 4.79 52.11 4.82L52.11 4.82L52.11 4.82Q51.83 4.55 51.34 4.55L51.34 4.55L51.34 4.55Q50.85 4.55 50.53 4.86L50.53 4.86L50.53 4.86Q50.22 5.18 50.22 5.67L50.22 5.67L50.22 9.42L51.49 9.42L51.49 9.83L47.22 9.83L47.22 9.42L48.51 9.42L48.51 4.55L47.22 4.55L47.22 4.14L47.22 4.14Q47.94 4.14 48.71 4.14L48.71 4.14L48.71 4.14Q49.49 4.14 50.22 4.16L50.22 4.16L50.22 4.61L50.22 4.61Q50.64 4.14 51.34 4.14L51.34 4.14L51.34 4.14Q52.01 4.14 52.44 4.57L52.44 4.57L52.44 4.57Q52.86 5.00 52.86 5.67L52.86 5.67L52.86 5.67Q52.86 6.03 52.61 6.29L52.61 6.29L52.61 6.29Q52.36 6.54 52.00 6.54ZM60.28 9.83L57.29 9.83L57.29 9.41L58.58 9.41L58.58 9.41Q58.52 8.90 58.21 8.56L58.21 8.56L58.21 8.56Q57.90 8.22 57.50 7.90L57.50 7.90L57.50 7.90Q57.18 7.66 56.87 7.40L56.87 7.40L56.87 7.40Q56.56 7.14 56.32 6.82L56.32 6.82L56.32 9.83L53.28 9.83L53.28 9.41L54.59 9.41L54.59 0.36L53.28 0.36L53.28-0.04L56.32-0.06L56.32 4.47L56.32 4.47Q56.71 4.00 57.46 4.00L57.46 4.00L57.46 4.00Q58.13 4.00 58.55 4.44L58.55 4.44L58.55 4.44Q58.98 4.89 58.98 5.56L58.98 5.56L58.98 5.56Q58.98 5.92 58.73 6.19L58.73 6.19L58.73 6.19Q58.48 6.45 58.11 6.45L58.11 6.45L58.11 6.45Q57.75 6.45 57.50 6.19L57.50 6.19L57.50 6.19Q57.25 5.92 57.25 5.56L57.25 5.56L57.25 5.56Q57.25 5.17 57.54 4.90L57.54 4.90L57.54 4.90Q57.83 4.63 58.23 4.69L58.23 4.69L58.23 4.69Q57.95 4.42 57.46 4.42L57.46 4.42L57.46 4.42Q56.95 4.42 56.64 4.74L56.64 4.74L56.64 4.74Q56.32 5.05 56.32 5.56L56.32 5.56L56.32 5.56Q56.32 5.89 56.43 6.16L56.43 6.16L56.43 6.16Q56.53 6.43 56.71 6.64L56.71 6.64L56.71 6.64Q56.88 6.86 57.11 7.05L57.11 7.05L57.11 7.05Q57.33 7.24 57.57 7.42L57.57 7.42L57.57 7.42Q57.82 7.62 58.06 7.81L58.06 7.81L58.06 7.81Q58.30 8.01 58.48 8.25L58.48 8.25L58.48 8.25Q58.67 8.48 58.81 8.77L58.81 8.77L58.81 8.77Q58.94 9.06 58.98 9.41L58.98 9.41L60.28 9.41L60.28 9.83ZM62.57 4.55L62.57 4.55L62.51 4.55L62.51 4.55Q62.30 4.55 62.18 4.68L62.18 4.68L62.18 4.68Q62.06 4.80 62.06 5.01L62.06 5.01L62.06 5.01Q62.06 5.43 62.52 5.47L62.52 5.47L62.52 5.47Q63.46 5.54 64.06 6.06L64.06 6.06L64.06 6.06Q64.65 6.58 64.65 7.64L64.65 7.64L64.65 7.64Q64.65 8.13 64.48 8.53L64.48 8.53L64.48 8.53Q64.32 8.93 64.02 9.21L64.02 9.21L64.02 9.21Q63.73 9.49 63.33 9.65L63.33 9.65L63.33 9.65Q62.93 9.81 62.47 9.81L62.47 9.81L62.47 9.81Q62.01 9.81 61.61 9.65L61.61 9.65L61.61 9.65Q61.22 9.49 60.95 9.21L60.95 9.21L60.95 9.21Q60.68 8.92 60.52 8.52L60.52 8.52L60.52 8.52Q60.37 8.12 60.37 7.64L60.37 7.64L60.37 7.64Q60.37 7.28 60.61 7.03L60.61 7.03L60.61 7.03Q60.86 6.79 61.21 6.79L61.21 6.79L61.21 6.79Q61.57 6.79 61.82 7.03L61.82 7.03L61.82 7.03Q62.06 7.28 62.06 7.64L62.06 7.64L62.06 7.64Q62.06 7.87 61.96 8.05L61.96 8.05L61.96 8.05Q61.87 8.23 61.70 8.34L61.70 8.34L61.70 8.34Q61.54 8.46 61.35 8.49L61.35 8.49L61.35 8.49Q61.15 8.53 60.94 8.46L60.94 8.46L60.94 8.46Q61.35 9.42 62.51 9.42L62.51 9.42L62.51 9.42Q62.69 9.42 62.83 9.29L62.83 9.29L62.83 9.29Q62.96 9.16 62.96 8.96L62.96 8.96L62.96 6.33L62.96 6.33Q62.96 6.13 62.83 6.00L62.83 6.00L62.83 6.00Q62.71 5.87 62.51 5.87L62.51 5.87L62.51 5.87Q62.15 5.87 61.90 5.62L61.90 5.62L61.90 5.62Q61.66 5.38 61.66 5.01L61.66 5.01L61.66 5.01Q61.66 4.63 61.90 4.39L61.90 4.39L61.90 4.39Q62.15 4.14 62.51 4.14L62.51 4.14L62.51 4.14Q62.87 4.14 63.11 4.40L63.11 4.40L63.11 4.40Q63.35 4.65 63.35 5.01L63.35 5.01L63.35 5.01Q63.35 5.24 63.20 5.39L63.20 5.39L63.20 5.39Q63.04 5.54 62.83 5.54L62.83 5.54L62.83 5.54Q62.61 5.54 62.46 5.39L62.46 5.39L62.46 5.39Q62.31 5.24 62.31 5.01L62.31 5.01L62.31 5.01Q62.31 4.70 62.57 4.55ZM69.23 9.83L69.23 9.83L68.10 9.83L68.10 13.86L65.07 13.86L65.07 13.44L66.36 13.44L66.36 4.44L65.07 4.44L65.07 4.02L69.23 4.02L69.23 4.02Q69.85 4.02 70.37 4.22L70.37 4.22L70.37 4.22Q70.90 4.42 71.27 4.79L71.27 4.79L71.27 4.79Q71.65 5.15 71.87 5.68L71.87 5.68L71.87 5.68Q72.09 6.20 72.09 6.85L72.09 6.85L72.09 6.85Q72.09 7.46 71.88 8.01L71.88 8.01L71.88 8.01Q71.67 8.55 71.29 8.96L71.29 8.96L71.29 8.96Q70.91 9.37 70.38 9.60L70.38 9.60L70.38 9.60Q69.86 9.83 69.23 9.83ZM70.35 8.27L70.35 5.57L70.35 5.57Q70.35 5.10 70.02 4.77L70.02 4.77L70.02 4.77Q69.69 4.44 69.23 4.44L69.23 4.44L68.10 4.44L68.10 9.41L69.23 9.41L69.23 9.41Q69.76 9.41 70.06 9.11L70.06 9.11L70.06 9.11Q70.35 8.81 70.35 8.27L70.35 8.27ZM79.91 9.83L76.87 9.83L76.87 9.59L76.87 9.59Q76.31 9.83 75.74 9.83L75.74 9.83L75.74 9.83Q75.14 9.83 74.61 9.60L74.61 9.60L74.61 9.60Q74.09 9.38 73.70 8.99L73.70 8.99L73.70 8.99Q73.32 8.61 73.09 8.09L73.09 8.09L73.09 8.09Q72.87 7.57 72.87 6.99L72.87 6.99L72.87 6.99Q72.87 6.40 73.09 5.88L73.09 5.88L73.09 5.88Q73.32 5.36 73.71 4.98L73.71 4.98L73.71 4.98Q74.10 4.59 74.63 4.37L74.63 4.37L74.63 4.37Q75.15 4.14 75.74 4.14L75.74 4.14L75.74 4.14Q76.31 4.14 76.87 4.38L76.87 4.38L76.87 4.14L78.61 4.14L78.61 9.42L79.91 9.42L79.91 9.83ZM76.87 8.32L76.87 5.67L76.87 5.67Q76.87 5.21 76.54 4.88L76.54 4.88L76.54 4.88Q76.20 4.55 75.74 4.55L75.74 4.55L75.74 4.55Q75.28 4.55 74.94 4.88L74.94 4.88L74.94 4.88Q74.61 5.21 74.61 5.67L74.61 5.67L74.61 8.32L74.61 8.32Q74.61 8.85 74.91 9.14L74.91 9.14L74.91 9.14Q75.21 9.44 75.74 9.44L75.74 9.44L75.74 9.44Q76.20 9.44 76.54 9.11L76.54 9.11L76.54 9.11Q76.87 8.78 76.87 8.32L76.87 8.32ZM83.71 9.32L83.71 9.32L83.71 9.32Q83.55 9.25 83.45 9.10L83.45 9.10L83.45 9.10Q83.36 8.95 83.36 8.75L83.36 8.75L83.36 8.75Q83.36 8.48 83.54 8.29L83.54 8.29L83.54 8.29Q83.72 8.11 83.99 8.11L83.99 8.11L83.99 8.11Q84.24 8.11 84.43 8.30L84.43 8.30L84.43 8.30Q84.62 8.50 84.62 8.75L84.62 8.75L84.62 8.75Q84.62 9.10 84.46 9.31L84.46 9.31L84.46 9.31Q84.31 9.52 84.08 9.64L84.08 9.64L84.08 9.64Q83.86 9.76 83.59 9.79L83.59 9.79L83.59 9.79Q83.33 9.83 83.12 9.83L83.12 9.83L83.12 9.83Q82.54 9.83 82.03 9.60L82.03 9.60L82.03 9.60Q81.52 9.38 81.14 8.99L81.14 8.99L81.14 8.99Q80.77 8.61 80.55 8.09L80.55 8.09L80.55 8.09Q80.33 7.57 80.33 6.99L80.33 6.99L80.33 6.99Q80.33 5.60 81.08 4.87L81.08 4.87L81.08 4.87Q81.83 4.14 83.15 4.14L83.15 4.14L83.15 4.14Q83.36 4.14 83.61 4.20L83.61 4.20L83.61 4.20Q83.86 4.26 84.08 4.38L84.08 4.38L84.08 4.38Q84.31 4.51 84.46 4.72L84.46 4.72L84.46 4.72Q84.62 4.93 84.62 5.24L84.62 5.24L84.62 5.24Q84.62 5.50 84.43 5.68L84.43 5.68L84.43 5.68Q84.24 5.87 83.99 5.87L83.99 5.87L83.99 5.87Q83.72 5.87 83.54 5.68L83.54 5.68L83.54 5.68Q83.36 5.50 83.36 5.24L83.36 5.24L83.36 5.24Q83.36 4.83 83.71 4.65L83.71 4.65L83.71 4.65Q83.57 4.61 83.43 4.58L83.43 4.58L83.43 4.58Q83.29 4.55 83.15 4.55L83.15 4.55L83.15 4.55Q82.68 4.55 82.36 4.87L82.36 4.87L82.36 4.87Q82.03 5.19 82.03 5.67L82.03 5.67L82.03 8.30L82.03 8.30Q82.03 8.76 82.35 9.09L82.35 9.09L82.35 9.09Q82.67 9.42 83.12 9.42L83.12 9.42L83.12 9.42Q83.26 9.42 83.41 9.40L83.41 9.40L83.41 9.40Q83.57 9.38 83.71 9.32ZM88.83 9.32L88.83 9.32L88.83 9.32Q88.66 9.25 88.56 9.10L88.56 9.10L88.56 9.10Q88.47 8.95 88.47 8.75L88.47 8.75L88.47 8.75Q88.47 8.48 88.65 8.29L88.65 8.29L88.65 8.29Q88.83 8.11 89.11 8.11L89.11 8.11L89.11 8.11Q89.38 8.11 89.56 8.29L89.56 8.29L89.56 8.29Q89.74 8.48 89.74 8.75L89.74 8.75L89.74 8.75Q89.74 9.07 89.58 9.28L89.58 9.28L89.58 9.28Q89.42 9.49 89.19 9.61L89.19 9.61L89.19 9.61Q88.96 9.73 88.70 9.78L88.70 9.78L88.70 9.78Q88.44 9.83 88.23 9.83L88.23 9.83L88.23 9.83Q87.61 9.83 87.09 9.61L87.09 9.61L87.09 9.61Q86.58 9.39 86.20 9.02L86.20 9.02L86.20 9.02Q85.82 8.64 85.60 8.12L85.60 8.12L85.60 8.12Q85.39 7.60 85.39 6.99L85.39 6.99L85.39 6.99Q85.39 6.40 85.61 5.89L85.61 5.89L85.61 5.89Q85.83 5.38 86.23 4.99L86.23 4.99L86.23 4.99Q86.62 4.61 87.13 4.38L87.13 4.38L87.13 4.38Q87.64 4.16 88.23 4.16L88.23 4.16L88.23 4.16Q88.87 4.16 89.40 4.40L89.40 4.40L89.40 4.40Q89.92 4.65 90.29 5.06L90.29 5.06L90.29 5.06Q90.66 5.47 90.87 6.03L90.87 6.03L90.87 6.03Q91.07 6.58 91.07 7.20L91.07 7.20L87.11 7.20L87.11 8.30L87.11 8.30Q87.11 8.76 87.44 9.09L87.44 9.09L87.44 9.09Q87.77 9.42 88.23 9.42L88.23 9.42L88.23 9.42Q88.37 9.42 88.52 9.40L88.52 9.40L88.52 9.40Q88.68 9.38 88.83 9.32ZM89.35 6.79L89.35 5.67L89.35 5.67Q89.35 5.18 89.03 4.86L89.03 4.86L89.03 4.86Q88.72 4.55 88.23 4.55L88.23 4.55L88.23 4.55Q87.74 4.55 87.43 4.86L87.43 4.86L87.43 4.86Q87.12 5.18 87.11 5.67L87.11 5.67L87.11 5.67Q87.11 5.91 87.11 6.21L87.11 6.21L87.11 6.21Q87.12 6.51 87.11 6.79L87.11 6.79L89.35 6.79Z"></path></g><defs data-v-fde0c5aa=""><!----></defs><g data-v-fde0c5aa="" id="430795d5-8bea-4905-a208-825b2b5bb57a" stroke="none" fill="#B93368" transform="matrix(0.5005399460350232,0,0,0.5005399460350232,38.748460148780275,124.97302370174084)"><path d="M60.621 72.245a70.418 70.418 0 0 1-3.819-1.303 100.658 100.658 0 0 1-3.277 3.73 78.531 78.531 0 0 0 5.733 2.022 2.329 2.329 0 0 0 2.907-1.544 2.327 2.327 0 0 0-1.544-2.905zM79.847 46.961c-7.223 4.347-16.837 8.561-27.072 11.865-25.786 8.327-44.194 7.587-45.542 3.422-.409-1.269.984-4.184 6.262-8.216a2.328 2.328 0 0 0-2.825-3.699c-6.48 4.952-9.125 9.442-7.864 13.345 1.42 4.397 7.438 6.25 15.773 6.25 9.89 0 23.041-2.61 35.626-6.675 10.563-3.41 20.522-7.782 28.041-12.306a2.325 2.325 0 1 0-2.399-3.986z"></path><path d="M30.923 61.979c2.049-.331 4.164-.73 6.329-1.196-7.324-4.97-13.436-10.61-17.497-16.209-4.411-6.082-5.842-11.405-3.922-14.604 2.669-4.451 11.87-5.005 23.436-1.413a2.33 2.33 0 0 0 2.913-1.532 2.328 2.328 0 0 0-1.533-2.912c-14.107-4.38-24.875-3.086-28.807 3.463-4.999 8.335 3.21 22.482 19.081 34.403zM48.355 67.259c-2.256.63-4.492 1.203-6.692 1.717 1.464.825 2.937 1.624 4.418 2.366a80.373 80.373 0 0 0 3.3-3.56c-.342-.165-.683-.353-1.026-.523z"></path><path d="M41.059 40.811a2.325 2.325 0 0 0 3.239-.572C56.494 22.821 67.994 16.25 71.289 18.37c3.67 2.362 1.659 16.587-9.502 34.927 2.445-.969 4.81-1.978 7.066-3.019 8.129-15.237 12.165-31.183 4.954-35.822-8.115-5.224-22.962 8.32-33.321 23.113a2.327 2.327 0 0 0 .573 3.242zM54.866 65.303c-.631.204-1.26.399-1.89.595-10.087 12.493-19.285 17.748-22.403 15.746-1.024-.66-1.411-2.204-1.556-3.384a2.32 2.32 0 0 0-2.592-2.027 2.327 2.327 0 0 0-2.026 2.592c.386 3.154 1.616 5.419 3.656 6.732 1.198.771 2.552 1.13 4.025 1.13 8.015 0 19.548-10.643 28.707-23.431-1.948.71-3.918 1.4-5.921 2.047z"></path><circle cx="35.509" cy="47.542" r="6.439"></circle><circle cx="91.062" cy="42.838" r="6.44"></circle><circle cx="72.057" cy="77.258" r="6.439"></circle></g><!----></svg>