<svg xmlns="http://www.w3.org/2000/svg" width="104" height="104" fill="none"><g clip-path="url(#a)"><path fill="#26914A" d="M93.295 104h-82.59C4.791 104 0 99.21 0 93.295v-82.59C0 4.791 4.79 0 10.705 0h82.59C99.209 0 104 4.79 104 10.705v82.59C104 99.209 99.21 104 93.295 104Z"/><mask id="b" width="104" height="104" x="0" y="0" maskUnits="userSpaceOnUse" style="mask-type:alpha"><path fill="#26914A" d="M93.295 104h-82.59C4.791 104 0 99.21 0 93.295v-82.59C0 4.791 4.79 0 10.705 0h82.59C99.209 0 104 4.79 104 10.705v82.59C104 99.209 99.21 104 93.295 104Z"/></mask><g mask="url(#b)"><path fill="#086A2A" d="M48.397 104.802 15.62 72.042l1.818-3.909 2.038-32.154 16.479-4.11 6.88 6.753 2.809-3.331h14.571l8.456 8.451 8.594-9.305 7.944-1.525 20.703 21.196v50.694H48.397Z"/><path fill="#fff" d="M62.965 43.16c0-6.576-4.75-11.17-11.547-11.17H41.105v40.012h10.313c6.8 0 11.55-4.57 11.55-11.113 0-3.882-1.728-7.086-4.776-8.926 3.085-1.83 4.773-4.925 4.773-8.803Zm-15.178 5.547V38.343h3.068c2.7 0 5.428 1.596 5.428 5.153 0 3.598-2.727 5.21-5.428 5.21h-3.068Zm8.496 11.62c0 3.656-2.813 5.32-5.428 5.32h-3.068V55.062h3.068c3.75 0 5.428 2.644 5.428 5.265ZM15.754 72.002h6.682V54.948H36.04v-6.354H22.436v-10.25H36.04V31.99H15.754v40.012ZM81.156 49.541l-2.025-.956c-3.7-1.731-5.348-3.647-5.348-6.212 0-3.23 2.522-4.703 4.865-4.703 2.955 0 5.265 2.297 5.371 5.338l.017.46h6.34l-.01-.483c-.122-6.695-5.026-11.553-11.662-11.553-6.616 0-11.606 4.752-11.606 11.057 0 5.12 3.216 9.13 9.56 11.917l2.195.957c3.525 1.532 5.166 3.485 5.166 6.149 0 2.892-1.933 4.759-4.921 4.759-2.545 0-5.537-1.602-5.597-6.116l-.006-.47h-6.397v1.208c0 6.764 4.974 11.676 11.831 11.676 6.712 0 11.775-4.78 11.775-11.114 0-6.562-5.103-9.812-9.548-11.914Z"/></g></g><defs><clipPath id="a"><path fill="#fff" d="M0 0h104v104H0z"/></clipPath></defs></svg>